<?xml version="1.0" encoding="UTF-8" standalone="no"?>
<svg
   xmlns:dc="http://purl.org/dc/elements/1.1/"
   xmlns:cc="http://creativecommons.org/ns#"
   xmlns:rdf="http://www.w3.org/1999/02/22-rdf-syntax-ns#"
   xmlns:svg="http://www.w3.org/2000/svg"
   xmlns="http://www.w3.org/2000/svg"
   viewBox="0 0 902.56622 695.45276"
   height="695.45276"
   width="902.56622"
   xml:space="preserve"
   id="svg2"
   version="1.1"><metadata
     id="metadata8"><rdf:RDF><cc:Work
         rdf:about=""><dc:format>image/svg+xml</dc:format><dc:type
           rdf:resource="http://purl.org/dc/dcmitype/StillImage" /></cc:Work></rdf:RDF></metadata><defs
     id="defs6"><clipPath
       id="clipPath18"
       clipPathUnits="userSpaceOnUse"><path
         id="path16"
         d="M 0,521.59 H 676.925 V 0 H 0 Z" /></clipPath></defs><g
     transform="matrix(1.3333333,0,0,-1.3333333,-1.4099843e-4,695.45302)"
     id="g10"><g
       id="g12"><g
         clip-path="url(#clipPath18)"
         id="g14"><g
           transform="translate(661.2468,242.4086)"
           id="g20"><path
             id="path22"
             style="fill:#ffffff;fill-opacity:1;fill-rule:nonzero;stroke:none"
             d="m 0,0 c -0.132,-2.699 -0.189,-5.713 -0.586,-9.042 -0.161,-1.664 -0.33,-3.404 -0.505,-5.22 -0.18,-1.816 -0.312,-3.714 -0.686,-5.656 -1.189,-7.804 -2.813,-16.778 -5.776,-26.559 -0.755,-2.439 -1.428,-4.978 -2.298,-7.525 -0.932,-2.527 -1.887,-5.119 -2.865,-7.774 -0.901,-2.685 -2.154,-5.305 -3.334,-8.024 -0.596,-1.358 -1.2,-2.73 -1.809,-4.117 -0.575,-1.403 -1.287,-2.762 -2.003,-4.136 -1.418,-2.756 -2.866,-5.569 -4.343,-8.438 -1.644,-2.781 -3.32,-5.617 -5.029,-8.507 -0.433,-0.718 -0.839,-1.458 -1.301,-2.169 -0.473,-0.703 -0.948,-1.41 -1.425,-2.121 -0.955,-1.42 -1.917,-2.854 -2.888,-4.3 -0.992,-1.433 -1.901,-2.94 -2.984,-4.347 -1.07,-1.416 -2.15,-2.843 -3.238,-4.283 -8.707,-11.511 -19.118,-22.99 -31.272,-33.926 -6.208,-5.592 -12.876,-11.038 -19.969,-16.288 -1.376,-0.58 -2.795,-1.179 -4.266,-1.799 -1.184,-0.499 -2.374,-0.999 -3.568,-1.502 -2.391,-0.97 -4.815,-1.892 -7.237,-2.847 -2.411,-0.977 -4.893,-1.817 -7.355,-2.727 -1.235,-0.448 -2.471,-0.897 -3.711,-1.346 -1.25,-0.42 -2.503,-0.841 -3.759,-1.263 -10.029,-3.409 -20.357,-6.49 -30.947,-9.2 -10.586,-2.717 -21.404,-5.184 -32.451,-7.251 -11.047,-2.066 -22.297,-3.831 -33.724,-5.292 -11.432,-1.412 -23.039,-2.499 -34.787,-3.285 -11.749,-0.796 -23.646,-1.151 -35.651,-1.252 -12.006,-0.112 -24.124,0.221 -36.319,0.862 -6.145,0.301 -12.116,0.714 -18.156,1.354 -6.034,0.669 -12.086,1.496 -18.143,2.491 -24.231,4.049 -48.496,10.649 -72.371,19.099 -23.858,8.519 -47.375,18.897 -70.011,31.224 -22.639,12.299 -44.429,26.557 -64.43,43.012 -7.814,6.443 -15.354,13.253 -22.482,20.436 -2.218,3.626 -4.359,7.302 -6.4,11.038 -5.983,11.259 -11.025,23.019 -15.12,35.117 l -2.839,9.151 c -0.836,3.082 -1.55,6.197 -2.336,9.295 -0.854,3.084 -1.329,6.248 -1.935,9.387 l -0.878,4.715 c -0.315,1.568 -0.425,3.168 -0.649,4.75 l -0.593,4.761 -0.299,2.38 -0.147,1.191 -0.076,1.197 -0.61,9.58 c -0.151,1.595 -0.073,3.198 -0.099,4.798 l -0.013,4.802 c 0.01,1.603 -0.044,3.197 0.016,4.808 l 0.228,4.84 c 0.627,12.903 2.21,25.756 4.787,38.39 4.849,23.835 13.302,46.896 25.193,67.913 3.627,3.711 7.37,7.303 11.221,10.76 18.739,16.838 39.922,30.676 62.004,42.04 22.114,11.361 45.211,20.193 68.485,26.99 23.301,6.743 46.8,11.446 70.041,14.384 23.248,2.924 46.239,4.082 68.643,3.772 2.8,-0.062 5.592,-0.124 8.374,-0.185 2.782,-0.107 5.554,-0.214 8.317,-0.321 2.761,-0.152 5.514,-0.304 8.257,-0.456 2.709,-0.213 5.395,-0.359 8.077,-0.646 7.921,-0.736 15.746,-1.819 23.45,-3.172 9.226,-3.764 16.438,-7.203 20.558,-9.244 10.453,-5.178 18.648,-9.193 26.671,-12.801 8.006,-3.642 15.85,-6.849 25.149,-11.318 -5.385,7.311 -10.591,13.261 -16.468,18.71 3.701,-1.28 7.371,-2.59 10.982,-3.952 18.461,-7.019 35.737,-15.118 51.67,-23.922 15.933,-8.809 30.531,-18.323 43.661,-28.246 13.113,-9.944 24.779,-20.269 34.904,-30.685 20.298,-20.829 34.217,-42.023 42.862,-60.5 4.362,-9.235 7.497,-17.775 9.737,-25.317 2.245,-7.544 3.604,-14.083 4.571,-19.392 0.397,-2.669 0.794,-5.019 1.047,-7.057 0.231,-2.04 0.424,-3.756 0.58,-5.136 0.214,-2.771 0.323,-4.196 0.323,-4.196 0,0 0.027,-0.356 0.079,-1.059 0.057,-0.702 0.137,-1.752 0.167,-3.141 C -0.043,10.916 0.011,9.189 0.076,7.136 0.045,5.082 0.091,2.699 0,0 m -223.331,-219.026 c -41.311,-8.4 -86.715,-10.261 -133.033,-4.012 -23.151,3.077 -46.469,8.418 -69.411,16.068 -2.861,0.975 -5.752,1.889 -8.606,2.919 -2.835,1.08 -5.676,2.163 -8.522,3.248 l -4.274,1.627 -4.212,1.798 c -2.808,1.204 -5.622,2.41 -8.442,3.619 -11.116,5.166 -22.215,10.625 -32.85,17.037 -16.684,9.709 -32.537,21.149 -47.266,34.048 9.059,-5.777 18.299,-11.204 27.67,-16.297 23.396,-12.739 47.628,-23.434 72.257,-32.229 24.653,-8.723 49.733,-15.56 75.062,-19.795 6.336,-1.041 12.686,-1.91 19.044,-2.613 6.359,-0.675 12.782,-1.117 18.993,-1.42 12.508,-0.658 24.935,-0.997 37.249,-0.883 12.313,0.104 24.517,0.47 36.575,1.286 12.058,0.807 23.975,1.924 35.723,3.376 11.742,1.502 23.314,3.318 34.688,5.447 5.712,1.07 11.369,2.244 16.971,3.503 -18.046,-6.943 -37.335,-12.624 -57.616,-16.727 M -638.274,-11.47 c -0.496,1.493 -1.059,2.967 -1.504,4.473 l -1.343,4.516 c -0.773,3.038 -1.57,6.072 -2.134,9.148 -1.192,6.136 -1.992,12.34 -2.219,18.564 -0.422,12.365 1.038,25.126 3.922,37.355 1.426,6.136 3.235,12.181 5.433,18.082 1.272,3.434 2.659,6.825 4.144,10.172 -0.741,-3.06 -1.432,-6.132 -2.059,-9.217 -2.742,-13.443 -4.42,-27.092 -5.084,-40.769 l -0.239,-5.129 c -0.063,-1.713 -0.012,-3.447 -0.022,-5.169 l 0.015,-5.176 c 0.027,-1.724 -0.047,-3.451 0.109,-5.171 l 0.659,-10.324 0.084,-1.29 0.157,-1.283 0.318,-2.565 0.64,-5.129 c 0.24,-1.704 0.369,-3.428 0.703,-5.117 l 0.941,-5.077 c 0.65,-3.379 1.175,-6.784 2.085,-10.102 0.408,-1.617 0.8,-3.239 1.199,-4.857 -2.173,4.603 -4.108,9.299 -5.805,14.065 m 161.606,256.664 4.383,1.646 2.19,0.823 c 0.732,0.267 1.48,0.492 2.219,0.74 2.963,0.971 5.922,1.941 8.877,2.909 2.997,0.844 5.989,1.687 8.977,2.528 l 2.24,0.631 2.265,0.538 4.524,1.075 4.517,1.077 4.553,0.898 c 3.035,0.567 6.062,1.244 9.089,1.723 3.029,0.467 6.041,1.009 9.082,1.353 l 4.545,0.582 4.557,0.452 c 24.296,2.37 48.611,1.37 72.102,-2.037 0.446,-0.065 0.891,-0.137 1.338,-0.203 -17.237,-0.366 -34.76,-1.59 -52.444,-3.812 -24.003,-3.032 -48.302,-7.888 -72.461,-14.877 -24.134,-7.045 -48.15,-16.216 -71.275,-28.092 -7.959,-4.096 -15.819,-8.514 -23.524,-13.268 2.966,2.717 5.997,5.358 9.103,7.901 19.538,16.113 41.84,28.465 65.143,37.413 M 15.5,12.99 c -0.035,1.522 -0.122,2.671 -0.184,3.441 -0.056,0.769 -0.085,1.16 -0.085,1.16 0,0 -0.121,1.561 -0.356,4.596 -0.17,1.512 -0.381,3.392 -0.633,5.627 -0.278,2.232 -0.706,4.806 -1.146,7.728 -1.054,5.813 -2.543,12.969 -4.992,21.203 -2.444,8.229 -5.856,17.527 -10.578,27.525 -9.359,20.015 -24.326,42.714 -45.772,64.718 -10.699,11.011 -22.961,21.86 -36.683,32.267 -13.738,10.386 -28.952,20.3 -45.523,29.465 -16.572,9.16 -34.506,17.569 -53.686,24.864 -19.195,7.244 -39.625,13.447 -61.217,17.79 -2.197,0.443 -4.409,0.862 -6.63,1.265 -3.231,1.308 -6.675,2.644 -10.308,3.97 -1.876,0.661 -3.759,1.323 -5.646,1.987 -2.833,1.008 -5.718,1.881 -8.586,2.83 -2.881,0.909 -5.795,1.739 -8.702,2.615 -2.931,0.793 -5.869,1.589 -8.815,2.387 -11.825,3.027 -23.926,5.464 -36.243,7.256 -24.622,3.569 -50.15,4.633 -75.873,2.13 l -4.824,-0.481 -4.822,-0.615 c -3.222,-0.368 -6.427,-0.939 -9.646,-1.438 -3.218,-0.511 -6.377,-1.213 -9.576,-1.813 l -4.788,-0.947 -4.762,-1.132 -4.768,-1.135 -2.386,-0.568 -2.367,-0.664 c -3.155,-0.89 -6.316,-1.781 -9.48,-2.673 -3.128,-1.024 -6.26,-2.05 -9.397,-3.077 -0.782,-0.263 -1.572,-0.502 -2.348,-0.785 l -2.323,-0.871 -4.648,-1.745 c -24.719,-9.488 -48.538,-22.668 -69.472,-39.928 -20.979,-17.162 -39.097,-38.176 -53.03,-61.777 -0.452,-0.762 -0.886,-1.533 -1.329,-2.3 -14.355,-14.941 -26.972,-31.893 -36.502,-50.808 -3.1,-6.141 -5.83,-12.49 -8.23,-18.974 -2.413,-6.48 -4.406,-13.135 -5.98,-19.897 -3.171,-13.537 -4.801,-27.372 -4.331,-41.57 0.259,-7.058 1.158,-14.079 2.502,-20.991 0.642,-3.467 1.527,-6.872 2.402,-10.277 l 1.499,-5.05 c 0.5,-1.684 1.119,-3.323 1.675,-4.986 2.347,-6.603 5.078,-13.052 8.214,-19.271 3.152,-6.211 6.634,-12.225 10.378,-18.046 3.779,-5.798 7.842,-11.377 12.087,-16.79 4.268,-5.395 8.781,-10.562 13.418,-15.592 1.596,-1.707 3.219,-3.384 4.853,-5.049 4.442,-7.158 9.192,-14.098 14.209,-20.81 8.26,-10.657 17.122,-20.755 26.584,-30.166 19.087,-18.634 40.226,-34.741 62.707,-47.827 11.148,-6.713 22.75,-12.428 34.372,-17.82 2.945,-1.263 5.884,-2.524 8.817,-3.781 l 4.4,-1.875 4.459,-1.701 c 2.97,-1.13 5.934,-2.259 8.893,-3.386 2.978,-1.073 5.989,-2.029 8.973,-3.044 23.921,-7.973 48.187,-13.522 72.243,-16.718 48.101,-6.483 95.224,-4.557 138.271,4.198 43.071,8.721 82.032,24.266 114.528,44.114 7.344,4.477 14.341,9.18 21.014,14.049 1.18,0.536 2.333,1.059 3.432,1.558 1.405,0.642 2.743,1.251 4.007,1.828 1.248,0.61 2.423,1.185 3.518,1.72 2.184,1.083 4.066,1.963 5.534,2.748 10.93,5.622 18.917,11.214 25.808,17.314 6.868,6.118 12.73,12.716 18.737,21.113 -7.012,-3.491 -13.204,-6.2 -19.264,-8.922 5.15,5.678 9.923,11.428 14.288,17.201 1.163,1.54 2.316,3.068 3.459,4.583 1.154,1.506 2.137,3.121 3.199,4.655 1.04,1.551 2.071,3.088 3.093,4.612 0.511,0.762 1.019,1.52 1.525,2.275 0.495,0.763 0.934,1.557 1.399,2.329 1.834,3.105 3.634,6.152 5.399,9.142 1.591,3.089 3.151,6.117 4.679,9.083 1.603,2.928 2.787,5.987 4.11,8.898 1.274,2.934 2.613,5.764 3.596,8.663 1.055,2.87 2.086,5.671 3.091,8.403 0.939,2.754 1.678,5.5 2.49,8.14 3.197,10.584 4.967,20.305 6.246,28.758 0.397,2.105 0.548,4.159 0.744,6.125 0.19,1.966 0.372,3.851 0.546,5.652 0.418,3.591 0.491,6.9 0.63,9.848 0.099,2.951 0.053,5.56 0.081,7.808 -0.046,2.249 -0.132,4.138 -0.178,5.659" /></g></g></g></g></svg>