<?xml version="1.0" encoding="UTF-8" standalone="no"?>
<svg
   xmlns:dc="http://purl.org/dc/elements/1.1/"
   xmlns:cc="http://creativecommons.org/ns#"
   xmlns:rdf="http://www.w3.org/1999/02/22-rdf-syntax-ns#"
   xmlns:svg="http://www.w3.org/2000/svg"
   xmlns="http://www.w3.org/2000/svg"
   viewBox="0 0 142.64992 248.4686"
   height="248.4686"
   width="142.64992"
   xml:space="preserve"
   id="svg2"
   version="1.1"><metadata
     id="metadata8"><rdf:RDF><cc:Work
         rdf:about=""><dc:format>image/svg+xml</dc:format><dc:type
           rdf:resource="http://purl.org/dc/dcmitype/StillImage" /></cc:Work></rdf:RDF></metadata><defs
     id="defs6"><clipPath
       id="clipPath18"
       clipPathUnits="userSpaceOnUse"><path
         id="path16"
         d="M 0,186.352 H 106.988 V 0 H 0 Z" /></clipPath></defs><g
     transform="matrix(1.3333333,0,0,-1.3333333,0,248.46861)"
     id="g10"><g
       id="g12"><g
         clip-path="url(#clipPath18)"
         id="g14"><g
           transform="translate(48.982,51.1856)"
           id="g20"><path
             id="path22"
             style="fill:#ffffff;fill-opacity:1;fill-rule:nonzero;stroke:none"
             d="m 0,0 h 4.46 c 0.089,1.278 0.128,2.541 0.274,3.791 0.287,2.472 0.428,4.985 1.005,7.392 0.734,3.059 1.585,6.143 2.852,9.009 1.525,3.446 3.219,6.85 5.638,9.827 2.927,3.6 6.209,6.758 10.263,9.083 4.397,2.521 9.011,4.225 14.172,4.057 0.154,-0.005 0.309,0.026 0.62,0.055 v 1.404 c 0,11.12 -0.128,22.242 0.056,33.359 0.087,5.282 4.046,9.439 9.755,9.222 4.061,-0.154 7.427,-2.908 8.312,-6.512 0.289,-1.179 0.571,-2.4 0.572,-3.602 0.03,-26.399 0.05,-52.799 -0.029,-79.198 -0.007,-2.414 -0.613,-4.841 -1.073,-7.238 -0.644,-3.362 -1.684,-6.616 -3.198,-9.693 -1.234,-2.512 -2.438,-5.056 -3.901,-7.435 -2.501,-4.066 -5.63,-7.682 -9.168,-10.854 -2.469,-2.213 -5.257,-4.109 -8.068,-5.883 -2.365,-1.492 -4.922,-2.708 -7.48,-3.856 -3.913,-1.757 -8.043,-2.744 -12.291,-3.441 -3.571,-0.585 -7.132,-0.795 -10.701,-0.604 -2.827,0.151 -5.641,0.683 -8.445,1.143 -3.457,0.567 -6.743,1.704 -9.959,3.095 -4.645,2.008 -8.923,4.544 -12.845,7.787 -4.051,3.351 -7.608,7.119 -10.543,11.437 -2.137,3.141 -4.091,6.427 -5.257,10.105 -0.8,2.523 -1.811,4.986 -2.471,7.541 -0.56,2.165 -1.048,4.422 -1.062,6.642 -0.221,33.935 -0.401,67.872 -0.47,101.808 -0.01,4.874 2.689,8.442 7.643,9.421 5.132,1.014 10.026,-2.299 10.791,-7.622 0.135,-0.944 0.2,-1.907 0.201,-2.861 0.013,-11.4 0.011,-46.348 0.014,-52.422 0,-1.854 0.404,-2.503 1.567,-2.522 1.287,-0.022 1.809,0.734 1.809,2.621 0.001,23.48 0.004,46.96 -0.002,70.44 -0.001,4.209 3.142,7.727 7.038,8.732 3.895,1.004 8.093,-0.865 9.985,-4.038 0.761,-1.276 1.308,-2.862 1.377,-4.335 0.205,-4.35 0.27,-45.699 0.311,-62.013 0.003,-1.06 0.571,-1.721 1.453,-1.85 0.926,-0.135 1.447,0.61 1.6,1.504 0.072,0.428 0.076,0.872 0.076,1.308 0.006,23.56 0.023,47.119 -0.002,70.679 -0.004,4.128 1.766,7.192 5.461,8.842 4.931,2.202 10.953,0.018 12.717,-5.834 0.302,-0.999 0.304,-2.113 0.305,-3.174 0.013,-23.439 0.002,-46.878 0.022,-70.317 10e-4,-0.63 0.161,-1.353 0.496,-1.872 0.74,-1.148 2.175,-1.011 2.714,0.252 0.254,0.596 0.292,1.317 0.291,1.982 -0.009,20.119 -0.038,40.239 -0.052,60.358 -10e-4,1.628 0.079,3.234 0.81,4.768 1.308,2.741 3.383,4.561 6.336,5.158 4.167,0.841 7.548,-0.553 9.928,-4.097 1.06,-1.577 1.476,-3.401 1.474,-5.311 -0.015,-16.519 -0.036,-33.039 -0.036,-49.559 0,-5.996 0.035,-11.993 0.099,-17.989 0.009,-0.853 -0.173,-1.264 -1.079,-1.484 -2.201,-0.538 -4.381,-1.175 -6.544,-1.852 -3.196,-0.999 -5.988,-2.756 -8.696,-4.695 -3.6,-2.58 -6.632,-5.749 -9.172,-9.311 C 8.168,28.847 6.847,26.003 5.439,23.25 4.575,21.562 3.881,19.777 3.207,17.999 2.144,15.2 1.4,12.319 1.096,9.324 0.785,6.258 0.38,3.2 0,0" /></g></g></g></g></svg>