<?xml version="1.0" encoding="UTF-8" standalone="no"?>
<svg
   xmlns:dc="http://purl.org/dc/elements/1.1/"
   xmlns:cc="http://creativecommons.org/ns#"
   xmlns:rdf="http://www.w3.org/1999/02/22-rdf-syntax-ns#"
   xmlns:svg="http://www.w3.org/2000/svg"
   xmlns="http://www.w3.org/2000/svg"
   viewBox="0 0 122.99065 139.97173"
   height="139.97173"
   width="122.99065"
   xml:space="preserve"
   id="svg2"
   version="1.1"><metadata
     id="metadata8"><rdf:RDF><cc:Work
         rdf:about=""><dc:format>image/svg+xml</dc:format><dc:type
           rdf:resource="http://purl.org/dc/dcmitype/StillImage" /></cc:Work></rdf:RDF></metadata><defs
     id="defs6"><clipPath
       id="clipPath18"
       clipPathUnits="userSpaceOnUse"><path
         id="path16"
         d="M 0,104.979 H 92.243 V 0 H 0 Z" /></clipPath></defs><g
     transform="matrix(1.3333333,0,0,-1.3333333,0,139.97173)"
     id="g10"><g
       id="g12"><g
         clip-path="url(#clipPath18)"
         id="g14"><g
           transform="translate(62.6957,57.3828)"
           id="g20"><path
             id="path22"
             style="fill:#ffffff;fill-opacity:1;fill-rule:nonzero;stroke:none"
             d="m 0,0 h 5.764 c -0.045,-0.585 -0.113,-3.563 1.393,-4.798 0,0 -2.484,-14.786 -1.393,-19.596 0.392,-2.01 2,-7.078 3.865,-7.011 1.876,0 3.292,5.034 3.651,7.011 0.9,4.876 -2.112,19.596 -2.112,19.596 0.427,0.157 1.27,1.079 1.483,4.798 L 19,0 c 5.774,0 11.202,-5.303 10.483,-11.82 L 27.977,-23.809 C 26.81,-30.259 23.292,-35.404 17.494,-35.404 H 1.505 c -5.809,0 -9.326,5.302 -10.484,11.729 l -1.483,12.057 C -11.192,-5.236 -5.786,0 0,0" /></g><g
           transform="translate(72.1898,65.1582)"
           id="g24"><path
             id="path26"
             style="fill:#ffffff;fill-opacity:1;fill-rule:nonzero;stroke:none"
             d="m 0,0 c -4.395,0 -7.989,3.584 -7.989,8 0,4.449 3.594,8.012 7.989,8.012 C 4.449,16.012 8,12.449 8,8 8,3.584 4.449,0 0,0 M 0,18.473 C -5.741,18.473 -10.506,13.798 -10.506,8 -10.506,2.202 -5.741,-2.506 0,-2.506 5.798,-2.506 10.472,2.202 10.472,8 10.472,13.798 5.798,18.473 0,18.473" /></g><g
           transform="translate(34.4027,41.3496)"
           id="g28"><path
             id="path30"
             style="fill:#ffffff;fill-opacity:1;fill-rule:nonzero;stroke:none"
             d="m 0,0 v -0.035 h -22.102 c -6.809,0 -13.123,-6 -12.213,-13.403 l 1.686,-14.192 c 1.358,-7.472 5.493,-13.72 12.258,-13.72 h 18.607 c 6.775,0 10.865,5.978 12.237,13.495 l 1.74,14.225 C 13.045,-6.102 6.741,0 0,0" /></g><g
           transform="translate(23.3568,72.0127)"
           id="g32"><path
             id="path34"
             style="fill:#ffffff;fill-opacity:1;fill-rule:nonzero;stroke:none"
             d="m 0,0 c -6.764,0 -12.213,-5.461 -12.213,-12.259 0,-6.742 5.449,-12.248 12.213,-12.248 6.72,0 12.225,5.506 12.225,12.248 C 12.225,-5.461 6.72,0 0,0" /></g><g
           transform="translate(46.5492,99.1143)"
           id="g36"><path
             id="path38"
             style="fill:#ffffff;fill-opacity:1;fill-rule:nonzero;stroke:none"
             d="m 0,0 h -2.888 -15 -2.854 c -2.585,0 -4.674,-2.079 -4.674,-4.675 v -5.303 -6.001 c 0,-2.595 2.089,-4.708 4.674,-4.708 h 3.786 v -3.392 c 0,-0.753 0.462,-1.45 1.181,-1.742 0.224,-0.102 0.438,-0.135 0.684,-0.135 0.495,0 0.978,0.169 1.349,0.561 l 4.877,4.708 H 0 c 2.595,0 4.686,2.113 4.686,4.708 v 6.001 5.303 C 4.686,-2.079 2.595,0 0,0" /></g><g
           transform="translate(69.1342,96.6748)"
           id="g40"><path
             id="path42"
             style="fill:#ffffff;fill-opacity:1;fill-rule:nonzero;stroke:none"
             d="M 0,0 V -5.011 C 0,-6.089 -0.889,-6.954 -1.934,-6.954 H -5.068 -7 v -1.978 -1.944 l -3.428,3.338 -0.55,0.584 h -0.775 -2.327 v 4.719 c 0,3.876 -2.65,7.202 -6.213,8.19 0.314,0.271 0.764,0.405 1.18,0.405 h 2.347 12.428 2.404 C -0.889,6.36 0,5.462 0,4.383 Z m -1.934,8.304 h -2.404 -12.428 -2.347 c -2.169,0 -3.945,-1.785 -3.945,-3.921 h 0.473 c 3.606,0 6.618,-2.967 6.618,-6.618 v -5.303 -1.394 h 4.214 l 4.022,-3.887 c 0.281,-0.293 0.708,-0.451 1.089,-0.451 0.204,0 0.427,0.069 0.562,0.135 0.607,0.226 1.012,0.821 1.012,1.405 v 2.798 h 3.134 c 2.159,0 3.888,1.787 3.888,3.921 V 0 4.383 c 0,2.136 -1.729,3.921 -3.888,3.921" /></g></g></g></g></svg>