<?xml version="1.0" encoding="UTF-8" standalone="no"?>
<svg
   xmlns:dc="http://purl.org/dc/elements/1.1/"
   xmlns:cc="http://creativecommons.org/ns#"
   xmlns:rdf="http://www.w3.org/1999/02/22-rdf-syntax-ns#"
   xmlns:svg="http://www.w3.org/2000/svg"
   xmlns="http://www.w3.org/2000/svg"
   viewBox="0 0 141.67332 135.16533"
   height="135.16533"
   width="141.67332"
   xml:space="preserve"
   id="svg2"
   version="1.1"><metadata
     id="metadata8"><rdf:RDF><cc:Work
         rdf:about=""><dc:format>image/svg+xml</dc:format><dc:type
           rdf:resource="http://purl.org/dc/dcmitype/StillImage" /></cc:Work></rdf:RDF></metadata><defs
     id="defs6"><clipPath
       id="clipPath18"
       clipPathUnits="userSpaceOnUse"><path
         id="path16"
         d="M 0,101.374 H 106.255 V 0 H 0 Z" /></clipPath></defs><g
     transform="matrix(1.3333333,0,0,-1.3333333,0,135.16533)"
     id="g10"><g
       id="g12"><g
         clip-path="url(#clipPath18)"
         id="g14"><g
           transform="translate(83.0016,26.569)"
           id="g20"><path
             id="path22"
             style="fill:#ffffff;fill-opacity:1;fill-rule:nonzero;stroke:none"
             d="m 0,0 c -5.495,0 -9.942,4.471 -9.942,9.972 0,5.489 4.447,9.954 9.942,9.954 5.495,0 9.977,-4.465 9.977,-9.954 C 9.977,4.471 5.495,0 0,0 m -53.116,39.862 h -6.905 c -3.527,0 -6.382,2.583 -6.382,5.802 v 7.47 c 0,7.332 5.926,13.263 13.287,13.263 h 46.472 c 7.338,0 13.299,-5.931 13.299,-13.263 v -7.47 c 0,-3.219 -2.854,-5.802 -6.383,-5.802 H -6.644 Z M -59.76,0 c -5.483,0 -9.966,4.471 -9.966,9.972 0,5.489 4.483,9.954 9.966,9.954 5.484,0 9.943,-4.465 9.943,-9.954 C -49.817,4.471 -54.276,0 -59.76,0 m 74.868,36.443 v 0.565 c 4.494,0 8.146,3.639 8.146,8.156 0,4.533 -3.652,8.186 -8.146,8.186 0,11.837 -11.763,21.455 -26.268,21.455 h -37.462 c -14.471,0 -26.211,-9.618 -26.211,-21.455 -4.528,0 -8.169,-3.653 -8.169,-8.186 0,-4.517 3.641,-8.156 8.169,-8.156 v -0.565 c -4.79,-3.565 -8.169,-7.967 -8.169,-12.722 V 7.133 c 0,-6.883 3.266,-13.015 8.339,-16.95 -0.124,-4.233 -0.17,-3.249 -0.17,-4.483 0,-6.775 5.483,-12.269 12.264,-12.269 h 4.072 c 6.769,0 12.264,5.494 12.264,12.269 0,0.728 0.045,-1.951 0.091,0 h 32.526 c 0.055,-1.951 0.079,0.728 0.079,0 0,-6.775 5.495,-12.269 12.263,-12.269 h 4.096 c 6.758,0 12.286,5.494 12.286,12.269 0,1.234 -0.056,0.25 -0.205,4.483 5.074,3.935 8.351,10.067 8.351,16.95 v 16.588 c 0,4.755 -3.379,9.157 -8.146,12.722" /></g></g></g></g></svg>