<?xml version="1.0" encoding="UTF-8" standalone="no"?>
<svg
   xmlns:dc="http://purl.org/dc/elements/1.1/"
   xmlns:cc="http://creativecommons.org/ns#"
   xmlns:rdf="http://www.w3.org/1999/02/22-rdf-syntax-ns#"
   xmlns:svg="http://www.w3.org/2000/svg"
   xmlns="http://www.w3.org/2000/svg"
   viewBox="0 0 146.45467 129.7022"
   height="129.70219"
   width="146.45467"
   xml:space="preserve"
   id="svg2"
   version="1.1"><metadata
     id="metadata8"><rdf:RDF><cc:Work
         rdf:about=""><dc:format>image/svg+xml</dc:format><dc:type
           rdf:resource="http://purl.org/dc/dcmitype/StillImage" /></cc:Work></rdf:RDF></metadata><defs
     id="defs6"><clipPath
       id="clipPath18"
       clipPathUnits="userSpaceOnUse"><path
         id="path16"
         d="M 0,97.277 H 109.841 V 0 H 0 Z" /></clipPath></defs><g
     transform="matrix(1.3333333,0,0,-1.3333333,0,129.70266)"
     id="g10"><g
       id="g12"><g
         clip-path="url(#clipPath18)"
         id="g14"><g
           transform="translate(69.0386,76.3998)"
           id="g20"><path
             id="path22"
             style="fill:#ffffff;fill-opacity:1;fill-rule:nonzero;stroke:none"
             d="m 0,0 c 0,-1.218 -0.976,-2.234 -2.223,-2.234 h -31.405 c -1.269,0 -2.259,1.016 -2.259,2.234 0,1.24 0.99,2.264 2.259,2.264 H -2.223 C -0.976,2.264 0,1.24 0,0" /></g><g
           transform="translate(60.0757,67.4432)"
           id="g24"><path
             id="path26"
             style="fill:#ffffff;fill-opacity:1;fill-rule:nonzero;stroke:none"
             d="m 0,0 c 0,-1.248 -0.987,-2.247 -2.224,-2.247 h -22.441 c -1.27,0 -2.259,0.999 -2.259,2.247 0,1.241 0.989,2.234 2.259,2.234 H -2.224 C -0.987,2.234 0,1.241 0,0" /></g><g
           transform="translate(37.8921,33.1918)"
           id="g28"><path
             id="path30"
             style="fill:#ffffff;fill-opacity:1;fill-rule:nonzero;stroke:none"
             d="M 0,0 -0.33,-0.329 C -1.611,-1.911 -4.187,-1.288 -5.752,0 -7.315,1.312 -8.257,3.635 -6.962,5.205 l 0.293,0.346 -0.646,0.53 c -0.153,-0.012 -0.247,-0.012 -0.389,0 L -20.901,-5.563 c -1.188,-1.018 -0.964,-2.141 0.165,-2.071 l 9.327,0.924 0.8,-9.357 c 0.118,-1.223 1.246,-1.187 2.058,0.212 l 9.105,15.062 c -0.013,0.122 -0.013,0.24 -0.013,0.364 z" /></g><g
           transform="translate(47.3013,51.4296)"
           id="g32"><path
             id="path34"
             style="fill:#ffffff;fill-opacity:1;fill-rule:nonzero;stroke:none"
             d="m 0,0 c -2.857,2.358 -7.081,1.981 -9.479,-0.877 -2.341,-2.87 -1.954,-7.087 0.87,-9.468 2.846,-2.364 7.104,-1.965 9.445,0.882 C 3.211,-6.605 2.848,-2.365 0,0 m 1.589,-14.874 -1.436,1.171 0.201,-1.83 c 0.176,-2.017 -1.306,-3.804 -3.306,-3.992 -1.012,-0.106 -1.975,0.188 -2.728,0.822 -0.764,0.618 -1.236,1.518 -1.33,2.501 l -0.152,1.81 -1.188,-1.4 c -1.271,-1.552 -3.611,-1.775 -5.187,-0.481 -1.541,1.328 -1.753,3.635 -0.494,5.228 l 1.177,1.37 -1.812,-0.164 c -0.977,-0.106 -1.941,0.223 -2.683,0.822 -0.764,0.653 -1.223,1.536 -1.317,2.517 -0.094,0.983 0.212,1.947 0.847,2.706 0.612,0.759 1.506,1.217 2.458,1.289 l 1.847,0.193 -1.411,1.153 c -0.764,0.641 -1.212,1.534 -1.305,2.517 -0.083,0.982 0.175,1.934 0.834,2.693 0.624,0.753 1.505,1.224 2.482,1.306 0.988,0.106 1.953,-0.206 2.705,-0.824 l 1.412,-1.175 -0.165,1.828 c -0.094,0.965 0.2,1.936 0.835,2.689 0.6,0.758 1.505,1.205 2.494,1.311 0.976,0.1 1.963,-0.212 2.694,-0.812 0.752,-0.653 1.21,-1.536 1.317,-2.517 l 0.176,-1.83 1.152,1.436 c 1.33,1.553 3.658,1.752 5.2,0.465 1.6,-1.312 1.799,-3.641 0.482,-5.205 l -1.165,-1.412 1.799,0.171 c 1.024,0.1 1.953,-0.206 2.706,-0.829 0.777,-0.636 1.235,-1.511 1.317,-2.494 0.212,-2.04 -1.317,-3.828 -3.34,-4.005 L 4.894,-8.034 6.317,-9.205 c 1.564,-1.311 1.776,-3.633 0.482,-5.187 -1.305,-1.552 -3.646,-1.794 -5.21,-0.482" /></g><g
           transform="translate(37.8921,33.1918)"
           id="g36"><path
             id="path38"
             style="fill:#ffffff;fill-opacity:1;fill-rule:nonzero;stroke:none"
             d="M 0,0 -0.33,-0.329 C -1.611,-1.911 -4.187,-1.288 -5.752,0 -7.315,1.312 -8.257,3.635 -6.962,5.205 l 0.293,0.346 -0.646,0.53 c -0.153,-0.012 -0.247,-0.012 -0.389,0 L -20.901,-5.563 c -1.188,-1.018 -0.964,-2.141 0.165,-2.071 l 9.327,0.924 0.8,-9.357 c 0.118,-1.223 1.246,-1.187 2.058,0.212 l 9.105,15.062 c -0.013,0.122 -0.013,0.24 -0.013,0.364 z" /></g><g
           transform="translate(47.3013,51.4296)"
           id="g40"><path
             id="path42"
             style="fill:#ffffff;fill-opacity:1;fill-rule:nonzero;stroke:none"
             d="m 0,0 c -2.857,2.358 -7.081,1.981 -9.479,-0.877 -2.341,-2.87 -1.954,-7.087 0.87,-9.468 2.846,-2.364 7.104,-1.965 9.445,0.882 C 3.211,-6.605 2.848,-2.365 0,0 m 1.589,-14.874 -1.436,1.171 0.201,-1.83 c 0.176,-2.017 -1.306,-3.804 -3.306,-3.992 -1.012,-0.106 -1.975,0.188 -2.728,0.822 -0.764,0.618 -1.236,1.518 -1.33,2.501 l -0.152,1.81 -1.188,-1.4 c -1.271,-1.552 -3.611,-1.775 -5.187,-0.481 -1.541,1.328 -1.753,3.635 -0.494,5.228 l 1.177,1.37 -1.812,-0.164 c -0.977,-0.106 -1.941,0.223 -2.683,0.822 -0.764,0.653 -1.223,1.536 -1.317,2.517 -0.094,0.983 0.212,1.947 0.847,2.706 0.612,0.759 1.506,1.217 2.458,1.289 l 1.847,0.193 -1.411,1.153 c -0.764,0.641 -1.212,1.534 -1.305,2.517 -0.083,0.982 0.175,1.934 0.834,2.693 0.624,0.753 1.505,1.224 2.482,1.306 0.988,0.106 1.953,-0.206 2.705,-0.824 l 1.412,-1.175 -0.165,1.828 c -0.094,0.965 0.2,1.936 0.835,2.689 0.6,0.758 1.505,1.205 2.494,1.311 0.976,0.1 1.963,-0.212 2.694,-0.812 0.752,-0.653 1.21,-1.536 1.317,-2.517 l 0.176,-1.83 1.152,1.436 c 1.33,1.553 3.658,1.752 5.2,0.465 1.6,-1.312 1.799,-3.641 0.482,-5.205 l -1.165,-1.412 1.799,0.171 c 1.024,0.1 1.953,-0.206 2.706,-0.829 0.777,-0.636 1.235,-1.511 1.317,-2.494 0.212,-2.04 -1.317,-3.828 -3.34,-4.005 L 4.894,-8.034 6.317,-9.205 c 1.564,-1.311 1.776,-3.633 0.482,-5.187 -1.305,-1.552 -3.646,-1.794 -5.21,-0.482" /></g><g
           transform="translate(104.1958,28.0755)"
           id="g44"><path
             id="path46"
             style="fill:#ffffff;fill-opacity:1;fill-rule:nonzero;stroke:none"
             d="m 0,0 h -18.491 l 0.035,56.305 c 0,7.121 -5.774,12.897 -12.867,12.897 h -60.105 c -10.655,-1.053 -14.654,-8.799 -11.949,-21.684 h 15.843 V 4.976 l 8.952,7.898 c -0.695,1.053 -1.143,2.293 -1.259,3.605 -0.165,1.805 0.328,3.581 1.281,5.098 v 30.252 4.476 c 0,0.811 -0.093,1.587 -0.247,2.376 -0.023,0.212 -0.093,0.435 -0.152,0.659 -0.06,0.294 -0.082,0.606 -0.213,0.875 h 47.849 c 2.117,0 3.905,-1.758 3.905,-3.923 L -27.384,0 H -57.47 c -0.634,-0.223 -1.305,-0.4 -2,-0.447 -0.27,-0.035 -0.506,-0.035 -0.729,-0.035 -0.988,0 -1.881,0.164 -2.776,0.482 h -0.364 l -1.589,-2.624 c 4.212,-17.383 -6.515,-16.477 -6.515,-16.477 -2.328,0 -4.87,1.311 -6.187,3.193 -1.883,0.565 -3.341,2.323 -3.553,4.563 l -0.422,5.052 -5.011,-0.5 c -0.094,0 -0.165,0 -0.247,-0.017 h -0.271 c -0.14,0 -0.247,0.017 -0.4,0.017 v -6.292 c 0,-8.258 6.74,-14.99 14.997,-14.99 h 60.551 C 11.42,-28.146 7.127,-3.187 0,0" /></g></g></g></g></svg>