<?xml version="1.0" encoding="UTF-8" standalone="no"?>
<svg
   xmlns:dc="http://purl.org/dc/elements/1.1/"
   xmlns:cc="http://creativecommons.org/ns#"
   xmlns:rdf="http://www.w3.org/1999/02/22-rdf-syntax-ns#"
   xmlns:svg="http://www.w3.org/2000/svg"
   xmlns="http://www.w3.org/2000/svg"
   viewBox="0 0 133.63733 133.33147"
   height="133.33147"
   width="133.63733"
   xml:space="preserve"
   id="svg2"
   version="1.1"><metadata
     id="metadata8"><rdf:RDF><cc:Work
         rdf:about=""><dc:format>image/svg+xml</dc:format><dc:type
           rdf:resource="http://purl.org/dc/dcmitype/StillImage" /></cc:Work></rdf:RDF></metadata><defs
     id="defs6"><clipPath
       id="clipPath18"
       clipPathUnits="userSpaceOnUse"><path
         id="path16"
         d="M 0,99.999 H 100.228 V 0 H 0 Z" /></clipPath></defs><g
     transform="matrix(1.3333333,0,0,-1.3333333,0,133.33146)"
     id="g10"><g
       id="g12"><g
         clip-path="url(#clipPath18)"
         id="g14"><g
           transform="translate(0,2.7997)"
           id="g20"><path
             id="path22"
             style="fill:#ffffff;fill-opacity:1;fill-rule:nonzero;stroke:none"
             d="m 0,0 c 0,1.567 0.999,2.801 2.232,2.801 h 36.582 c 1.213,0 2.201,-1.234 2.201,-2.801 0,-1.556 -0.988,-2.8 -2.201,-2.8 H 2.232 C 0.999,-2.8 0,-1.556 0,0" /></g><g
           transform="translate(46.0049,58.3979)"
           id="g24"><path
             id="path26"
             style="fill:#ffffff;fill-opacity:1;fill-rule:nonzero;stroke:none"
             d="m 0,0 2.221,3.778 3.96,-2.373 23.801,-13.982 3.959,-2.328 -2.21,-3.778 c -1.266,-2.071 -4.025,-2.693 -6.192,-1.448 L 1.738,-6.096 C -0.44,-4.808 -1.213,-2.072 0,0" /></g><g
           transform="translate(93.1563,93.4887)"
           id="g28"><path
             id="path30"
             style="fill:#ffffff;fill-opacity:1;fill-rule:nonzero;stroke:none"
             d="m 0,0 -7.576,4.506 c -6.643,3.896 -15.099,1.943 -18.844,-4.4 L -41.218,-25.025 -9.486,-43.708 5.323,-18.554 C 9.025,-12.223 6.664,-3.896 0,0" /></g><g
           transform="translate(54.2237,27.0199)"
           id="g32"><path
             id="path34"
             style="fill:#ffffff;fill-opacity:1;fill-rule:nonzero;stroke:none"
             d="m 0,0 c 1.202,2.071 0.44,4.829 -1.738,6.095 -2.221,1.32 -4.979,0.655 -6.181,-1.459 -0.848,-1.374 -0.772,-3.08 0.043,-4.4 l -9.583,-15.56 -6.459,24.596 c -0.441,1.534 0.374,3.208 1.802,3.81 l 12.244,5.15 c 1.394,0.569 3.659,0.408 5.033,-0.386 L 10.012,9.079 c 1.374,-0.784 2.619,-2.704 2.79,-4.207 l 1.427,-13.21 c 0.183,-1.556 -0.943,-3.058 -2.446,-3.434 l -24.67,-6.224 8.981,15.883 C -2.339,-2.157 -0.837,-1.426 0,0" /></g></g></g></g></svg>