<?xml version="1.0" encoding="UTF-8" standalone="no"?>
<svg
   xmlns:dc="http://purl.org/dc/elements/1.1/"
   xmlns:cc="http://creativecommons.org/ns#"
   xmlns:rdf="http://www.w3.org/1999/02/22-rdf-syntax-ns#"
   xmlns:svg="http://www.w3.org/2000/svg"
   xmlns="http://www.w3.org/2000/svg"
   viewBox="0 0 105.69866 117.51374"
   height="117.51373"
   width="105.69866"
   xml:space="preserve"
   id="svg2"
   version="1.1"><metadata
     id="metadata8"><rdf:RDF><cc:Work
         rdf:about=""><dc:format>image/svg+xml</dc:format><dc:type
           rdf:resource="http://purl.org/dc/dcmitype/StillImage" /></cc:Work></rdf:RDF></metadata><defs
     id="defs6"><clipPath
       id="clipPath18"
       clipPathUnits="userSpaceOnUse"><path
         id="path16"
         d="M 0,88.136 H 79.274 V 0 H 0 Z" /></clipPath></defs><g
     transform="matrix(1.3333333,0,0,-1.3333333,0,117.51466)"
     id="g10"><g
       id="g12"><g
         clip-path="url(#clipPath18)"
         id="g14"><g
           transform="translate(56.7477,68.4543)"
           id="g20"><path
             id="path22"
             style="fill:#262262;fill-opacity:1;fill-rule:nonzero;stroke:none"
             d="m 0,0 c -3.087,0 -5.635,2.52 -5.635,5.601 0,0.373 0.057,0.76 0.142,1.118 C -4.634,4.549 -2.501,3 0,3 2.501,3 4.614,4.549 5.492,6.719 5.587,6.361 5.624,5.974 5.624,5.601 5.624,2.52 3.104,0 0,0 m -34.06,0 c -3.115,0 -5.625,2.52 -5.625,5.601 0,0.373 0.029,0.76 0.104,1.118 C -38.684,4.549 -36.58,3 -34.06,3 c 2.463,0 4.615,1.549 5.474,3.719 0.075,-0.358 0.123,-0.745 0.123,-1.118 C -28.463,2.52 -30.983,0 -34.06,0 M 7.672,10.801 H 5.568 v 3.209 c 0,3.137 -2.548,5.672 -5.663,5.672 -3.142,0 -5.662,-2.535 -5.662,-5.672 v -3.209 h -22.65 v 3.209 c 0,3.137 -2.539,5.672 -5.653,5.672 -3.142,0 -5.681,-2.535 -5.681,-5.672 v -3.209 h -2.143 c -8.192,0 -14.864,-6.668 -14.864,-14.854 v -2.129 h 79.274 v 2.129 c 0,8.186 -6.643,14.854 -14.854,14.854" /></g><g
           transform="translate(4.9645,13.8967)"
           id="g24"><path
             id="path26"
             style="fill:#262262;fill-opacity:1;fill-rule:nonzero;stroke:none"
             d="m 0,0 v 38.142 h 7.541 54.274 7.559 V 0 c 0,-4.714 -3.719,-8.541 -8.286,-8.588 H 8.305 C 3.728,-8.541 0,-4.714 0,0 M 9.22,42.704 H -4.965 V 0.953 c 0,-8.187 6.672,-14.849 14.864,-14.849 h 49.594 c 8.173,0 14.817,6.662 14.817,14.849 V 42.704 H 60.163 Z" /></g><g
           transform="translate(47.0934,32.0163)"
           id="g28"><path
             id="path30"
             style="fill:#262262;fill-opacity:1;fill-rule:nonzero;stroke:none"
             d="m 0,0 c 0,-0.684 -0.566,-1.232 -1.237,-1.232 h -12.401 c -0.67,0 -1.226,0.548 -1.226,1.232 v 7.437 c 0,0.674 0.556,1.232 1.226,1.232 H -1.237 C -0.566,8.669 0,8.111 0,7.437 Z" /></g><g
           transform="translate(66.9108,32.0163)"
           id="g32"><path
             id="path34"
             style="fill:#262262;fill-opacity:1;fill-rule:nonzero;stroke:none"
             d="m 0,0 c 0,-0.684 -0.547,-1.232 -1.245,-1.232 h -12.382 c -0.68,0 -1.255,0.548 -1.255,1.232 v 7.437 c 0,0.674 0.575,1.232 1.255,1.232 H -1.245 C -0.547,8.669 0,8.111 0,7.437 Z" /></g><g
           transform="translate(66.9108,17.1477)"
           id="g36"><path
             id="path38"
             style="fill:#262262;fill-opacity:1;fill-rule:nonzero;stroke:none"
             d="m 0,0 c 0,-0.674 -0.547,-1.246 -1.245,-1.246 h -12.382 c -0.68,0 -1.255,0.572 -1.255,1.246 v 7.428 c 0,0.674 0.575,1.259 1.255,1.259 H -1.245 C -0.547,8.687 0,8.102 0,7.428 Z" /></g><g
           transform="translate(47.0934,17.1477)"
           id="g40"><path
             id="path42"
             style="fill:#262262;fill-opacity:1;fill-rule:nonzero;stroke:none"
             d="m 0,0 c 0,-0.674 -0.566,-1.246 -1.237,-1.246 h -12.401 c -0.67,0 -1.226,0.572 -1.226,1.246 v 7.428 c 0,0.674 0.556,1.259 1.226,1.259 H -1.237 C -0.566,8.687 0,8.102 0,7.428 Z" /></g><g
           transform="translate(27.2741,17.1477)"
           id="g44"><path
             id="path46"
             style="fill:#262262;fill-opacity:1;fill-rule:nonzero;stroke:none"
             d="m 0,0 c 0,-0.674 -0.548,-1.246 -1.227,-1.246 h -12.391 c -0.707,0 -1.255,0.572 -1.255,1.246 v 7.428 c 0,0.674 0.548,1.259 1.255,1.259 H -1.227 C -0.548,8.687 0,8.102 0,7.428 Z" /></g></g></g></g></svg>