<?xml version="1.0" encoding="UTF-8" standalone="no"?>
<svg
   xmlns:dc="http://purl.org/dc/elements/1.1/"
   xmlns:cc="http://creativecommons.org/ns#"
   xmlns:rdf="http://www.w3.org/1999/02/22-rdf-syntax-ns#"
   xmlns:svg="http://www.w3.org/2000/svg"
   xmlns="http://www.w3.org/2000/svg"
   viewBox="0 0 135.30521 86.850922"
   height="86.850922"
   width="135.30521"
   xml:space="preserve"
   id="svg2"
   version="1.1"><metadata
     id="metadata8"><rdf:RDF><cc:Work
         rdf:about=""><dc:format>image/svg+xml</dc:format><dc:type
           rdf:resource="http://purl.org/dc/dcmitype/StillImage" /></cc:Work></rdf:RDF></metadata><defs
     id="defs6"><clipPath
       id="clipPath18"
       clipPathUnits="userSpaceOnUse"><path
         id="path16"
         d="M 0,65.139 H 101.479 V 0 H 0 Z" /></clipPath></defs><g
     transform="matrix(1.3333333,0,0,-1.3333333,-4.6715976e-5,86.851267)"
     id="g10"><g
       id="g12"><g
         clip-path="url(#clipPath18)"
         id="g14"><g
           transform="translate(32.3541,47.4949)"
           id="g20"><path
             id="path22"
             style="fill:#262262;fill-opacity:1;fill-rule:nonzero;stroke:none"
             d="m 0,0 c -3.129,-2.575 -1.597,-9.952 5.716,-5.498 0,0 8.973,4.488 14.221,7.443 1.066,0.674 1.87,0.413 2.848,-0.63 1.022,-0.771 24.739,-27.218 24.739,-27.218 0,0 7.291,5.531 10.171,11.322 0,0 -6.53,12.398 -12.854,24.653 C 43.016,8.986 41.517,8.03 39.44,8.638 c -2.182,0.609 -3.987,2.293 -5.953,3.413 -2.216,1.303 -4.086,2.476 -6.518,2.834 C 23.284,15.43 20.416,13.766 17.222,11.953 13.668,9.888 10.159,7.596 6.78,5.172 4.477,3.542 2.25,1.826 0,0" /></g><g
           transform="translate(36.9616,6.2727)"
           id="g24"><path
             id="path26"
             style="fill:#262262;fill-opacity:1;fill-rule:nonzero;stroke:none"
             d="m 0,0 c -1.206,1.684 -0.979,4.236 0.554,5.661 l 7.497,6.845 c 1.5,1.434 3.781,1.217 4.987,-0.479 1.228,-1.728 0.979,-4.193 -0.564,-5.628 L 4.998,-0.457 C 3.498,-1.924 1.238,-1.728 0,0" /></g><g
           transform="translate(30.0289,12.5745)"
           id="g28"><path
             id="path30"
             style="fill:#262262;fill-opacity:1;fill-rule:nonzero;stroke:none"
             d="m 0,0 c -1.206,1.717 -0.999,4.237 0.544,5.661 l 5.933,5.388 c 1.498,1.457 3.748,1.206 4.997,-0.445 C 12.658,8.888 12.44,6.334 10.92,4.932 L 4.987,-0.479 C 3.467,-1.88 1.261,-1.695 0,0" /></g><g
           transform="translate(21.6305,17.7346)"
           id="g32"><path
             id="path34"
             style="fill:#262262;fill-opacity:1;fill-rule:nonzero;stroke:none"
             d="M 0,0 C -1.13,1.783 -0.783,4.271 0.792,5.606 L 2.13,6.65 C 3.715,7.954 5.942,7.606 7.116,5.846 L 7.192,5.759 C 8.334,3.967 7.866,1.587 6.302,0.25 L 4.976,-0.771 C 3.379,-2.14 1.151,-1.749 0,0" /></g><g
           transform="translate(54.8678,10.1194)"
           id="g36"><path
             id="path38"
             style="fill:#262262;fill-opacity:1;fill-rule:nonzero;stroke:none"
             d="M 0,0 C -1.271,1.585 -3.521,1.717 -5.021,0.194 L -8.27,-3.151 c -1.422,-1.566 -1.553,-4.075 -0.282,-5.695 1.359,-1.596 3.575,-1.726 5.053,-0.194 l 3.205,3.367 C 1.162,-4.173 1.313,-1.619 0,0" /></g><g
           transform="translate(101.1969,38.488)"
           id="g40"><path
             id="path42"
             style="fill:#262262;fill-opacity:1;fill-rule:nonzero;stroke:none"
             d="m 0,0 c 0.554,-1.01 0.261,-2.227 -0.609,-2.673 l -5.465,-2.901 c -0.891,-0.478 -2.031,0 -2.608,1.053 L -21.59,20.513 c -0.554,1.022 -0.25,2.228 0.63,2.706 l 5.455,2.868 c 0.913,0.446 2.043,0 2.543,-1.064 z" /></g><g
           transform="translate(8.8414,34.1858)"
           id="g44"><path
             id="path46"
             style="fill:#262262;fill-opacity:1;fill-rule:nonzero;stroke:none"
             d="m 0,0 c -0.401,-1.076 -1.444,-1.685 -2.314,-1.358 l -5.52,1.901 C -8.703,0.89 -9.083,2.042 -8.681,3.118 l 9.93,26.381 c 0.424,1.075 1.457,1.705 2.369,1.358 L 9.095,28.956 C 9.953,28.629 10.334,27.489 9.92,26.38 Z" /></g><g
           transform="translate(79.6071,18.3435)"
           id="g48"><path
             id="path50"
             style="fill:#262262;fill-opacity:1;fill-rule:nonzero;stroke:none"
             d="m 0,0 h -0.054 c -0.098,-0.586 -0.26,-1.12 -0.739,-1.576 -0.738,-0.846 -1.694,-1.26 -2.64,-1.26 -0.978,0 -2.02,0.435 -2.782,1.326 L -15.58,9.094 c -0.186,0.228 -0.402,0.294 -0.63,0.294 -0.892,0 -1.913,-1.468 -1.087,-2.293 l 7.693,-8.497 c 1.422,-1.662 1.477,-4.269 0.032,-5.888 -0.653,-0.74 -1.488,-1.098 -2.315,-1.098 -1.009,0 -1.976,0.489 -2.781,1.38 l -8.778,9.8 c -0.207,0.327 -0.479,0.457 -0.73,0.457 -0.814,0 -1.717,-1.38 -0.814,-2.358 l 6.769,-7.811 c 1.413,-1.621 1.293,-4.108 -0.075,-5.695 -0.663,-0.705 -1.434,-1.053 -2.227,-1.053 -0.479,0 -0.947,0.097 -1.435,0.348 -0.262,-0.762 -0.718,-1.457 -1.206,-2.065 0.814,-0.456 1.694,-0.74 2.641,-0.74 1.422,0 2.878,0.675 3.91,1.827 1.088,1.227 1.674,2.792 1.739,4.345 0.901,-0.565 1.945,-0.847 2.987,-0.847 1.533,0 2.989,0.631 4.075,1.846 1.076,1.206 1.597,2.793 1.652,4.391 0.869,-0.435 1.781,-0.738 2.727,-0.738 1.662,0 3.216,0.738 4.379,2.009 1.097,1.239 1.293,2.521 1.368,3.444 0.12,0.5 0,1.043 -0.227,1.5 C 1.87,1.391 1.663,1.304 1.631,1.239 Z" /></g><g
           transform="translate(20.9791,25.2424)"
           id="g52"><path
             id="path54"
             style="fill:#262262;fill-opacity:1;fill-rule:nonzero;stroke:none"
             d="M 0,0 0.021,0.034 H 0.064 L 0.651,0.479 C -3.978,5.129 -6.803,8.595 -6.803,8.595 -2.359,19.83 2.64,33.499 2.64,33.499 2.574,32.727 5.193,31.369 5.736,31.141 6.594,30.76 7.54,30.608 8.495,30.608 c 0.239,0 0.511,0.022 0.782,0.022 2.75,0.326 5.315,1.923 7.747,3.281 1.663,0.892 3.685,1.847 5.597,1.847 0.912,0 1.781,-0.216 2.618,-0.759 0.739,0.433 1.456,0.857 2.141,1.302 -0.087,0.164 -0.229,0.294 -0.401,0.381 -1.241,1.021 -2.684,1.532 -4.358,1.532 -2.554,0 -5.042,-1.238 -6.683,-2.173 L 15.287,35.694 C 13.244,34.488 11.093,33.271 9.006,33.097 H 8.495 c -0.705,0 -1.379,0.087 -1.944,0.304 -0.402,0.196 -1.358,0.739 -1.772,1.087 -0.325,0.727 -0.912,1.249 -1.683,1.401 -0.12,0.033 -0.315,0.065 -0.467,0.065 -0.935,0 -1.836,-0.608 -2.195,-1.564 C 0.39,34.27 -4.575,20.569 -8.953,9.486 -9.247,8.661 -9.117,7.672 -8.52,6.998 -8.422,6.846 -5.661,3.467 -1.099,-1.184 -0.762,-0.771 -0.413,-0.347 0,0" /></g></g></g></g></svg>