<?xml version="1.0" encoding="UTF-8" standalone="no"?>
<svg
   xmlns:dc="http://purl.org/dc/elements/1.1/"
   xmlns:cc="http://creativecommons.org/ns#"
   xmlns:rdf="http://www.w3.org/1999/02/22-rdf-syntax-ns#"
   xmlns:svg="http://www.w3.org/2000/svg"
   xmlns="http://www.w3.org/2000/svg"
   viewBox="0 0 124.6132 114.4466"
   height="114.4466"
   width="124.6132"
   xml:space="preserve"
   id="svg2"
   version="1.1"><metadata
     id="metadata8"><rdf:RDF><cc:Work
         rdf:about=""><dc:format>image/svg+xml</dc:format><dc:type
           rdf:resource="http://purl.org/dc/dcmitype/StillImage" /></cc:Work></rdf:RDF></metadata><defs
     id="defs6"><clipPath
       id="clipPath18"
       clipPathUnits="userSpaceOnUse"><path
         id="path16"
         d="M 0,85.835 H 93.46 V 0 H 0 Z" /></clipPath></defs><g
     transform="matrix(1.3333333,0,0,-1.3333333,0,114.44666)"
     id="g10"><g
       id="g12"><g
         clip-path="url(#clipPath18)"
         id="g14"><g
           transform="translate(66.0159,18.2745)"
           id="g20"><path
             id="path22"
             style="fill:#262262;fill-opacity:1;fill-rule:nonzero;stroke:none"
             d="M 0,0 C 2.481,-2.481 4.952,-4.968 7.443,-7.458 7.523,-7.529 7.604,-7.563 7.684,-7.624 7.054,-8.255 6.343,-8.869 5.643,-9.445 -9.586,0.04 -29.025,0.04 -44.284,-9.46 c -0.681,0.591 -1.34,1.166 -1.991,1.786 0.09,0.065 0.211,0.145 0.27,0.216 2.491,2.49 4.942,4.977 7.424,7.458 2.851,2.816 -1.522,7.204 -4.352,4.388 -2.502,-2.492 -4.963,-4.973 -7.444,-7.435 -5.123,6.815 -7.835,15.113 -7.884,23.598 h 8.624 c 3.982,0 3.982,6.214 0,6.214 h -8.215 c 0.431,2.747 1.112,5.503 2.102,8.178 1.762,4.868 4.582,9.14 8.074,12.753 1.571,-1.592 3.162,-3.182 4.743,-4.758 2.83,-2.832 7.203,1.576 4.352,4.382 -1.431,1.487 -2.932,2.962 -4.412,4.463 5.963,4.407 13.157,7.174 20.631,7.844 v -5.593 c 0,-4.002 6.183,-4.002 6.183,0 v 5.648 C -8.565,59.132 -1.472,56.239 4.382,51.678 2.921,50.227 1.45,48.781 0,47.32 c -2.822,-2.806 1.58,-7.214 4.392,-4.382 1.531,1.52 3.051,3.051 4.583,4.578 3.202,-3.363 5.822,-7.285 7.803,-11.612 1.331,-2.941 2.222,-6.017 2.682,-9.139 h -8.364 c -4.013,0 -4.013,-6.214 0,-6.214 H 19.88 C 19.75,12.132 16.829,3.782 11.746,-2.981 9.314,-0.525 6.863,1.927 4.392,4.388 1.58,7.204 -2.822,2.816 0,0 m 19.199,-5.713 c 0.191,0.296 0.391,0.591 0.591,0.896 0.061,0.094 0.13,0.179 0.19,0.269 4.323,6.735 6.884,14.453 7.394,22.492 v 0.045 c 0.04,0.376 0.04,0.736 0.04,1.111 0.01,0.451 0.03,0.871 0.03,1.306 v 0.646 c -0.03,10.86 -3.792,20.84 -10.056,28.76 -6.404,7.878 -15.318,13.717 -25.213,16.313 -0.89,0.229 -1.771,0.421 -2.661,0.601 -0.54,0.099 -1.051,0.2 -1.612,0.285 -0.069,0.01 -0.119,0.02 -0.179,0.02 -1.492,0.235 -3.052,0.4 -4.592,0.475 -0.781,0.025 -1.581,0.055 -2.371,0.055 h -0.071 C -30.877,67.506 -42.203,63.038 -50.848,55.274 -59.603,47.261 -65.275,35.939 -65.936,23.308 v -0.125 c -0.04,-0.766 -0.04,-1.517 -0.08,-2.282 0,-0.11 0.04,-0.225 0.04,-0.35 0,-0.58 0,-1.186 0.04,-1.776 0,-0.21 0,-0.42 0.031,-0.63 0.84,-15.204 8.984,-28.46 20.94,-36.35 1.092,-0.239 2.102,0.156 2.843,0.921 14.087,9.67 31.956,9.596 46.014,-0.255 0.73,-0.51 1.92,-0.666 2.901,-0.445 4.863,3.276 9.085,7.459 12.406,12.271" /></g><g
           transform="translate(48.9465,36.0939)"
           id="g24"><path
             id="path26"
             style="fill:#262262;fill-opacity:1;fill-rule:nonzero;stroke:none"
             d="m 0,0 c -0.331,-0.305 -0.701,-0.54 -1.16,-0.71 -1.962,-0.775 -4.143,0.199 -4.913,2.16 -0.761,1.947 0.21,4.174 2.18,4.929 0.421,0.159 0.891,0.245 1.322,0.245 1.56,0.025 3.01,-0.87 3.581,-2.432 C 1.621,2.691 1.17,1.041 0,0 m 20.48,11.791 c -0.45,1.182 -2.031,1.691 -3.542,1.105 L 1.521,10.776 c -2.182,1.116 -4.802,1.326 -7.284,0.375 -4.603,-1.77 -6.874,-6.964 -5.093,-11.55 1.791,-4.603 7.003,-6.874 11.586,-5.099 2.452,0.967 4.242,2.907 5.092,5.193 l 12.827,8.86 c 1.492,0.585 2.312,2.016 1.831,3.236" /></g></g></g></g></svg>