<?xml version="1.0" encoding="UTF-8" standalone="no"?>
<svg
   xmlns:dc="http://purl.org/dc/elements/1.1/"
   xmlns:cc="http://creativecommons.org/ns#"
   xmlns:rdf="http://www.w3.org/1999/02/22-rdf-syntax-ns#"
   xmlns:svg="http://www.w3.org/2000/svg"
   xmlns="http://www.w3.org/2000/svg"
   viewBox="0 0 118.4691 133.63519"
   height="133.63519"
   width="118.4691"
   xml:space="preserve"
   id="svg2"
   version="1.1"><metadata
     id="metadata8"><rdf:RDF><cc:Work
         rdf:about=""><dc:format>image/svg+xml</dc:format><dc:type
           rdf:resource="http://purl.org/dc/dcmitype/StillImage" /></cc:Work></rdf:RDF></metadata><defs
     id="defs6"><clipPath
       id="clipPath18"
       clipPathUnits="userSpaceOnUse"><path
         id="path16"
         d="M 0,100.227 H 88.852 V 0 H 0 Z" /></clipPath></defs><g
     transform="matrix(1.3333333,0,0,-1.3333333,0,133.636)"
     id="g10"><g
       id="g12"><g
         clip-path="url(#clipPath18)"
         id="g14"><g
           transform="translate(86.0026,79.5022)"
           id="g20"><path
             id="path22"
             style="fill:#262262;fill-opacity:1;fill-rule:nonzero;stroke:none"
             d="m 0,0 -25.725,19.277 c -1.276,0.912 -2.809,1.448 -4.279,1.448 -1.985,0 -3.755,-0.88 -4.924,-2.391 l -23.676,-31.69 c -0.589,-0.826 -0.944,-1.727 -1.073,-2.671 h 5.406 l 23.418,31.302 c 0.216,0.323 0.613,0.345 0.849,0.345 0.418,0 0.826,-0.151 1.201,-0.43 L -3.078,-4.055 c 0.815,-0.623 1.018,-1.503 0.708,-1.953 l -9.826,-13.108 c 1.405,-1.031 2.628,-2.264 3.583,-3.68 L 1.695,-9.022 C 3.745,-6.319 2.994,-2.242 0,0" /></g><g
           transform="translate(44.0798,24.6086)"
           id="g24"><path
             id="path26"
             style="fill:#262262;fill-opacity:1;fill-rule:nonzero;stroke:none"
             d="m 0,0 v 10.341 c 0,2.329 1.899,4.153 4.259,4.153 h 27.387 v 9.086 c 0,6.104 -4.934,11.06 -11.039,11.06 h -51.512 c -0.806,0 -1.62,-0.129 -2.361,-0.279 0,0.043 0,0.043 0.042,0.064 0.183,0.215 0.409,0.408 0.59,0.623 0.194,0.225 0.419,0.386 0.633,0.633 0.193,0.193 0.387,0.385 0.623,0.6 0.203,0.215 0.354,0.408 0.601,0.601 0.182,0.215 0.408,0.408 0.601,0.622 0.183,0.214 0.417,0.408 0.633,0.601 1.866,2.049 4.516,3.304 7.477,3.304 h 0.557 c 0.407,0.966 0.826,1.844 1.449,2.671 l 1.79,2.392 h -3.796 c -4.195,0 -8.175,-1.726 -11.072,-4.784 -0.224,-0.15 -0.428,-0.375 -0.622,-0.601 -0.181,-0.182 -0.396,-0.407 -0.632,-0.623 -0.172,-0.192 -0.376,-0.374 -0.58,-0.6 -0.192,-0.183 -0.428,-0.375 -0.644,-0.59 -0.182,-0.226 -0.397,-0.451 -0.59,-0.633 -0.225,-0.225 -0.428,-0.408 -0.61,-0.633 -0.226,-0.16 -0.451,-0.407 -0.623,-0.633 -0.204,-0.193 -0.418,-0.364 -0.633,-0.601 -0.214,-0.171 -0.397,-0.396 -0.612,-0.621 -0.214,-0.215 -0.408,-0.376 -0.622,-0.591 -3.046,-2.864 -4.774,-6.918 -4.774,-11.071 V -9.375 c 0,-4.366 1.878,-8.357 4.903,-11.157 1.674,-1.878 4.013,-3.176 6.629,-3.615 1.213,-0.29 2.425,-0.461 3.712,-0.461 h 47.373 v 0.343 h 2.07 c 6.105,0 11.039,4.935 11.039,11.06 v 8.957 H 4.259 C 1.899,-4.248 0,-2.295 0,0" /></g><g
           transform="translate(58.4977,29.9519)"
           id="g28"><path
             id="path30"
             style="fill:#262262;fill-opacity:1;fill-rule:nonzero;stroke:none"
             d="m 0,0 c 0,-2.64 -2.178,-4.785 -4.784,-4.785 -2.683,0 -4.795,2.145 -4.795,4.785 0,2.67 2.112,4.806 4.795,4.806 C -2.178,4.806 0,2.67 0,0" /></g></g></g></g></svg>