<?xml version="1.0" encoding="UTF-8" standalone="no"?>
<svg
   xmlns:dc="http://purl.org/dc/elements/1.1/"
   xmlns:cc="http://creativecommons.org/ns#"
   xmlns:rdf="http://www.w3.org/1999/02/22-rdf-syntax-ns#"
   xmlns:svg="http://www.w3.org/2000/svg"
   xmlns="http://www.w3.org/2000/svg"
   viewBox="0 0 106.7436 93.383728"
   height="93.383728"
   width="106.7436"
   xml:space="preserve"
   id="svg2"
   version="1.1"><metadata
     id="metadata8"><rdf:RDF><cc:Work
         rdf:about=""><dc:format>image/svg+xml</dc:format><dc:type
           rdf:resource="http://purl.org/dc/dcmitype/StillImage" /></cc:Work></rdf:RDF></metadata><defs
     id="defs6"><clipPath
       id="clipPath18"
       clipPathUnits="userSpaceOnUse"><path
         id="path16"
         d="M 0,70.038 H 80.058 V 0 H 0 Z" /></clipPath></defs><g
     transform="matrix(1.3333333,0,0,-1.3333333,0,93.383731)"
     id="g10"><g
       id="g12"><g
         clip-path="url(#clipPath18)"
         id="g14"><g
           transform="translate(50.6776,19.6428)"
           id="g20"><path
             id="path22"
             style="fill:#262262;fill-opacity:1;fill-rule:nonzero;stroke:none"
             d="M 0,0 5.605,0.84 1.534,4.8 2.503,10.405 -2.52,7.74 -7.542,10.405 -6.573,4.8 -10.653,0.84 -5.03,0 -2.52,-5.064 Z m -20.655,16.328 c -3.282,0 -5.94,-2.666 -5.94,-5.923 0,-3.3 2.658,-5.956 5.94,-5.956 3.282,0 5.931,2.656 5.931,5.956 0,3.257 -2.649,5.923 -5.931,5.923 m 30.013,8.544 -19,6.352 -3.154,-9.489 18.992,-6.334 z m 5.024,15.745 v -60.26 h -50.044 v 60.26 h 6.975 l 3.447,6.958 c 0.84,1.74 2.623,2.82 4.508,2.82 h 20.02 c 1.92,0 3.669,-1.08 4.543,-2.82 l 3.437,-6.958 z" /></g><g
           transform="translate(9.3846,60.0618)"
           id="g24"><path
             id="path26"
             style="fill:#262262;fill-opacity:1;fill-rule:nonzero;stroke:none"
             d="M 0,0 C -5.168,0 -9.385,-4.242 -9.385,-9.393 V -50.66 c 0,-5.152 4.217,-9.402 9.385,-9.402 H 0.616 V 0 Z" /></g><g
           transform="translate(70.6727,60.0618)"
           id="g28"><path
             id="path30"
             style="fill:#262262;fill-opacity:1;fill-rule:nonzero;stroke:none"
             d="M 0,0 H -0.634 V -60.062 H 0 c 5.168,0 9.385,4.25 9.385,9.402 V -9.393 C 9.385,-4.242 5.168,0 0,0" /></g></g></g></g></svg>