<?xml version="1.0" encoding="UTF-8" standalone="no"?>
<svg
   xmlns:dc="http://purl.org/dc/elements/1.1/"
   xmlns:cc="http://creativecommons.org/ns#"
   xmlns:rdf="http://www.w3.org/1999/02/22-rdf-syntax-ns#"
   xmlns:svg="http://www.w3.org/2000/svg"
   xmlns="http://www.w3.org/2000/svg"
   viewBox="0 0 92.790665 86.963867"
   height="86.963867"
   width="92.790665"
   xml:space="preserve"
   id="svg2"
   version="1.1"><metadata
     id="metadata8"><rdf:RDF><cc:Work
         rdf:about=""><dc:format>image/svg+xml</dc:format><dc:type
           rdf:resource="http://purl.org/dc/dcmitype/StillImage" /></cc:Work></rdf:RDF></metadata><defs
     id="defs6"><clipPath
       id="clipPath18"
       clipPathUnits="userSpaceOnUse"><path
         id="path16"
         d="M 0,65.223 H 69.594 V 0 H 0 Z" /></clipPath></defs><g
     transform="matrix(1.3333333,0,0,-1.3333333,-0.0012,86.963998)"
     id="g10"><g
       id="g12"><g
         clip-path="url(#clipPath18)"
         id="g14"><g
           transform="translate(27.8481,29.5917)"
           id="g20"><path
             id="path22"
             style="fill:#262262;fill-opacity:1;fill-rule:nonzero;stroke:none"
             d="m 0,0 c 0,-3.414 -2.765,-6.163 -6.192,-6.163 -3.399,-0.023 -6.163,2.749 -6.163,6.163 0,3.398 2.756,6.178 6.163,6.178 C -2.765,6.178 0,3.398 0,0" /></g><g
           transform="translate(30.3149,16.372)"
           id="g24"><path
             id="path26"
             style="fill:#262262;fill-opacity:1;fill-rule:nonzero;stroke:none"
             d="m 0,0 c 0,3.293 -2.229,5.961 -4.955,5.961 h -7.363 c -2.736,0 -4.963,-2.682 -4.949,-6.006 0,0 7.624,-5 17.267,0.045" /></g><g
           transform="translate(35.2182,55.122)"
           id="g28"><path
             id="path30"
             style="fill:#262262;fill-opacity:1;fill-rule:nonzero;stroke:none"
             d="M 0,0 C -1.796,0.388 -2.914,2.199 -2.504,3.994 -2.087,5.783 -0.283,6.915 1.49,6.499 3.294,6.066 4.434,4.277 3.994,2.489 3.606,0.693 1.804,-0.417 0,0 M 3.927,9.188 0.611,9.956 C -2.37,10.657 -5.402,8.756 -6.118,5.738 L -7.355,-5.044 c -0.574,-2.512 0.992,-5.009 3.51,-5.597 l 2.741,-0.656 c 2.498,-0.567 5.046,1.006 5.597,3.517 L 8.108,2.444 C 8.839,5.455 6.937,8.473 3.927,9.188" /></g><g
           transform="translate(60.3169,30.4111)"
           id="g32"><path
             id="path34"
             style="fill:#262262;fill-opacity:1;fill-rule:nonzero;stroke:none"
             d="m 0,0 h -17.028 c -1.453,0 -2.646,1.185 -2.646,2.653 0,1.416 1.193,2.593 2.646,2.593 H 0 C 1.453,5.246 2.615,4.069 2.615,2.653 2.615,1.185 1.453,0 0,0 m -4.427,-17.377 h -8.726 c -3.577,0 -6.521,2.92 -6.521,6.505 0,3.629 2.944,6.536 6.521,6.536 h 8.726 c 3.585,0 6.521,-2.907 6.521,-6.536 0,-3.585 -2.936,-6.505 -6.521,-6.505 m -21.104,-2.989 h -26.097 v 30.441 h 26.097 z M -2.139,20.12 h -46.769 c -6.326,0 -11.408,-5.112 -11.408,-11.423 v -27.715 c 0,-6.289 5.082,-11.393 11.408,-11.393 h 46.769 c 6.304,0 11.416,5.104 11.416,11.393 V 8.697 c 0,6.311 -5.112,11.423 -11.416,11.423" /></g></g></g></g></svg>