<?xml version="1.0" encoding="UTF-8" standalone="no"?>
<svg
   xmlns:dc="http://purl.org/dc/elements/1.1/"
   xmlns:cc="http://creativecommons.org/ns#"
   xmlns:rdf="http://www.w3.org/1999/02/22-rdf-syntax-ns#"
   xmlns:svg="http://www.w3.org/2000/svg"
   xmlns="http://www.w3.org/2000/svg"
   viewBox="0 0 81.077194 77.126533"
   height="77.126534"
   width="81.077194"
   xml:space="preserve"
   id="svg2"
   version="1.1"><metadata
     id="metadata8"><rdf:RDF><cc:Work
         rdf:about=""><dc:format>image/svg+xml</dc:format><dc:type
           rdf:resource="http://purl.org/dc/dcmitype/StillImage" /></cc:Work></rdf:RDF></metadata><defs
     id="defs6"><clipPath
       id="clipPath18"
       clipPathUnits="userSpaceOnUse"><path
         id="path16"
         d="M 0,57.845 H 60.808 V 0 H 0 Z" /></clipPath></defs><g
     transform="matrix(1.3333333,0,0,-1.3333333,0,77.126665)"
     id="g10"><g
       id="g12"><g
         clip-path="url(#clipPath18)"
         id="g14"><g
           transform="translate(30.8629,53.241)"
           id="g20"><path
             id="path22"
             style="fill:#262262;fill-opacity:1;fill-rule:nonzero;stroke:none"
             d="m 0,0 c -0.872,0 -1.68,-0.344 -2.317,-0.97 -0.58,-0.612 -0.919,-1.399 -0.919,-2.233 0.098,-7.026 -0.67,-12.306 -2.285,-15.744 l -0.3,-0.671 -0.651,-0.377 c -1.875,-1.048 -4.109,-3.165 -4.109,-7.214 v -11.03 c 0,-5.919 2.865,-8.777 8.751,-8.777 h 14.728 c 5.828,0 12.443,6.635 12.443,12.455 v 9.201 c 0,4.597 -1.321,6.921 -8.751,6.921 H 3.236 v 15.21 C 3.236,-1.451 1.797,0 0,0 M 12.898,-51.64 H -1.83 c -8.373,0 -13.366,5.02 -13.366,13.401 v 11.03 c 0,4.616 2.024,8.431 5.768,10.834 0.723,1.836 1.699,5.769 1.575,13.133 -0.012,2.064 0.801,4.024 2.267,5.514 1.49,1.492 3.47,2.332 5.586,2.332 4.33,0 7.853,-3.516 7.853,-7.833 v -10.607 h 8.737 c 5.737,0 13.355,-1.204 13.355,-11.524 v -9.201 c 0,-8.451 -8.589,-17.079 -17.047,-17.079" /></g><g
           transform="translate(6.4723,11.2771)"
           id="g24"><path
             id="path26"
             style="fill:#262262;fill-opacity:1;fill-rule:nonzero;stroke:none"
             d="m 0,0 c -2.038,0 -3.692,-1.634 -3.692,-3.679 0,-2.044 1.654,-3.685 3.692,-3.685 2.025,0 3.686,1.641 3.686,3.685 C 3.686,-1.634 2.025,0 0,0 m 6.459,-7.573 c 0,-2.037 -1.628,-3.704 -3.691,-3.704 h -5.574 c -2.019,0 -3.667,1.667 -3.667,3.704 v 30.115 c 0,2.038 1.648,3.698 3.667,3.698 h 5.574 c 2.063,0 3.691,-1.66 3.691,-3.698 z" /></g></g></g></g></svg>