<?xml version="1.0" encoding="UTF-8" standalone="no"?>
<svg
   xmlns:dc="http://purl.org/dc/elements/1.1/"
   xmlns:cc="http://creativecommons.org/ns#"
   xmlns:rdf="http://www.w3.org/1999/02/22-rdf-syntax-ns#"
   xmlns:svg="http://www.w3.org/2000/svg"
   xmlns="http://www.w3.org/2000/svg"
   viewBox="0 0 104.556 104.56666"
   height="104.56667"
   width="104.556"
   xml:space="preserve"
   id="svg2"
   version="1.1"><metadata
     id="metadata8"><rdf:RDF><cc:Work
         rdf:about=""><dc:format>image/svg+xml</dc:format><dc:type
           rdf:resource="http://purl.org/dc/dcmitype/StillImage" /></cc:Work></rdf:RDF></metadata><defs
     id="defs6"><clipPath
       id="clipPath18"
       clipPathUnits="userSpaceOnUse"><path
         id="path16"
         d="M 0,78.425 H 78.417 V 0 H 0 Z" /></clipPath></defs><g
     transform="matrix(1.3333333,0,0,-1.3333333,0,104.56666)"
     id="g10"><g
       id="g12"><g
         clip-path="url(#clipPath18)"
         id="g14"><g
           transform="translate(78.417,4.9296)"
           id="g20"><path
             id="path22"
             style="fill:#262262;fill-opacity:1;fill-rule:nonzero;stroke:none"
             d="M 0,0 C 0,-2.738 -2.208,-4.93 -4.888,-4.93 H -73.53 c -2.688,0 -4.887,2.192 -4.887,4.93 0,2.678 2.199,4.886 4.887,4.886 H -4.888 C -2.208,4.886 0,2.678 0,0" /></g><g
           transform="translate(40.7822,78.4252)"
           id="g24"><path
             id="path26"
             style="fill:#262262;fill-opacity:1;fill-rule:nonzero;stroke:none"
             d="m 0,0 h -16.39 c -1.453,0 -2.225,-1.822 -1.159,-2.821 l 3.485,-3.526 -18.163,-18.162 c -1.628,-1.596 -1.628,-4.207 0,-5.853 l 3.51,-3.518 c 1.647,-1.604 4.233,-1.604 5.845,0 l 18.179,18.179 3.502,-3.51 c 1.023,-1.041 2.837,-0.269 2.837,1.15 v 16.39 C 1.646,-0.73 0.891,0 0,0 0,0 0.891,0 0,0" /></g><g
           transform="translate(12.2334,39.1957)"
           id="g28"><path
             id="path30"
             style="fill:#262262;fill-opacity:1;fill-rule:nonzero;stroke:none"
             d="m 0,0 c -2.678,0 -4.878,-2.191 -4.878,-4.886 v -14.719 c 0,-2.687 2.2,-4.846 4.878,-4.846 h 4.912 c 2.704,0 4.912,2.159 4.912,4.846 V -4.886 C 9.824,-2.191 7.616,0 4.912,0 Z" /></g><g
           transform="translate(46.5508,19.5902)"
           id="g32"><path
             id="path34"
             style="fill:#262262;fill-opacity:1;fill-rule:nonzero;stroke:none"
             d="m 0,0 c 0,-2.687 -2.208,-4.845 -4.896,-4.845 h -4.903 c -2.686,0 -4.903,2.158 -4.903,4.845 v 29.405 c 0,2.712 2.217,4.921 4.903,4.921 h 4.903 C -2.208,34.326 0,32.117 0,29.405 Z" /></g><g
           transform="translate(71.0693,19.5902)"
           id="g36"><path
             id="path38"
             style="fill:#262262;fill-opacity:1;fill-rule:nonzero;stroke:none"
             d="m 0,0 c 0,-2.687 -2.233,-4.845 -4.937,-4.845 h -4.896 c -2.67,0 -4.886,2.158 -4.886,4.845 v 49.019 c 0,2.713 2.216,4.905 4.886,4.905 h 4.896 C -2.233,53.924 0,51.732 0,49.019 Z" /></g></g></g></g></svg>