<?xml version="1.0" encoding="UTF-8" standalone="no"?>
<svg
   xmlns:dc="http://purl.org/dc/elements/1.1/"
   xmlns:cc="http://creativecommons.org/ns#"
   xmlns:rdf="http://www.w3.org/1999/02/22-rdf-syntax-ns#"
   xmlns:svg="http://www.w3.org/2000/svg"
   xmlns="http://www.w3.org/2000/svg"
   viewBox="0 0 76.462662 76.489975"
   height="76.489975"
   width="76.462662"
   xml:space="preserve"
   id="svg2"
   version="1.1"><metadata
     id="metadata8"><rdf:RDF><cc:Work
         rdf:about=""><dc:format>image/svg+xml</dc:format><dc:type
           rdf:resource="http://purl.org/dc/dcmitype/StillImage" /></cc:Work></rdf:RDF></metadata><defs
     id="defs6"><clipPath
       id="clipPath18"
       clipPathUnits="userSpaceOnUse"><path
         id="path16"
         d="M 0,57.368 H 57.347 V 0 H 0 Z" /></clipPath></defs><g
     transform="matrix(1.3333333,0,0,-1.3333333,0,76.49051)"
     id="g10"><g
       id="g12"><g
         clip-path="url(#clipPath18)"
         id="g14"><g
           transform="translate(43.743,33.4153)"
           id="g20"><path
             id="path22"
             style="fill:#262262;fill-opacity:1;fill-rule:nonzero;stroke:none"
             d="M 0,0 C 0.663,2.564 1.757,2.488 2.586,4.429 1.621,4.14 0.583,3.919 -0.517,3.796 -0.909,3.74 -1.303,3.704 -1.708,3.688 -1.929,3.176 -2.125,2.626 -2.328,2.052 -3.12,-0.377 -4.079,0.82 -4.705,3.759 -5.301,3.83 -5.859,3.934 -6.382,4.051 c 1.093,-3.228 1.738,-5.746 0.271,-9.861 0,0 -2.2,-5.166 -0.75,-6.102 l 9.717,0.071 c 0,0 -4.232,6.581 -2.856,11.841" /></g><g
           transform="translate(56.2235,50.3)"
           id="g24"><path
             id="path26"
             style="fill:#262262;fill-opacity:1;fill-rule:nonzero;stroke:none"
             d="M 0,0 C -0.233,1.784 -3.403,2.865 -7.119,2.414 -7.745,2.337 -8.347,2.22 -8.931,2.063 c 0.086,0.372 0.111,0.725 0.08,1.1 -0.313,2.616 -4.035,4.327 -8.292,3.814 -3.537,-0.43 -6.332,-2.267 -6.989,-4.382 -0.037,0 -0.08,-0.007 -0.141,-0.01 -3.735,-0.451 -6.493,-2.947 -6.161,-5.57 0.295,-2.595 3.501,-4.343 7.18,-3.95 0.491,-2.426 4.969,-3.863 10.202,-3.233 5.344,0.654 9.434,3.231 9.133,5.754 -0.037,0.283 -0.129,0.553 -0.264,0.808 C -1.603,-2.85 0.166,-1.41 0,0" /></g><g
           transform="translate(17.9159,34.6653)"
           id="g28"><path
             id="path30"
             style="fill:#262262;fill-opacity:1;fill-rule:nonzero;stroke:none"
             d="m 0,0 c 0,-2.122 -1.535,-3.845 -5.374,-3.845 -3.82,0 -5.375,1.723 -5.375,3.845 0,3.854 1.555,8.463 5.375,8.463 C -1.535,8.463 0,3.854 0,0" /></g><g
           transform="translate(10.5643,29.8254)"
           id="g32"><path
             id="path34"
             style="fill:#262262;fill-opacity:1;fill-rule:nonzero;stroke:none"
             d="m 0,0 c 0.534,-1.864 1.412,-5.936 -0.313,-8.251 h 4.606 c 0,0 -1.867,4.962 -0.571,8.208 C 3.181,-0.126 2.604,-0.168 1.978,-0.168 1.265,-0.168 0.602,-0.104 0,0" /></g><g
           transform="translate(33.16,14.3874)"
           id="g36"><path
             id="path38"
             style="fill:#262262;fill-opacity:1;fill-rule:nonzero;stroke:none"
             d="m 0,0 c 6.897,-3.277 13.439,-10.788 6.271,-14.387 h 12.56 c 3.225,2.911 5.356,6.962 5.356,10.779 0,8.596 -9.606,15.775 -22.467,17.557 C -1.781,12.3 -13.039,6.148 0,0" /></g><g
           transform="translate(21.5155,14.3874)"
           id="g40"><path
             id="path42"
             style="fill:#262262;fill-opacity:1;fill-rule:nonzero;stroke:none"
             d="m 0,0 c -5.607,7.472 8.187,13.347 10.435,14.247 -1.069,0.077 -2.174,0.126 -3.274,0.126 -15.84,0 -28.677,-8.05 -28.677,-17.981 0,-3.817 2.586,-7.868 5.823,-10.779 h 8.512 C 0,-14.387 4.071,-5.459 0,0" /></g><g
           transform="translate(19.0458,34.6653)"
           id="g44"><path
             id="path46"
             style="fill:#262262;fill-opacity:1;fill-rule:nonzero;stroke:none"
             d="m 0,0 v -0.233 c 0.203,-0.016 0.431,-0.025 0.664,-0.025 3.845,0 5.38,1.726 5.38,3.854 0,3.845 -1.535,8.47 -5.38,8.47 -2.089,0 -3.502,-1.382 -4.343,-3.267 C -1.173,7.21 0,3.507 0,0" /></g><g
           transform="translate(17.4061,25.1604)"
           id="g48"><path
             id="path50"
             style="fill:#262262;fill-opacity:1;fill-rule:nonzero;stroke:none"
             d="m 0,0 h 4.618 c 0,0 -1.86,4.972 -0.577,8.209 C 3.507,8.132 2.93,8.095 2.304,8.095 2.015,8.095 1.72,8.108 1.449,8.129 1.296,7.663 1.081,7.141 0.725,6.658 1.131,4.606 1.345,1.788 0,0" /></g></g></g></g></svg>