<?xml version="1.0" encoding="UTF-8" standalone="no"?>
<svg
   xmlns:dc="http://purl.org/dc/elements/1.1/"
   xmlns:cc="http://creativecommons.org/ns#"
   xmlns:rdf="http://www.w3.org/1999/02/22-rdf-syntax-ns#"
   xmlns:svg="http://www.w3.org/2000/svg"
   xmlns="http://www.w3.org/2000/svg"
   viewBox="0 0 42.666397 42.666531"
   height="42.666531"
   width="42.666397"
   xml:space="preserve"
   id="svg2"
   version="1.1"><metadata
     id="metadata8"><rdf:RDF><cc:Work
         rdf:about=""><dc:format>image/svg+xml</dc:format><dc:type
           rdf:resource="http://purl.org/dc/dcmitype/StillImage" /></cc:Work></rdf:RDF></metadata><defs
     id="defs6"><clipPath
       id="clipPath18"
       clipPathUnits="userSpaceOnUse"><path
         id="path16"
         d="M 0,32 H 32 V 0 H 0 Z" /></clipPath><clipPath
       id="clipPath26"
       clipPathUnits="userSpaceOnUse"><path
         id="path24"
         d="M 0,32 H 32 V 0 H 0 Z" /></clipPath></defs><g
     transform="matrix(1.3333333,0,0,-1.3333333,-2.6666666e-4,42.666666)"
     id="g10"><g
       id="g12"><g
         clip-path="url(#clipPath18)"
         id="g14"><g
           id="g20"><g
             id="g22" /><g
             id="g34"><g
               id="g32"
               clip-path="url(#clipPath26)"><g
                 id="g30"
                 transform="translate(21.2432,14.0001)"><path
                   id="path28"
                   style="fill:#24265d;fill-opacity:1;fill-rule:nonzero;stroke:none"
                   d="m 0,0 h -5.242 c -1.071,0 -2,0.929 -2,2 v 9.169 c 0,1.082 0.929,1.949 2,1.949 1.071,0 2,-0.867 2,-1.949 V 4 H 0 C 1.072,4 1.949,3.082 1.949,2 1.949,0.929 1.071,0 0,0 m -5.243,18 c -8.838,0 -16,-7.162 -16,-16 0,-8.837 7.162,-16 16,-16 8.838,0 16,7.163 16,16 0,8.838 -7.161,16 -16,16" /></g></g></g></g></g></g></g></svg>