<?xml version="1.0" encoding="UTF-8" standalone="no"?>
<svg
   xmlns:dc="http://purl.org/dc/elements/1.1/"
   xmlns:cc="http://creativecommons.org/ns#"
   xmlns:rdf="http://www.w3.org/1999/02/22-rdf-syntax-ns#"
   xmlns:svg="http://www.w3.org/2000/svg"
   xmlns="http://www.w3.org/2000/svg"
   viewBox="0 0 9578.1641 2093.4902"
   height="2093.4902"
   width="9578.1641"
   xml:space="preserve"
   id="svg2"
   version="1.1"><metadata
     id="metadata8"><rdf:RDF><cc:Work
         rdf:about=""><dc:format>image/svg+xml</dc:format><dc:type
           rdf:resource="http://purl.org/dc/dcmitype/StillImage" /></cc:Work></rdf:RDF></metadata><defs
     id="defs6"><clipPath
       id="clipPath18"
       clipPathUnits="userSpaceOnUse"><path
         id="path16"
         d="M 0,1570.118 H 7183.623 V 0 H 0 Z" /></clipPath><clipPath
       id="clipPath38"
       clipPathUnits="userSpaceOnUse"><path
         id="path36"
         d="M 5097.01,940.877 H 6785.42 V 135.938 H 5097.01 Z" /></clipPath><clipPath
       id="clipPath42"
       clipPathUnits="userSpaceOnUse"><path
         id="path40"
         d="M 5097.01,940.877 H 6785.42 V 135.938 H 5097.01 Z" /></clipPath><clipPath
       id="clipPath46"
       clipPathUnits="userSpaceOnUse"><path
         id="path44"
         d="m -19435.7,25790.2 h 32766 V -6975.82 h -32766 z" /></clipPath><clipPath
       id="clipPath50"
       clipPathUnits="userSpaceOnUse"><path
         id="path48"
         d="m -19435.7,25790.2 h 32766 V -6975.82 h -32766 z" /></clipPath><mask
       id="mask52"
       height="1"
       width="1"
       y="0"
       x="0"
       maskUnits="userSpaceOnUse"><g
         id="g64"><g
           id="g62"
           clip-path="url(#clipPath46)"><g
             id="g60"><g
               id="g54" /><g
               id="g58"><g
                 id="g56"
                 clip-path="url(#clipPath50)" /></g></g></g></g></mask><clipPath
       id="clipPath68"
       clipPathUnits="userSpaceOnUse"><path
         id="path66"
         d="M 5097.01,940.877 H 6785.42 V 135.938 H 5097.01 Z" /></clipPath><linearGradient
       id="linearGradient84"
       spreadMethod="pad"
       gradientTransform="matrix(1688.4141,0,0,-1688.4141,5097.0107,538.40723)"
       gradientUnits="userSpaceOnUse"
       y2="0"
       x2="1"
       y1="0"
       x1="0"><stop
         id="stop74"
         offset="0"
         style="stop-opacity:1;stop-color:#b2b1b1" /><stop
         id="stop76"
         offset="0.50461886"
         style="stop-opacity:1;stop-color:#ffffff" /><stop
         id="stop78"
         offset="0.645569"
         style="stop-opacity:1;stop-color:#ffffff" /><stop
         id="stop80"
         offset="0.78452471"
         style="stop-opacity:1;stop-color:#ffffff" /><stop
         id="stop82"
         offset="1"
         style="stop-opacity:1;stop-color:#b2b1b1" /></linearGradient><mask
       id="mask86"
       height="1"
       width="1"
       y="0"
       x="0"
       maskUnits="userSpaceOnUse"><g
         id="g120"><g
           id="g118"
           clip-path="url(#clipPath38)"><g
             id="g116"><g
               id="g88" /><g
               id="g114"><g
                 id="g112"
                 clip-path="url(#clipPath42)"><g
                   id="g110"><g
                     id="g90" /><g
                     id="g108"
                     mask="url(#mask52)"><g
                       id="g92" /><g
                       id="g106"><g
                         id="g104"
                         clip-path="url(#clipPath68)"><g
                           id="g102"><g
                             id="g100"><g
                               id="g98"><g
                                 id="g96"><path
                                   id="path94"
                                   style="fill:url(#linearGradient84);stroke:none"
                                   d="m 6784.777,349.834 c -0.216,71.312 -0.431,142.62 -0.642,213.933 -0.217,71.302 -0.432,142.611 -0.649,213.918 -0.024,7.694 -11.13,15.787 -33.155,24.139 -30.348,11.507 -81.424,23.443 -151.829,35.499 -282.637,48.373 -594.263,50.524 -869.208,52.422 -110.628,0.768 -215.134,1.49 -310.415,5.111 -106.833,4.072 -187.343,11.223 -253.389,22.526 -46.034,7.88 -68.454,15.572 -68.479,23.495 l 0.642,-213.917 0.648,-213.931 0.648,-213.898 c 0.019,-7.924 22.446,-15.615 68.479,-23.495 66.041,-11.304 146.556,-18.458 253.395,-22.524 95.276,-3.623 199.775,-4.348 310.409,-5.111 274.946,-1.901 586.572,-4.056 869.209,-52.429 70.405,-12.05 121.481,-23.988 151.828,-35.494 22.02,-8.35 33.131,-16.446 33.156,-24.141 -0.216,71.3 -0.432,142.596 -0.648,213.897" /></g></g></g></g></g></g></g></g></g></g></g></g></g></mask><clipPath
       id="clipPath128"
       clipPathUnits="userSpaceOnUse"><path
         id="path126"
         d="M 5097.01,940.877 H 6785.42 V 135.938 H 5097.01 Z" /></clipPath><linearGradient
       id="linearGradient144"
       spreadMethod="pad"
       gradientTransform="matrix(1688.4141,0,0,-1688.4141,5097.0107,538.40753)"
       gradientUnits="userSpaceOnUse"
       y2="0"
       x2="1"
       y1="0"
       x1="0"><stop
         id="stop134"
         offset="0"
         style="stop-opacity:1;stop-color:#231f20" /><stop
         id="stop136"
         offset="0.50461886"
         style="stop-opacity:1;stop-color:#ffffff" /><stop
         id="stop138"
         offset="0.645569"
         style="stop-opacity:1;stop-color:#ffffff" /><stop
         id="stop140"
         offset="0.78452471"
         style="stop-opacity:1;stop-color:#ffffff" /><stop
         id="stop142"
         offset="1"
         style="stop-opacity:1;stop-color:#231f20" /></linearGradient><clipPath
       id="clipPath178"
       clipPathUnits="userSpaceOnUse"><path
         id="path176"
         d="m 6419.35,777.69 h 367.36 V 82.1693 h -367.36 z" /></clipPath><clipPath
       id="clipPath182"
       clipPathUnits="userSpaceOnUse"><path
         id="path180"
         d="m 6419.34,777.689 h 367.37 V 82.1689 h -367.37 z" /></clipPath><clipPath
       id="clipPath186"
       clipPathUnits="userSpaceOnUse"><path
         id="path184"
         d="m -19435.7,25790.2 h 32766 V -6975.82 h -32766 z" /></clipPath><clipPath
       id="clipPath190"
       clipPathUnits="userSpaceOnUse"><path
         id="path188"
         d="m -19435.7,25790.2 h 32766 V -6975.82 h -32766 z" /></clipPath><mask
       id="mask192"
       height="1"
       width="1"
       y="0"
       x="0"
       maskUnits="userSpaceOnUse"><g
         id="g204"><g
           id="g202"
           clip-path="url(#clipPath186)"><g
             id="g200"><g
               id="g194" /><g
               id="g198"><g
                 id="g196"
                 clip-path="url(#clipPath190)" /></g></g></g></g></mask><clipPath
       id="clipPath208"
       clipPathUnits="userSpaceOnUse"><path
         id="path206"
         d="m 6419.35,777.689 h 367.36 V 82.1689 h -367.36 z" /></clipPath><linearGradient
       id="linearGradient224"
       spreadMethod="pad"
       gradientTransform="matrix(367.36914,0,0,-367.36914,6419.3457,429.92871)"
       gradientUnits="userSpaceOnUse"
       y2="0"
       x2="1"
       y1="0"
       x1="0"><stop
         id="stop214"
         offset="0"
         style="stop-opacity:1;stop-color:#d3d2d2" /><stop
         id="stop216"
         offset="0.82001713"
         style="stop-opacity:1;stop-color:#706d6e" /><stop
         id="stop218"
         offset="0.852129"
         style="stop-opacity:1;stop-color:#706d6e" /><stop
         id="stop220"
         offset="0.95163299"
         style="stop-opacity:1;stop-color:#706d6e" /><stop
         id="stop222"
         offset="1"
         style="stop-opacity:1;stop-color:#706d6e" /></linearGradient><mask
       id="mask226"
       height="1"
       width="1"
       y="0"
       x="0"
       maskUnits="userSpaceOnUse"><g
         id="g260"><g
           id="g258"
           clip-path="url(#clipPath178)"><g
             id="g256"><g
               id="g228" /><g
               id="g254"><g
                 id="g252"
                 clip-path="url(#clipPath182)"><g
                   id="g250"><g
                     id="g230" /><g
                     id="g248"
                     mask="url(#mask192)"><g
                       id="g232" /><g
                       id="g246"><g
                         id="g244"
                         clip-path="url(#clipPath208)"><g
                           id="g242"><g
                             id="g240"><g
                               id="g238"><g
                                 id="g236"><path
                                   id="path234"
                                   style="fill:url(#linearGradient224);stroke:none"
                                   d="m 6786.066,349.843 c -0.913,-8.797 -1.494,-8.77 0,0 -0.209,71.308 -0.425,142.617 -0.641,213.933 -0.926,-8.877 -1.507,-8.85 0,0 l -0.642,213.913 c 0,-1.603 -0.463,-3.194 -1.395,-4.764 -10.001,-16.785 -69.923,-26.674 -104.752,-31.072 -51.027,-6.449 -111.703,-9.35 -154.6,-7.406 -55.466,2.516 -91.628,0.254 -101.807,-6.377 -1.932,-1.253 -2.89,-2.641 -2.883,-4.154 l 0.642,-213.918 c 0.216,-71.311 0.432,-142.62 0.648,-213.93 l 0.642,-213.899 c 3.87,12.264 56.361,12.612 99.708,10.748 88.084,-3.794 260.105,10.009 265.729,43.026 z" /></g></g></g></g></g></g></g></g></g></g></g></g></g></mask><clipPath
       id="clipPath268"
       clipPathUnits="userSpaceOnUse"><path
         id="path266"
         d="m 6419.35,777.69 h 367.36 V 82.1693 h -367.36 z" /></clipPath><linearGradient
       id="linearGradient284"
       spreadMethod="pad"
       gradientTransform="matrix(367.36914,0,0,-367.36914,6419.3457,429.9295)"
       gradientUnits="userSpaceOnUse"
       y2="0"
       x2="1"
       y1="0"
       x1="0"><stop
         id="stop274"
         offset="0"
         style="stop-opacity:1;stop-color:#231f20" /><stop
         id="stop276"
         offset="0.82001713"
         style="stop-opacity:1;stop-color:#918f90" /><stop
         id="stop278"
         offset="0.852129"
         style="stop-opacity:1;stop-color:#918f90" /><stop
         id="stop280"
         offset="0.95163299"
         style="stop-opacity:1;stop-color:#918f90" /><stop
         id="stop282"
         offset="1"
         style="stop-opacity:1;stop-color:#918f90" /></linearGradient><clipPath
       id="clipPath318"
       clipPathUnits="userSpaceOnUse"><path
         id="path316"
         d="m 6418.04,723.916 h 765.58 V 0 h -765.58 z" /></clipPath><clipPath
       id="clipPath322"
       clipPathUnits="userSpaceOnUse"><path
         id="path320"
         d="m 6418.04,723.916 h 765.58 V -4.5166 h -765.58 z" /></clipPath><clipPath
       id="clipPath326"
       clipPathUnits="userSpaceOnUse"><path
         id="path324"
         d="m 7003.491,214.524 -92.282,108.844 89.35,105.127 180.465,212.33 c -126.475,-2.709 -235.943,0.27 -326.899,5.683 v 1.29 c -80.553,4.568 -146.593,11.082 -197.076,17.289 -33.088,4.07 -64.276,8.61 -92.635,13.463 -24.347,4.17 -46.601,8.564 -66.194,13.099 -38.292,8.859 -65.059,17.977 -75.38,25.674 -3.192,2.38 -4.791,4.587 -4.797,6.593 0.217,-71.31 0.432,-142.615 0.642,-213.923 0.216,-71.31 0.432,-142.618 0.649,-213.931 0.209,-71.302 0.432,-142.599 0.641,-213.895 0.013,-2.008 1.612,-4.208 4.803,-6.594 10.316,-7.698 37.089,-16.815 75.374,-25.672 19.594,-4.533 41.854,-8.931 66.202,-13.097 28.352,-4.854 59.539,-9.391 92.632,-13.464 107.575,-13.23 285.817,-27.857 524.637,-22.02 v 0.735 z" /></clipPath><clipPath
       id="clipPath330"
       clipPathUnits="userSpaceOnUse"><path
         id="path328"
         d="m -19435.7,25790.2 h 32766 V -6975.82 h -32766 z" /></clipPath><clipPath
       id="clipPath334"
       clipPathUnits="userSpaceOnUse"><path
         id="path332"
         d="m -19435.7,25790.2 h 32766 V -6975.82 h -32766 z" /></clipPath><mask
       id="mask336"
       height="1"
       width="1"
       y="0"
       x="0"
       maskUnits="userSpaceOnUse"><g
         id="g348"><g
           id="g346"
           clip-path="url(#clipPath330)"><g
             id="g344"><g
               id="g338" /><g
               id="g342"><g
                 id="g340"
                 clip-path="url(#clipPath334)" /></g></g></g></g></mask><linearGradient
       id="linearGradient360"
       spreadMethod="pad"
       gradientTransform="matrix(765.58008,0,0,-765.58008,6418.043,361.95801)"
       gradientUnits="userSpaceOnUse"
       y2="0"
       x2="1"
       y1="0"
       x1="0"><stop
         id="stop350"
         offset="0"
         style="stop-opacity:1;stop-color:#ffffff" /><stop
         id="stop352"
         offset="0.14518685"
         style="stop-opacity:1;stop-color:#231f20" /><stop
         id="stop354"
         offset="0.2978"
         style="stop-opacity:1;stop-color:#231f20" /><stop
         id="stop356"
         offset="0.48430971"
         style="stop-opacity:1;stop-color:#231f20" /><stop
         id="stop358"
         offset="1"
         style="stop-opacity:1;stop-color:#ffffff" /></linearGradient><mask
       id="mask362"
       height="1"
       width="1"
       y="0"
       x="0"
       maskUnits="userSpaceOnUse"><g
         id="g388"><g
           id="g386"
           clip-path="url(#clipPath318)"><g
             id="g384"><g
               id="g364" /><g
               id="g382"><g
                 id="g380"
                 clip-path="url(#clipPath322)"><g
                   id="g378"><g
                     id="g376"
                     clip-path="url(#clipPath326)"><g
                       id="g374"><g
                         id="g366" /><g
                         id="g372"
                         mask="url(#mask336)"><g
                           id="g370"><path
                             id="path368"
                             style="fill:url(#linearGradient360);stroke:none"
                             d="m 7003.491,214.524 -92.282,108.844 89.35,105.127 180.465,212.33 c -126.475,-2.709 -235.943,0.27 -326.899,5.683 v 1.29 c -80.553,4.568 -146.593,11.082 -197.076,17.289 -33.088,4.07 -64.276,8.61 -92.635,13.463 -24.347,4.17 -46.601,8.564 -66.194,13.099 -38.292,8.859 -65.059,17.977 -75.38,25.674 -3.192,2.38 -4.791,4.587 -4.797,6.593 0.217,-71.31 0.432,-142.615 0.642,-213.923 0.216,-71.31 0.432,-142.618 0.649,-213.931 0.209,-71.302 0.432,-142.599 0.641,-213.895 0.013,-2.008 1.612,-4.208 4.803,-6.594 10.316,-7.698 37.089,-16.815 75.374,-25.672 19.594,-4.533 41.854,-8.931 66.202,-13.097 28.352,-4.854 59.539,-9.391 92.632,-13.464 107.575,-13.23 285.817,-27.857 524.637,-22.02 v 0.735 z" /></g></g></g></g></g></g></g></g></g></g></mask><clipPath
       id="clipPath396"
       clipPathUnits="userSpaceOnUse"><path
         id="path394"
         d="m 6418.04,723.916 h 765.58 V 0 h -765.58 z" /></clipPath><linearGradient
       id="linearGradient412"
       spreadMethod="pad"
       gradientTransform="matrix(765.58008,0,0,-765.58008,6418.043,361.95819)"
       gradientUnits="userSpaceOnUse"
       y2="0"
       x2="1"
       y1="0"
       x1="0"><stop
         id="stop402"
         offset="0"
         style="stop-opacity:1;stop-color:#ffffff" /><stop
         id="stop404"
         offset="0.14518685"
         style="stop-opacity:1;stop-color:#656263" /><stop
         id="stop406"
         offset="0.2978"
         style="stop-opacity:1;stop-color:#656263" /><stop
         id="stop408"
         offset="0.48430971"
         style="stop-opacity:1;stop-color:#656263" /><stop
         id="stop410"
         offset="1"
         style="stop-opacity:1;stop-color:#ffffff" /></linearGradient><clipPath
       id="clipPath434"
       clipPathUnits="userSpaceOnUse"><path
         id="path432"
         d="m 5098.3,940.946 h 843.03 V 284.133 H 5098.3 Z" /></clipPath><clipPath
       id="clipPath438"
       clipPathUnits="userSpaceOnUse"><path
         id="path436"
         d="m 5089,940.945 h 852.33 V 284.133 H 5089 Z" /></clipPath><clipPath
       id="clipPath442"
       clipPathUnits="userSpaceOnUse"><path
         id="path440"
         d="m 5778.327,371.301 c 106.895,19.714 160.175,39.603 162.898,60.802 0.067,0.558 0.104,1.111 0.104,1.669 -0.013,131.053 -0.024,294.928 -0.037,451.408 -71.873,1.421 -142.494,2.118 -210.844,2.791 -110.64,1.089 -215.133,2.11 -310.403,6.021 -106.826,4.37 -187.317,11.766 -253.327,23.264 -46.002,8.013 -68.417,15.766 -68.417,23.689 l 0.062,-641.756 c 0,-5.05 9.124,-10.032 27.649,-15.056 -37.014,26.22 343.338,34.467 652.315,87.168" /></clipPath><clipPath
       id="clipPath446"
       clipPathUnits="userSpaceOnUse"><path
         id="path444"
         d="m -19435.7,25790.2 h 32766 V -6975.82 h -32766 z" /></clipPath><clipPath
       id="clipPath450"
       clipPathUnits="userSpaceOnUse"><path
         id="path448"
         d="m -19435.7,25790.2 h 32766 V -6975.82 h -32766 z" /></clipPath><mask
       id="mask452"
       height="1"
       width="1"
       y="0"
       x="0"
       maskUnits="userSpaceOnUse"><g
         id="g464"><g
           id="g462"
           clip-path="url(#clipPath446)"><g
             id="g460"><g
               id="g454" /><g
               id="g458"><g
                 id="g456"
                 clip-path="url(#clipPath450)" /></g></g></g></g></mask><linearGradient
       id="linearGradient474"
       spreadMethod="pad"
       gradientTransform="matrix(843.02789,0,0,-843.02789,5098.3013,612.53906)"
       gradientUnits="userSpaceOnUse"
       y2="0"
       x2="1"
       y1="0"
       x1="0"><stop
         id="stop466"
         offset="0"
         style="stop-opacity:1;stop-color:#ffffff" /><stop
         id="stop468"
         offset="0.00418931"
         style="stop-opacity:1;stop-color:#ffffff" /><stop
         id="stop470"
         offset="0.83883074"
         style="stop-opacity:1;stop-color:#bdbcbc" /><stop
         id="stop472"
         offset="1"
         style="stop-opacity:1;stop-color:#bdbcbc" /></linearGradient><mask
       id="mask476"
       height="1"
       width="1"
       y="0"
       x="0"
       maskUnits="userSpaceOnUse"><g
         id="g502"><g
           id="g500"
           clip-path="url(#clipPath434)"><g
             id="g498"><g
               id="g478" /><g
               id="g496"><g
                 id="g494"
                 clip-path="url(#clipPath438)"><g
                   id="g492"><g
                     id="g490"
                     clip-path="url(#clipPath442)"><g
                       id="g488"><g
                         id="g480" /><g
                         id="g486"
                         mask="url(#mask452)"><g
                           id="g484"><path
                             id="path482"
                             style="fill:url(#linearGradient474);stroke:none"
                             d="m 5778.327,371.301 c 106.895,19.714 160.175,39.603 162.898,60.802 0.067,0.558 0.104,1.111 0.104,1.669 -0.013,131.053 -0.024,294.928 -0.037,451.408 -71.873,1.421 -142.494,2.118 -210.844,2.791 -110.64,1.089 -215.133,2.11 -310.403,6.021 -106.826,4.37 -187.317,11.766 -253.327,23.264 -46.002,8.013 -68.417,15.766 -68.417,23.689 l 0.062,-641.756 c 0,-5.05 9.124,-10.032 27.649,-15.056 -37.014,26.22 343.338,34.467 652.315,87.168" /></g></g></g></g></g></g></g></g></g></g></mask><clipPath
       id="clipPath510"
       clipPathUnits="userSpaceOnUse"><path
         id="path508"
         d="m 5098.3,940.946 h 843.03 V 284.133 H 5098.3 Z" /></clipPath><linearGradient
       id="linearGradient524"
       spreadMethod="pad"
       gradientTransform="matrix(843.02789,0,0,-843.02789,5098.3013,612.53943)"
       gradientUnits="userSpaceOnUse"
       y2="0"
       x2="1"
       y1="0"
       x1="0"><stop
         id="stop516"
         offset="0"
         style="stop-opacity:1;stop-color:#918f90" /><stop
         id="stop518"
         offset="0.00418931"
         style="stop-opacity:1;stop-color:#918f90" /><stop
         id="stop520"
         offset="0.83883074"
         style="stop-opacity:1;stop-color:#bdbcbc" /><stop
         id="stop522"
         offset="1"
         style="stop-opacity:1;stop-color:#bdbcbc" /></linearGradient><clipPath
       id="clipPath558"
       clipPathUnits="userSpaceOnUse"><path
         id="path556"
         d="M 3489.5,1389.95 H 5896.25 V 466.792 H 3489.5 Z" /></clipPath><clipPath
       id="clipPath562"
       clipPathUnits="userSpaceOnUse"><path
         id="path560"
         d="M 3489.5,1389.95 H 5896.25 V 466.793 H 3489.5 Z" /></clipPath><clipPath
       id="clipPath566"
       clipPathUnits="userSpaceOnUse"><path
         id="path564"
         d="m 5895.598,680.689 c -0.216,71.309 -0.426,142.623 -0.648,213.934 l -0.649,213.918 c -0.043,14.303 -23.834,29.454 -70.793,45.055 -53.626,17.811 -139.383,36.865 -254.877,56.629 -346.806,59.362 -722.527,104.967 -1116.756,135.548 -312.25,24.224 -636.031,39.089 -962.379,44.182 l 0.641,-213.918 0.648,-213.93 0.642,-213.896 c 326.349,-5.096 650.142,-19.961 962.386,-44.187 394.223,-30.575 769.95,-76.186 1116.758,-135.544 115.492,-19.769 201.25,-38.82 254.869,-56.631 46.966,-15.603 70.764,-30.752 70.806,-45.056 z" /></clipPath><clipPath
       id="clipPath570"
       clipPathUnits="userSpaceOnUse"><path
         id="path568"
         d="m -19435.7,25790.2 h 32766 V -6975.81 h -32766 z" /></clipPath><clipPath
       id="clipPath574"
       clipPathUnits="userSpaceOnUse"><path
         id="path572"
         d="m -19435.7,25790.2 h 32766 V -6975.81 h -32766 z" /></clipPath><mask
       id="mask576"
       height="1"
       width="1"
       y="0"
       x="0"
       maskUnits="userSpaceOnUse"><g
         id="g588"><g
           id="g586"
           clip-path="url(#clipPath570)"><g
             id="g584"><g
               id="g578" /><g
               id="g582"><g
                 id="g580"
                 clip-path="url(#clipPath574)" /></g></g></g></g></mask><linearGradient
       id="linearGradient600"
       spreadMethod="pad"
       gradientTransform="matrix(2406.7505,0,0,-2406.7505,3489.4956,928.37402)"
       gradientUnits="userSpaceOnUse"
       y2="0"
       x2="1"
       y1="0"
       x1="0"><stop
         id="stop590"
         offset="0"
         style="stop-opacity:1;stop-color:#231f20" /><stop
         id="stop592"
         offset="0.16935877"
         style="stop-opacity:1;stop-color:#ffffff" /><stop
         id="stop594"
         offset="0.322747"
         style="stop-opacity:1;stop-color:#ffffff" /><stop
         id="stop596"
         offset="0.73191158"
         style="stop-opacity:1;stop-color:#ffffff" /><stop
         id="stop598"
         offset="1"
         style="stop-opacity:1;stop-color:#b2b1b1" /></linearGradient><mask
       id="mask602"
       height="1"
       width="1"
       y="0"
       x="0"
       maskUnits="userSpaceOnUse"><g
         id="g628"><g
           id="g626"
           clip-path="url(#clipPath558)"><g
             id="g624"><g
               id="g604" /><g
               id="g622"><g
                 id="g620"
                 clip-path="url(#clipPath562)"><g
                   id="g618"><g
                     id="g616"
                     clip-path="url(#clipPath566)"><g
                       id="g614"><g
                         id="g606" /><g
                         id="g612"
                         mask="url(#mask576)"><g
                           id="g610"><path
                             id="path608"
                             style="fill:url(#linearGradient600);stroke:none"
                             d="m 5895.598,680.689 c -0.216,71.309 -0.426,142.623 -0.648,213.934 l -0.649,213.918 c -0.043,14.303 -23.834,29.454 -70.793,45.055 -53.626,17.811 -139.383,36.865 -254.877,56.629 -346.806,59.362 -722.527,104.967 -1116.756,135.548 -312.25,24.224 -636.031,39.089 -962.379,44.182 l 0.641,-213.918 0.648,-213.93 0.642,-213.896 c 326.349,-5.096 650.142,-19.961 962.386,-44.187 394.223,-30.575 769.95,-76.186 1116.758,-135.544 115.492,-19.769 201.25,-38.82 254.869,-56.631 46.966,-15.603 70.764,-30.752 70.806,-45.056 z" /></g></g></g></g></g></g></g></g></g></g></mask><clipPath
       id="clipPath636"
       clipPathUnits="userSpaceOnUse"><path
         id="path634"
         d="M 0,1570.12 H 5896.25 V 466.792 H 0 Z" /></clipPath><linearGradient
       id="linearGradient652"
       spreadMethod="pad"
       gradientTransform="matrix(5896.2461,0,0,-5896.2461,0,1018.455)"
       gradientUnits="userSpaceOnUse"
       y2="0"
       x2="1"
       y1="0"
       x1="0"><stop
         id="stop642"
         offset="0"
         style="stop-opacity:1;stop-color:#9c9a9b" /><stop
         id="stop644"
         offset="0.27555701"
         style="stop-opacity:1;stop-color:#ffffff" /><stop
         id="stop646"
         offset="0.525129"
         style="stop-opacity:1;stop-color:#ffffff" /><stop
         id="stop648"
         offset="0.81202385"
         style="stop-opacity:1;stop-color:#ffffff" /><stop
         id="stop650"
         offset="1"
         style="stop-opacity:1;stop-color:#231f20" /></linearGradient><clipPath
       id="clipPath686"
       clipPathUnits="userSpaceOnUse"><path
         id="path684"
         d="m 5097.01,1108.55 h 799.24 V 299.134 h -799.24 z" /></clipPath><clipPath
       id="clipPath690"
       clipPathUnits="userSpaceOnUse"><path
         id="path688"
         d="m 5097.01,1108.55 h 799.24 V 299.134 h -799.24 z" /></clipPath><clipPath
       id="clipPath694"
       clipPathUnits="userSpaceOnUse"><path
         id="path692"
         d="m -19435.7,25790.2 h 32766 V -6975.82 h -32766 z" /></clipPath><clipPath
       id="clipPath698"
       clipPathUnits="userSpaceOnUse"><path
         id="path696"
         d="m -19435.7,25790.2 h 32766 V -6975.82 h -32766 z" /></clipPath><mask
       id="mask700"
       height="1"
       width="1"
       y="0"
       x="0"
       maskUnits="userSpaceOnUse"><g
         id="g712"><g
           id="g710"
           clip-path="url(#clipPath694)"><g
             id="g708"><g
               id="g702" /><g
               id="g706"><g
                 id="g704"
                 clip-path="url(#clipPath698)" /></g></g></g></g></mask><clipPath
       id="clipPath716"
       clipPathUnits="userSpaceOnUse"><path
         id="path714"
         d="m 5097.01,1108.55 h 799.24 V 299.134 h -799.24 z" /></clipPath><linearGradient
       id="linearGradient734"
       spreadMethod="pad"
       gradientTransform="matrix(799.23541,0,0,-799.23541,5097.0107,703.84277)"
       gradientUnits="userSpaceOnUse"
       y2="0"
       x2="1"
       y1="0"
       x1="0"><stop
         id="stop722"
         offset="0"
         style="stop-opacity:1;stop-color:#231f20" /><stop
         id="stop724"
         offset="0.127623"
         style="stop-opacity:1;stop-color:#231f20" /><stop
         id="stop726"
         offset="0.43380019"
         style="stop-opacity:1;stop-color:#ffffff" /><stop
         id="stop728"
         offset="0.492923"
         style="stop-opacity:1;stop-color:#ffffff" /><stop
         id="stop730"
         offset="0.73391562"
         style="stop-opacity:1;stop-color:#ffffff" /><stop
         id="stop732"
         offset="1"
         style="stop-opacity:1;stop-color:#231f20" /></linearGradient><mask
       id="mask736"
       height="1"
       width="1"
       y="0"
       x="0"
       maskUnits="userSpaceOnUse"><g
         id="g770"><g
           id="g768"
           clip-path="url(#clipPath686)"><g
             id="g766"><g
               id="g738" /><g
               id="g764"><g
                 id="g762"
                 clip-path="url(#clipPath690)"><g
                   id="g760"><g
                     id="g740" /><g
                     id="g758"
                     mask="url(#mask700)"><g
                       id="g742" /><g
                       id="g756"><g
                         id="g754"
                         clip-path="url(#clipPath716)"><g
                           id="g752"><g
                             id="g750"><g
                               id="g748"><g
                                 id="g746"><path
                                   id="path744"
                                   style="fill:url(#linearGradient734);stroke:none"
                                   d="m 5097.653,726.965 0.648,-213.936 m 0,0 0.648,-213.895 c 0.464,19.639 142.724,37.425 322.83,59.937 314.336,39.292 465.511,65.432 474.467,107.735 -0.215,71.297 -0.432,142.591 -0.647,213.895 -0.216,71.309 -0.433,142.617 -0.649,213.931 -0.129,-10.708 0,0 0,0 -0.216,71.305 -0.431,142.608 -0.648,213.92 0.01,-0.565 -0.024,-1.127 -0.099,-1.686 -2.648,-21.205 -55.878,-41.246 -162.711,-61.274 -93.171,-17.47 -215.714,-32.782 -323.83,-46.299 -165.372,-20.667 -308.194,-38.52 -310.62,-57.904 -0.019,-0.169 -0.031,-0.339 -0.031,-0.505 l 0.642,-213.919" /></g></g></g></g></g></g></g></g></g></g></g></g></g></mask><clipPath
       id="clipPath778"
       clipPathUnits="userSpaceOnUse"><path
         id="path776"
         d="m 5097.01,1108.55 h 799.24 V 299.134 h -799.24 z" /></clipPath><linearGradient
       id="linearGradient796"
       spreadMethod="pad"
       gradientTransform="matrix(799.23541,0,0,-799.23541,5097.0107,703.84308)"
       gradientUnits="userSpaceOnUse"
       y2="0"
       x2="1"
       y1="0"
       x1="0"><stop
         id="stop784"
         offset="0"
         style="stop-opacity:1;stop-color:#bdbcbc" /><stop
         id="stop786"
         offset="0.127623"
         style="stop-opacity:1;stop-color:#bdbcbc" /><stop
         id="stop788"
         offset="0.43380019"
         style="stop-opacity:1;stop-color:#ffffff" /><stop
         id="stop790"
         offset="0.492923"
         style="stop-opacity:1;stop-color:#ffffff" /><stop
         id="stop792"
         offset="0.73391562"
         style="stop-opacity:1;stop-color:#ffffff" /><stop
         id="stop794"
         offset="1"
         style="stop-opacity:1;stop-color:#656263" /></linearGradient></defs><g
     transform="matrix(1.3333333,0,0,-1.3333333,0,2093.4906)"
     id="g10"><g
       id="g12"><g
         clip-path="url(#clipPath18)"
         id="g14"><g
           transform="translate(5097.0107,940.8776)"
           id="g20"><path
             id="path22"
             style="fill:#283679;fill-opacity:1;fill-rule:nonzero;stroke:none"
             d="m 0,0 c 0.025,-7.923 22.445,-15.615 68.479,-23.495 66.046,-11.303 146.556,-18.454 253.389,-22.526 95.281,-3.621 199.787,-4.343 310.415,-5.111 274.946,-1.898 586.571,-4.049 869.208,-52.422 70.405,-12.056 121.482,-23.992 151.829,-35.499 22.026,-8.352 33.131,-16.445 33.156,-24.139 0.216,-71.307 0.431,-142.616 0.648,-213.918 -4.618,10.75 -73.564,105.246 -1060.328,112.103 -516.37,3.594 -625.518,29.768 -626.154,51.09 L 0,0" /></g><g
           transform="translate(5097.6528,726.9606)"
           id="g24"><path
             id="path26"
             style="fill:#f7cf0d;fill-opacity:1;fill-rule:nonzero;stroke:none"
             d="m 0,0 c 34.483,-46.987 446.966,-49.846 623.104,-51.068 1022.653,-7.083 1062.193,-107.841 1063.378,-112.125 0.211,-71.313 0.426,-142.621 0.643,-213.933 -4.612,10.75 -73.566,105.249 -1060.323,112.106 -516.364,3.594 -625.512,29.764 -626.154,51.089 L 0,0" /></g><g
           transform="translate(5098.3013,513.03)"
           id="g28"><path
             id="path30"
             style="fill:#d01e27;fill-opacity:1;fill-rule:nonzero;stroke:none"
             d="m 0,0 c 34.483,-46.99 446.959,-49.849 623.104,-51.067 1022.653,-7.086 1062.187,-107.842 1063.372,-112.128 0.216,-71.301 0.432,-142.597 0.648,-213.897 -0.025,7.695 -11.136,15.79 -33.157,24.141 -30.346,11.506 -81.423,23.444 -151.827,35.494 -282.638,48.373 -594.264,50.527 -869.209,52.429 -110.635,0.762 -215.134,1.488 -310.409,5.111 -106.839,4.065 -187.355,11.22 -253.396,22.523 -46.033,7.88 -68.459,15.572 -68.478,23.496 L 0,0" /></g><g
           id="g32"><g
             id="g34" /><g
             mask="url(#mask86)"
             id="g122"><g
               id="g124" /><g
               id="g158"><g
                 id="g156"
                 clip-path="url(#clipPath128)"><g
                   id="g154"><g
                     id="g152"><g
                       id="g150"><g
                         id="g148"><path
                           id="path146"
                           style="fill:url(#linearGradient144);stroke:none"
                           d="m 6784.777,349.835 c -0.216,71.311 -0.431,142.62 -0.642,213.932 -0.217,71.303 -0.432,142.612 -0.649,213.918 -0.024,7.695 -11.13,15.787 -33.155,24.14 -30.348,11.507 -81.424,23.442 -151.829,35.499 -282.637,48.373 -594.263,50.523 -869.208,52.422 -110.628,0.767 -215.134,1.49 -310.415,5.111 -106.833,4.071 -187.343,11.223 -253.389,22.526 -46.034,7.879 -68.454,15.572 -68.479,23.495 l 0.642,-213.917 0.648,-213.931 0.648,-213.898 c 0.019,-7.924 22.446,-15.616 68.479,-23.496 66.041,-11.303 146.556,-18.458 253.395,-22.523 95.276,-3.623 199.775,-4.349 310.409,-5.111 274.946,-1.902 586.572,-4.056 869.209,-52.429 70.405,-12.05 121.481,-23.988 151.828,-35.494 22.02,-8.351 33.131,-16.446 33.156,-24.141 -0.216,71.3 -0.432,142.596 -0.648,213.897" /></g></g></g></g></g></g></g></g><g
           transform="translate(6422.2285,728.071)"
           id="g160"><path
             id="path162"
             style="fill:#283679;fill-opacity:1;fill-rule:nonzero;stroke:none"
             d="m 0,0 c 10.18,6.631 46.342,8.893 101.808,6.377 42.896,-1.944 103.573,0.957 154.599,7.405 34.829,4.399 94.751,14.287 104.752,31.072 0.933,1.571 1.396,3.162 1.396,4.765 l 0.641,-213.913 c -5.624,-33.018 -177.65,-46.827 -265.728,-43.033 -43.354,1.867 -95.838,1.515 -99.708,-10.745 L -2.883,-4.154 C -2.89,-2.642 -1.932,-1.253 0,0" /></g><g
           transform="translate(6785.4248,563.777)"
           id="g164"><path
             id="path166"
             style="fill:#f7cf0d;fill-opacity:1;fill-rule:nonzero;stroke:none"
             d="m 0,0 c 0.216,-71.316 0.433,-142.625 0.642,-213.934 -5.623,-33.02 -177.645,-46.823 -265.723,-43.033 -43.354,1.867 -95.844,1.519 -99.708,-10.741 -0.216,71.31 -0.432,142.618 -0.648,213.93 1.512,4.034 5.543,14.749 105.702,10.482 C -184.298,-46.506 -3.444,-33.12 0,0" /></g><g
           transform="translate(6786.0664,349.8434)"
           id="g168"><path
             id="path170"
             style="fill:#d01e27;fill-opacity:1;fill-rule:nonzero;stroke:none"
             d="m 0,0 0.648,-213.899 c -5.624,-33.018 -177.644,-46.821 -265.728,-43.027 -43.348,1.864 -95.838,1.516 -99.708,-10.748 l -0.643,213.9 c 1.519,4.03 5.544,14.747 105.708,10.484 C -184.298,-46.503 -3.438,-33.113 0,0" /></g><g
           id="g172"><g
             id="g174" /><g
             mask="url(#mask226)"
             id="g262"><g
               id="g264" /><g
               id="g298"><g
                 id="g296"
                 clip-path="url(#clipPath268)"><g
                   id="g294"><g
                     id="g292"><g
                       id="g290"><g
                         id="g288"><path
                           id="path286"
                           style="fill:url(#linearGradient284);stroke:none"
                           d="m 6786.066,349.843 c -0.913,-8.796 -1.494,-8.769 0,0 -0.209,71.309 -0.425,142.618 -0.641,213.934 -0.926,-8.877 -1.507,-8.851 0,0 l -0.642,213.913 c 0,-1.603 -0.463,-3.194 -1.395,-4.765 -10.001,-16.785 -69.923,-26.673 -104.752,-31.072 -51.027,-6.448 -111.703,-9.349 -154.6,-7.405 -55.466,2.516 -91.628,0.254 -101.807,-6.377 -1.932,-1.253 -2.89,-2.642 -2.883,-4.154 l 0.642,-213.918 c 0.216,-71.312 0.432,-142.62 0.648,-213.93 l 0.642,-213.899 c 3.87,12.263 56.361,12.612 99.708,10.748 88.084,-3.794 260.105,10.008 265.729,43.026 z" /></g></g></g></g></g></g></g></g><g
           transform="translate(7183.623,1.321)"
           id="g300"><path
             id="path302"
             style="fill:#d01e27;fill-opacity:1;fill-rule:nonzero;stroke:none"
             d="m 0,0 v 0.734 l -180.132,212.47 c -150.168,2.63 -266.532,13.047 -345.152,22.713 -33.088,4.069 -64.276,8.609 -92.628,13.465 -24.348,4.167 -46.608,8.562 -66.201,13.096 -38.292,8.859 -65.059,17.976 -75.374,25.674 -3.198,2.38 -4.802,4.583 -4.802,6.589 0.209,-71.302 0.432,-142.598 0.641,-213.894 0.013,-2.008 1.612,-4.208 4.803,-6.594 10.316,-7.698 37.089,-16.815 75.374,-25.672 19.594,-4.533 41.854,-8.932 66.201,-13.098 28.353,-4.853 59.54,-9.39 92.633,-13.463 C -417.062,8.79 -238.82,-5.837 0,0" /></g><g
           transform="translate(6911.209,323.3688)"
           id="g304"><path
             id="path306"
             style="fill:#f7cf0d;fill-opacity:1;fill-rule:nonzero;stroke:none"
             d="m 0,0 89.35,105.127 c -149.057,2.694 -264.643,13.056 -342.863,22.674 -33.088,4.07 -64.274,8.611 -92.633,13.463 -24.347,4.167 -46.601,8.566 -66.201,13.095 -38.286,8.863 -65.052,17.981 -75.374,25.675 -3.198,2.387 -4.797,4.583 -4.803,6.591 0.216,-71.311 0.432,-142.618 0.649,-213.932 0,-2.005 1.604,-4.209 4.802,-6.589 10.315,-7.698 37.082,-16.815 75.374,-25.674 19.594,-4.534 41.853,-8.929 66.201,-13.096 28.352,-4.855 59.54,-9.396 92.628,-13.465 78.62,-9.666 194.984,-20.083 345.152,-22.713 z" /></g><g
           transform="translate(7181.0244,640.8259)"
           id="g308"><path
             id="path310"
             style="fill:#283679;fill-opacity:1;fill-rule:nonzero;stroke:none"
             d="m 0,0 c -126.476,-2.709 -235.943,0.27 -326.899,5.683 v 1.29 c -80.553,4.568 -146.593,11.082 -197.077,17.289 -33.087,4.07 -64.275,8.61 -92.634,13.463 -24.347,4.17 -46.601,8.564 -66.195,13.099 -38.292,8.859 -65.058,17.977 -75.38,25.674 -3.191,2.38 -4.791,4.587 -4.796,6.593 0.216,-71.31 0.431,-142.615 0.641,-213.923 0.007,-2.008 1.606,-4.204 4.804,-6.591 10.321,-7.694 37.088,-16.812 75.374,-25.675 19.6,-4.529 41.853,-8.928 66.2,-13.095 28.359,-4.852 59.546,-9.393 92.634,-13.463 78.22,-9.618 193.806,-19.98 342.862,-22.674 z" /></g><g
           id="g312"><g
             id="g314" /><g
             mask="url(#mask362)"
             id="g390"><g
               id="g392" /><g
               id="g426"><g
                 id="g424"
                 clip-path="url(#clipPath396)"><g
                   id="g422"><g
                     id="g420"><g
                       id="g418"><g
                         id="g416"><path
                           id="path414"
                           style="fill:url(#linearGradient412);stroke:none"
                           d="m 7003.491,214.525 -92.282,108.844 89.35,105.127 180.465,212.33 c -126.475,-2.709 -235.943,0.269 -326.899,5.682 v 1.291 c -80.553,4.568 -146.593,11.082 -197.076,17.289 -33.088,4.07 -64.276,8.61 -92.635,13.462 -24.347,4.17 -46.601,8.565 -66.194,13.1 -38.292,8.858 -65.059,17.977 -75.38,25.674 -3.192,2.38 -4.791,4.587 -4.797,6.593 0.217,-71.31 0.432,-142.616 0.642,-213.923 0.216,-71.311 0.432,-142.618 0.649,-213.932 0.209,-71.302 0.432,-142.598 0.641,-213.894 0.013,-2.008 1.612,-4.208 4.803,-6.594 10.316,-7.698 37.089,-16.816 75.374,-25.672 19.594,-4.533 41.854,-8.932 66.202,-13.098 28.352,-4.853 59.539,-9.39 92.632,-13.464 107.575,-13.229 285.817,-27.856 524.637,-22.019 v 0.734 z" /></g></g></g></g></g></g></g></g><g
           id="g428"><g
             id="g430" /><g
             mask="url(#mask476)"
             id="g504"><g
               id="g506" /><g
               id="g538"><g
                 id="g536"
                 clip-path="url(#clipPath510)"><g
                   id="g534"><g
                     id="g532"><g
                       id="g530"><g
                         id="g528"><path
                           id="path526"
                           style="fill:url(#linearGradient524);stroke:none"
                           d="m 5778.327,371.301 c 106.895,19.714 160.175,39.604 162.898,60.802 0.067,0.559 0.104,1.112 0.104,1.67 -0.013,131.053 -0.024,294.928 -0.037,451.407 -71.873,1.421 -142.494,2.119 -210.844,2.791 -110.64,1.089 -215.133,2.111 -310.403,6.022 -106.826,4.37 -187.317,11.765 -253.327,23.264 -46.002,8.012 -68.417,15.766 -68.417,23.689 l 0.062,-641.756 c 0,-5.051 9.124,-10.032 27.649,-15.057 -37.014,26.22 343.338,34.467 652.315,87.168" /></g></g></g></g></g></g></g></g><g
           transform="translate(1e-4,1570.1178)"
           id="g540"><path
             id="path542"
             style="fill:#283679;fill-opacity:1;fill-rule:nonzero;stroke:none"
             d="m 0,0 c 326.349,-5.093 4139.626,-200.122 4451.875,-224.345 394.229,-30.581 769.95,-76.186 1116.757,-135.549 115.493,-19.763 201.251,-38.817 254.877,-56.628 46.959,-15.601 70.75,-30.752 70.793,-45.055 l 0.648,-213.918 c -0.043,14.303 -23.841,29.451 -70.8,45.048 -53.619,17.816 -139.377,36.87 -254.87,56.636 -346.812,59.367 -722.534,104.967 -1116.762,135.549 C 4140.28,-414.039 326.99,-219.011 0.642,-213.918 L 0,0" /></g><g
           transform="translate(0.6417,1356.1993)"
           id="g544"><path
             id="path546"
             style="fill:#f7cf0d;fill-opacity:1;fill-rule:nonzero;stroke:none"
             d="m 0,0 c 326.349,-5.093 4139.639,-200.121 4451.876,-224.343 394.228,-30.582 769.95,-76.183 1116.763,-135.55 115.493,-19.766 201.251,-38.819 254.87,-56.636 46.959,-15.596 70.757,-30.745 70.8,-45.048 0.222,-71.311 0.432,-142.625 0.648,-213.933 -0.043,14.306 -23.84,29.452 -70.8,45.054 -53.626,17.813 -139.377,36.864 -254.876,56.633 -346.807,59.364 -722.534,104.968 -1116.758,135.547 C 4140.28,-414.053 326.992,-219.028 0.648,-213.929 L 0,0" /></g><g
           transform="translate(1.2899,1142.2701)"
           id="g548"><path
             id="path550"
             style="fill:#d01e27;fill-opacity:1;fill-rule:nonzero;stroke:none"
             d="m 0,0 c 326.344,-5.099 4139.632,-200.124 4451.875,-224.347 394.223,-30.579 769.95,-76.183 1116.758,-135.546 115.499,-19.77 201.25,-38.821 254.876,-56.633 46.96,-15.603 70.757,-30.748 70.8,-45.055 l 0.647,-213.896 c -0.042,14.303 -23.84,29.453 -70.806,45.055 -53.619,17.812 -139.377,36.862 -254.869,56.632 -346.807,59.357 -722.535,104.969 -1116.758,135.544 C 4140.28,-414.02 326.991,-218.992 0.642,-213.896 L 0,0" /></g><g
           id="g552"><g
             id="g554" /><g
             mask="url(#mask602)"
             id="g630"><g
               id="g632" /><g
               id="g666"><g
                 id="g664"
                 clip-path="url(#clipPath636)"><g
                   id="g662"><g
                     id="g660"><g
                       id="g658"><g
                         id="g656"><path
                           id="path654"
                           style="fill:url(#linearGradient652);stroke:none"
                           d="m 5895.599,680.689 c -0.216,71.309 -0.426,142.622 -0.649,213.934 l -0.648,213.918 c -0.043,14.302 -23.834,29.454 -70.793,45.054 -53.626,17.812 -139.384,36.866 -254.877,56.629 -346.807,59.363 -722.528,104.968 -1116.757,135.549 C 4139.626,1369.996 326.349,1565.025 0,1570.118 L 0.642,1356.199 1.29,1142.27 1.932,928.374 c 326.349,-5.096 4139.638,-200.124 4451.881,-224.35 394.223,-30.575 769.951,-76.186 1116.758,-135.544 115.492,-19.769 201.25,-38.82 254.869,-56.632 46.966,-15.602 70.764,-30.752 70.806,-45.055 z" /></g></g></g></g></g></g></g></g><g
           transform="translate(5097.0107,940.8845)"
           id="g668"><path
             id="path670"
             style="fill:#283679;fill-opacity:1;fill-rule:nonzero;stroke:none"
             d="m 0,0 c 0,0.166 0.013,0.336 0.032,0.505 2.425,19.385 145.247,37.237 310.619,57.904 108.117,13.517 230.66,28.829 323.83,46.299 106.833,20.028 160.063,40.069 162.711,61.274 0.076,0.559 0.106,1.121 0.099,1.686 0.217,-71.312 0.433,-142.615 0.648,-213.92 -8.95,-42.303 -160.125,-68.442 -474.46,-107.731 C 143.371,-176.496 1.111,-194.278 0.642,-213.919 L 0,0" /></g><g
           transform="translate(5097.6528,726.9655)"
           id="g672"><path
             id="path674"
             style="fill:#f7cf0d;fill-opacity:1;fill-rule:nonzero;stroke:none"
             d="M 0,0 C 12.106,19.489 92.677,31.166 319.868,59.559 532.303,86.116 796.699,119.161 797.297,167.667 797.513,96.354 797.73,25.045 797.946,-46.264 788.995,-88.565 637.821,-114.708 323.485,-153.997 143.377,-176.511 1.118,-194.292 0.648,-213.936 L 0,0" /></g><g
           transform="translate(5098.3013,513.03)"
           id="g676"><path
             id="path678"
             style="fill:#d01e27;fill-opacity:1;fill-rule:nonzero;stroke:none"
             d="M 0,0 C 12.1,19.498 92.677,31.168 319.861,59.567 532.297,86.118 796.686,119.163 797.297,167.672 797.513,96.368 797.73,25.073 797.945,-46.224 788.989,-88.526 637.814,-114.666 323.478,-153.958 143.372,-176.471 1.111,-194.256 0.648,-213.896 L 0,0" /></g><g
           id="g680"><g
             id="g682" /><g
             mask="url(#mask736)"
             id="g772"><g
               id="g774" /><g
               id="g810"><g
                 id="g808"
                 clip-path="url(#clipPath778)"><g
                   id="g806"><g
                     id="g804"><g
                       id="g802"><g
                         id="g800"><path
                           id="path798"
                           style="fill:url(#linearGradient796);stroke:none"
                           d="m 5097.653,726.966 0.648,-213.936 m 0,0 0.648,-213.896 c 0.464,19.64 142.724,37.425 322.83,59.938 314.336,39.292 465.511,65.432 474.467,107.734 -0.215,71.297 -0.432,142.592 -0.647,213.896 -0.216,71.308 -0.433,142.617 -0.649,213.931 -0.129,-10.709 0,0 0,0 -0.216,71.304 -0.431,142.608 -0.648,213.919 0.01,-0.564 -0.024,-1.127 -0.099,-1.685 -2.648,-21.205 -55.878,-41.246 -162.711,-61.275 -93.171,-17.469 -215.714,-32.782 -323.83,-46.298 -165.372,-20.667 -308.194,-38.52 -310.62,-57.905 -0.019,-0.169 -0.031,-0.339 -0.031,-0.505 l 0.642,-213.918" /></g></g></g></g></g></g></g></g></g></g></g></svg>