<?xml version="1.0" encoding="UTF-8" standalone="no"?>
<svg
   xmlns:dc="http://purl.org/dc/elements/1.1/"
   xmlns:cc="http://creativecommons.org/ns#"
   xmlns:rdf="http://www.w3.org/1999/02/22-rdf-syntax-ns#"
   xmlns:svg="http://www.w3.org/2000/svg"
   xmlns="http://www.w3.org/2000/svg"
   viewBox="0 0 449.67999 277.65332"
   height="277.65332"
   width="449.67999"
   xml:space="preserve"
   id="svg2"
   version="1.1"><metadata
     id="metadata8"><rdf:RDF><cc:Work
         rdf:about=""><dc:format>image/svg+xml</dc:format><dc:type
           rdf:resource="http://purl.org/dc/dcmitype/StillImage" /></cc:Work></rdf:RDF></metadata><defs
     id="defs6" /><g
     transform="matrix(1.3333333,0,0,-1.3333333,0,277.65333)"
     id="g10"><g
       transform="scale(0.1)"
       id="g12"><path
         id="path14"
         style="fill:#d22524;fill-opacity:1;fill-rule:nonzero;stroke:none"
         d="m 2095.28,0 134.18,328.672 494.66,209.199 -246.68,398.188 262.32,642.541 h 628.3 L 2723.58,265.73 2095.28,0" /><path
         id="path16"
         style="fill:#fab919;fill-opacity:1;fill-rule:nonzero;stroke:none"
         d="m 2095.82,272.148 -330.2,669.141 312.65,636.901 h 1.36 L 2477.44,936.059 2229.46,328.672 2095.82,272.148" /><path
         id="path18"
         style="fill:#de341e;fill-opacity:1;fill-rule:nonzero;stroke:none"
         d="M 2229.46,328.672 2477.44,936.059 2724.12,537.871 2229.46,328.672" /><path
         id="path20"
         style="fill:#fdd516;fill-opacity:1;fill-rule:nonzero;stroke:none"
         d="m 805.684,0 134.183,328.672 494.663,209.199 -246.69,398.199 262.33,642.53 h 628.3 l -0.2,-0.41 H 1451.33 L 1765.62,941.289 1433.98,265.73 805.684,0" /><path
         id="path22"
         style="fill:#fab50d;fill-opacity:1;fill-rule:nonzero;stroke:none"
         d="m 1765.62,941.289 -314.29,636.901 h 626.94 L 1765.62,941.289" /><path
         id="path24"
         style="fill:#292753;fill-opacity:1;fill-rule:nonzero;stroke:none"
         d="M 806.223,272.148 161.738,1578.19 H 790.043 L 1187.84,936.07 939.867,328.672 806.223,272.148" /><path
         id="path26"
         style="fill:#2c292e;fill-opacity:1;fill-rule:nonzero;stroke:none"
         d="M 939.867,328.672 1187.84,936.07 1434.53,537.871 939.867,328.672" /><path
         id="path28"
         style="fill:#231f20;fill-opacity:1;fill-rule:nonzero;stroke:none"
         d="M 553.531,2078.06 415.316,1754.65 h -55.742 l -82.926,188.19 -85,-188.19 H 135.445 L 0,2078.06 h 99.7422 l 66.3358,-176.9 76.016,176.9 h 68.879 l 74.632,-176.9 69.336,176.9 h 98.59" /><path
         id="path30"
         style="fill:#231f20;fill-opacity:1;fill-rule:nonzero;stroke:none"
         d="m 841.234,1918.66 c 0,11.98 -1.765,22.92 -5.296,32.82 -3.536,9.91 -8.868,18.51 -16.012,25.81 -7.137,7.28 -15.856,12.97 -26.141,17.04 -10.289,4.07 -22.191,6.1 -35.703,6.1 -25.801,0 -46.07,-7.52 -60.816,-22.57 -14.743,-15.06 -22.11,-34.79 -22.11,-59.2 0,-24.42 7.407,-44.19 22.227,-59.32 14.82,-15.12 35.051,-22.69 60.699,-22.69 17.656,0 32.711,3.49 45.145,10.49 12.441,6.99 21.886,16.66 28.336,29.02 6.449,12.36 9.671,26.53 9.671,42.5 z m 98.129,0 c 0,-29.79 -6.875,-57.21 -20.613,-82.23 -13.746,-25.04 -34.207,-44.92 -61.391,-59.66 -27.179,-14.75 -60.273,-22.12 -99.277,-22.12 -39.469,0 -72.871,7.68 -100.207,23.03 -27.332,15.36 -47.645,35.55 -60.926,60.59 -13.281,25.03 -19.922,51.83 -19.922,80.39 0,28.72 6.602,55.55 19.809,80.51 13.203,24.95 33.516,45.07 60.93,60.35 27.41,15.28 60.847,22.92 100.316,22.92 29.481,0 55.781,-4.38 78.891,-13.13 23.109,-8.76 42.113,-20.61 57.011,-35.59 14.899,-14.97 26.184,-32.4 33.864,-52.29 7.679,-19.89 11.515,-40.81 11.515,-62.77" /><path
         id="path32"
         style="fill:#231f20;fill-opacity:1;fill-rule:nonzero;stroke:none"
         d="m 1177.54,1977.17 c 0,14.74 -4.83,25.03 -14.51,30.87 -9.67,5.83 -25.41,8.75 -47.22,8.75 h -20.27 v -76.94 h 20.73 c 23.5,0 39.58,2.57 48.26,7.72 8.68,5.14 13.01,15.01 13.01,29.6 z m 130.84,-218.37 h -103.42 l -25.11,56.66 c -9.22,20.74 -17.51,35.9 -24.88,45.5 -7.37,9.59 -14.55,15.74 -21.54,18.42 -6.98,2.69 -16,4.04 -27.06,4.04 h -10.83 V 1758.8 h -96.282 v 319.26 h 163.772 c 26.41,0 48.07,-5.38 64.96,-16.12 16.89,-10.76 29.06,-23.81 36.51,-39.16 7.45,-15.36 11.17,-29.95 11.17,-43.77 0,-16.12 -3.11,-29.75 -9.32,-40.88 -6.22,-11.14 -12.79,-19.24 -19.7,-24.31 -6.91,-5.07 -14.67,-9.9 -23.27,-14.51 10.29,-5.99 18.78,-13.1 25.46,-21.31 6.68,-8.21 15.78,-24.84 27.3,-49.87 l 32.24,-69.33" /><path
         id="path34"
         style="fill:#231f20;fill-opacity:1;fill-rule:nonzero;stroke:none"
         d="m 1594.71,1758.8 h -242.56 v 319.26 h 96.29 v -242.79 h 146.27 v -76.47" /><path
         id="path36"
         style="fill:#231f20;fill-opacity:1;fill-rule:nonzero;stroke:none"
         d="m 1881.04,1916.82 c 0,25.95 -4.96,46.18 -14.86,60.69 -9.91,14.51 -21.8,24.23 -35.71,29.14 -13.9,4.92 -28.06,7.38 -42.5,7.38 h -40.99 v -189.12 h 40.99 c 25.18,0 47,5.99 65.43,17.97 18.42,11.97 27.64,36.62 27.64,73.94 z m 97.89,-4.15 c 0,-32.71 -5.96,-58.97 -17.85,-78.78 -11.9,-19.81 -25.92,-35.86 -42.03,-48.14 -22.89,-17.97 -54.9,-26.95 -96.06,-26.95 h -172.3 v 319.26 h 132.67 c 19.97,0 37.06,-1.04 51.25,-3.11 14.2,-2.07 27,-4.99 38.36,-8.75 11.37,-3.77 21.04,-7.99 29.03,-12.67 7.99,-4.69 15.11,-9.71 21.42,-15.09 10.9,-8.9 20.47,-19.43 28.67,-31.56 8.23,-12.13 14.75,-26.18 19.59,-42.15 4.83,-15.97 7.25,-33.32 7.25,-52.06" /><path
         id="path38"
         style="fill:#231f20;fill-opacity:1;fill-rule:nonzero;stroke:none"
         d="m 2356.7,1977.17 c 0,15.2 -4.49,25.6 -13.47,31.21 -8.99,5.6 -25.07,8.41 -48.25,8.41 h -20.28 v -76.94 h 20.73 c 15.97,0 28.26,1 36.86,2.99 8.59,2 14.81,5.68 18.66,11.07 3.83,5.37 5.75,13.13 5.75,23.26 z m 98.14,0.46 c 0,-11.83 -2.04,-23.38 -6.1,-34.67 -4.08,-11.29 -10.65,-21.8 -19.7,-31.55 -9.06,-9.76 -21.31,-17.67 -36.74,-23.73 -15.44,-6.07 -33.6,-9.1 -54.48,-9.1 H 2274.7 V 1758.8 h -96.29 v 319.26 h 159.41 c 20.88,0 39.04,-3.07 54.48,-9.21 15.43,-6.15 27.68,-14.14 36.74,-23.96 9.05,-9.83 15.62,-20.5 19.7,-32.01 4.06,-11.52 6.1,-23.27 6.1,-35.25" /><path
         id="path40"
         style="fill:#231f20;fill-opacity:1;fill-rule:nonzero;stroke:none"
         d="m 2671.6,1879.04 -46.76,116.56 -47.22,-116.56 z m 146.73,-120.24 h -98.59 l -26.02,64.72 h -138.68 l -26.49,-64.72 h -98.58 l 141.2,319.26 h 106.42 l 140.74,-319.26" /><path
         id="path42"
         style="fill:#231f20;fill-opacity:1;fill-rule:nonzero;stroke:none"
         d="m 3083.93,1851.63 c 0,-19.97 -5.11,-37.24 -15.32,-51.83 -10.22,-14.59 -24.45,-25.76 -42.73,-33.52 -18.28,-7.75 -39.23,-11.63 -62.89,-11.63 -6.6,0 -14.7,0.43 -24.29,1.27 -9.6,0.85 -22.35,3.19 -38.25,7.02 -15.88,3.84 -32.44,9.52 -49.63,17.05 v 78.32 c 16.12,-9.99 31.98,-18.28 47.56,-24.88 15.59,-6.61 32.29,-9.91 50.1,-9.91 16.44,0 27.07,2.73 31.91,8.18 4.83,5.45 7.25,10.56 7.25,15.32 0,8.6 -4.14,15.86 -12.44,21.77 -8.29,5.91 -20.34,12.01 -36.16,18.31 -17.51,7.37 -32.86,15.39 -46.07,24.08 -13.21,8.67 -24,19.53 -32.37,32.59 -8.37,13.05 -12.55,28.48 -12.55,46.3 0,17.2 4.22,32.75 12.67,46.64 8.45,13.9 21.35,25 38.7,33.29 17.35,8.29 38.54,12.44 63.57,12.44 17.82,0 34.29,-1.73 49.42,-5.19 15.12,-3.45 27.59,-7.33 37.43,-11.62 9.82,-4.31 16.58,-7.69 20.27,-10.14 v -74.86 c -13.05,9.36 -27.61,17.73 -43.65,25.1 -16.05,7.38 -33.21,11.06 -51.48,11.06 -11.99,0 -20.66,-2.31 -26.04,-6.91 -5.37,-4.61 -8.06,-10.29 -8.06,-17.05 0,-6.3 2.69,-11.75 8.06,-16.35 5.38,-4.61 14.98,-10.22 28.8,-16.82 24.57,-11.52 44.23,-21.88 58.96,-31.1 14.75,-9.21 26.3,-19.85 34.67,-31.9 8.37,-12.06 12.56,-27.07 12.56,-45.03" /><path
         id="path44"
         style="fill:#231f20;fill-opacity:1;fill-rule:nonzero;stroke:none"
         d="m 3372.56,1851.63 c 0,-19.97 -5.1,-37.24 -15.32,-51.83 -10.21,-14.59 -24.45,-25.76 -42.72,-33.52 -18.28,-7.75 -39.24,-11.63 -62.89,-11.63 -6.61,0 -14.71,0.43 -24.3,1.27 -9.6,0.85 -22.34,3.19 -38.24,7.02 -15.89,3.84 -32.44,9.52 -49.64,17.05 v 78.32 c 16.12,-9.99 31.98,-18.28 47.57,-24.88 15.58,-6.61 32.28,-9.91 50.09,-9.91 16.44,0 27.07,2.73 31.91,8.18 4.83,5.45 7.25,10.56 7.25,15.32 0,8.6 -4.14,15.86 -12.44,21.77 -8.29,5.91 -20.34,12.01 -36.16,18.31 -17.51,7.37 -32.86,15.39 -46.06,24.08 -13.22,8.67 -24.01,19.53 -32.38,32.59 -8.37,13.05 -12.55,28.48 -12.55,46.3 0,17.2 4.22,32.75 12.67,46.64 8.45,13.9 21.35,25 38.7,33.29 17.36,8.29 38.55,12.44 63.58,12.44 17.81,0 34.28,-1.73 49.41,-5.19 15.13,-3.45 27.6,-7.33 37.43,-11.62 9.83,-4.31 16.58,-7.69 20.28,-10.14 v -74.86 c -13.06,9.36 -27.61,17.73 -43.66,25.1 -16.05,7.38 -33.21,11.06 -51.48,11.06 -11.98,0 -20.66,-2.31 -26.04,-6.91 -5.37,-4.61 -8.05,-10.29 -8.05,-17.05 0,-6.3 2.68,-11.75 8.05,-16.35 5.38,-4.61 14.98,-10.22 28.8,-16.82 24.57,-11.52 44.23,-21.88 58.97,-31.1 14.74,-9.21 26.3,-19.85 34.66,-31.9 8.37,-12.06 12.56,-27.07 12.56,-45.03" /></g></g></svg>