<?xml version="1.0" encoding="UTF-8" standalone="no"?>
<svg
   xmlns:dc="http://purl.org/dc/elements/1.1/"
   xmlns:cc="http://creativecommons.org/ns#"
   xmlns:rdf="http://www.w3.org/1999/02/22-rdf-syntax-ns#"
   xmlns:svg="http://www.w3.org/2000/svg"
   xmlns="http://www.w3.org/2000/svg"
   viewBox="0 0 449.67319 277.65787"
   height="277.65787"
   width="449.67319"
   xml:space="preserve"
   id="svg2"
   version="1.1"><metadata
     id="metadata8"><rdf:RDF><cc:Work
         rdf:about=""><dc:format>image/svg+xml</dc:format><dc:type
           rdf:resource="http://purl.org/dc/dcmitype/StillImage" /></cc:Work></rdf:RDF></metadata><defs
     id="defs6"><clipPath
       id="clipPath18"
       clipPathUnits="userSpaceOnUse"><path
         id="path16"
         d="M 0,208.244 H 337.255 V 0 H 0 Z" /></clipPath><clipPath
       id="clipPath26"
       clipPathUnits="userSpaceOnUse"><path
         id="path24"
         d="M 16.1737,157.86 H 336.806 V 0 H 16.1737 Z" /></clipPath><clipPath
       id="clipPath30"
       clipPathUnits="userSpaceOnUse"><path
         id="path28"
         d="M 209.528,157.86 H 336.806 V 0 H 209.528 Z" /></clipPath><clipPath
       id="clipPath34"
       clipPathUnits="userSpaceOnUse"><path
         id="path32"
         d="M 145.133,157.818 H 272.412 V 27.2149 H 145.133 Z" /></clipPath><clipPath
       id="clipPath38"
       clipPathUnits="userSpaceOnUse"><path
         id="path36"
         d="M 80.5682,157.86 H 207.847 V 0 H 80.5682 Z" /></clipPath><clipPath
       id="clipPath42"
       clipPathUnits="userSpaceOnUse"><path
         id="path40"
         d="M 16.1737,157.818 H 143.453 V 27.2149 H 16.1737 Z" /></clipPath><clipPath
       id="clipPath102"
       clipPathUnits="userSpaceOnUse"><path
         id="path100"
         d="M 209.528,157.86 H 336.806 V 0 H 209.528 Z" /></clipPath><clipPath
       id="clipPath118"
       clipPathUnits="userSpaceOnUse"><path
         id="path116"
         d="M 145.133,157.818 H 272.412 V 27.2149 H 145.133 Z" /></clipPath><clipPath
       id="clipPath134"
       clipPathUnits="userSpaceOnUse"><path
         id="path132"
         d="M 80.5682,157.86 H 207.847 V 0 H 80.5682 Z" /></clipPath><clipPath
       id="clipPath150"
       clipPathUnits="userSpaceOnUse"><path
         id="path148"
         d="M 16.1737,157.818 H 143.453 V 27.2149 H 16.1737 Z" /></clipPath><clipPath
       id="clipPath170"
       clipPathUnits="userSpaceOnUse"><path
         id="path168"
         d="M 0,208.244 H 337.255 V 0 H 0 Z" /></clipPath></defs><g
     transform="matrix(1.3333333,0,0,-1.3333333,-1.3333333e-4,277.65853)"
     id="g10"><g
       id="g12"><g
         clip-path="url(#clipPath18)"
         id="g14"><g
           id="g20"><g
             id="g22" /><g
             id="g94"><g
               style="opacity:0.69999701"
               id="g92"
               clip-path="url(#clipPath26)"><g
                 id="g54"><g
                   id="g44" /><g
                   id="g52"><g
                     style="opacity:0.88999897"
                     id="g50"
                     clip-path="url(#clipPath30)"><g
                       id="g48"
                       transform="translate(336.8062,157.8595)"><path
                         id="path46"
                         style="fill:#d91920;fill-opacity:1;fill-rule:nonzero;stroke:none"
                         d="m 0,0 h -62.83 l -64.448,-157.859 62.83,26.572 z" /></g></g></g></g><g
                 id="g66"><g
                   id="g56" /><g
                   id="g64"><g
                     style="opacity:0.88999897"
                     id="g62"
                     clip-path="url(#clipPath34)"><g
                       id="g60"
                       transform="translate(145.1328,157.8185)"><path
                         id="path58"
                         style="fill:#fbc707;fill-opacity:1;fill-rule:nonzero;stroke:none"
                         d="m 0,0 h 62.831 l 64.448,-104.031 -62.83,-26.573 z" /></g></g></g></g><g
                 id="g78"><g
                   id="g68" /><g
                   id="g76"><g
                     style="opacity:0.88999897"
                     id="g74"
                     clip-path="url(#clipPath38)"><g
                       id="g72"
                       transform="translate(207.8472,157.8595)"><path
                         id="path70"
                         style="fill:#fddd04;fill-opacity:1;fill-rule:nonzero;stroke:none"
                         d="m 0,0 h -62.831 l -64.448,-157.859 62.83,26.572 z" /></g></g></g></g><g
                 id="g90"><g
                   id="g80" /><g
                   id="g88"><g
                     style="opacity:0.88999897"
                     id="g86"
                     clip-path="url(#clipPath42)"><g
                       id="g84"
                       transform="translate(16.1738,157.8185)"><path
                         id="path82"
                         style="fill:#24265d;fill-opacity:1;fill-rule:nonzero;stroke:none"
                         d="m 0,0 h 62.831 l 64.448,-104.031 -62.831,-26.573 z" /></g></g></g></g></g></g></g><g
           id="g96"><g
             id="g98" /><g
             id="g110"><g
               style="opacity:0.80000299"
               id="g108"
               clip-path="url(#clipPath102)"><g
                 id="g106"
                 transform="translate(336.8062,157.8595)"><path
                   id="path104"
                   style="fill:#d91920;fill-opacity:1;fill-rule:nonzero;stroke:none"
                   d="m 0,0 h -62.83 l -64.448,-157.859 62.83,26.572 z" /></g></g></g></g><g
           id="g112"><g
             id="g114" /><g
             id="g126"><g
               style="opacity:0.80000299"
               id="g124"
               clip-path="url(#clipPath118)"><g
                 id="g122"
                 transform="translate(145.1328,157.8185)"><path
                   id="path120"
                   style="fill:#fbc707;fill-opacity:1;fill-rule:nonzero;stroke:none"
                   d="m 0,0 h 62.831 l 64.448,-104.031 -62.83,-26.573 z" /></g></g></g></g><g
           id="g128"><g
             id="g130" /><g
             id="g142"><g
               style="opacity:0.80000299"
               id="g140"
               clip-path="url(#clipPath134)"><g
                 id="g138"
                 transform="translate(207.8472,157.8595)"><path
                   id="path136"
                   style="fill:#fddd04;fill-opacity:1;fill-rule:nonzero;stroke:none"
                   d="m 0,0 h -62.831 l -64.448,-157.859 62.83,26.572 z" /></g></g></g></g><g
           id="g144"><g
             id="g146" /><g
             id="g158"><g
               style="opacity:0.80000299"
               id="g156"
               clip-path="url(#clipPath150)"><g
                 id="g154"
                 transform="translate(16.1738,157.8185)"><path
                   id="path152"
                   style="fill:#24265d;fill-opacity:1;fill-rule:nonzero;stroke:none"
                   d="m 0,0 h 62.831 l 64.448,-104.031 -62.831,-26.573 z" /></g></g></g></g></g></g><g
       transform="translate(45.4941,207.8055)"
       id="g160"><path
         id="path162"
         style="fill:#ffffff;fill-opacity:1;fill-rule:nonzero;stroke:none"
         d="M 0,0 -6.934,-17.69 -14.397,0 h -6.888 L -28.886,-17.69 -35.52,0 h -9.974 l 13.544,-32.341 h 5.621 l 8.5,18.819 8.293,-18.819 h 5.573 L 9.859,0 Z" /></g><g
       id="g164"><g
         clip-path="url(#clipPath170)"
         id="g166"><g
           transform="translate(84.1235,191.8659)"
           id="g172"><path
             id="path174"
             style="fill:#ffffff;fill-opacity:1;fill-rule:nonzero;stroke:none"
             d="m 0,0 c 0,1.198 -0.177,2.292 -0.53,3.282 -0.353,0.991 -0.887,1.851 -1.601,2.58 -0.714,0.729 -1.585,1.298 -2.614,1.705 -1.029,0.407 -2.219,0.61 -3.57,0.61 -2.581,0 -4.607,-0.752 -6.082,-2.257 -1.474,-1.505 -2.211,-3.479 -2.211,-5.92 0,-2.442 0.741,-4.419 2.223,-5.932 1.482,-1.512 3.505,-2.269 6.07,-2.269 1.765,0 3.271,0.349 4.514,1.049 1.244,0.698 2.189,1.666 2.834,2.902 C -0.322,-3.014 0,-1.597 0,0 m 9.813,0 c 0,-2.979 -0.688,-5.721 -2.062,-8.224 -1.374,-2.503 -3.42,-4.491 -6.139,-5.965 -2.717,-1.475 -6.027,-2.212 -9.927,-2.212 -3.947,0 -7.288,0.768 -10.021,2.303 -2.733,1.536 -4.765,3.556 -6.093,6.059 -1.328,2.503 -1.992,5.183 -1.992,8.039 0,2.872 0.66,5.555 1.981,8.051 1.32,2.495 3.352,4.507 6.093,6.035 2.741,1.528 6.085,2.292 10.032,2.292 2.948,0 5.578,-0.438 7.889,-1.313 C 1.885,14.189 3.785,13.003 5.275,11.506 6.765,10.009 7.893,8.266 8.661,6.277 9.429,4.288 9.813,2.196 9.813,0" /></g><g
           transform="translate(117.7544,197.7165)"
           id="g176"><path
             id="path178"
             style="fill:#ffffff;fill-opacity:1;fill-rule:nonzero;stroke:none"
             d="M 0,0 C 0,1.475 -0.483,2.503 -1.451,3.087 -2.418,3.67 -3.993,3.962 -6.173,3.962 H -8.2 v -7.693 h 2.073 c 2.35,0 3.958,0.256 4.826,0.771 C -0.434,-2.445 0,-1.459 0,0 M 13.084,-21.837 H 2.741 L 0.23,-16.17 c -0.921,2.073 -1.75,3.589 -2.487,4.549 -0.737,0.96 -1.455,1.574 -2.154,1.843 -0.699,0.268 -1.601,0.403 -2.707,0.403 H -8.2 v -12.462 h -9.629 V 10.089 H -1.451 C 1.19,10.089 3.355,9.552 5.045,8.477 6.734,7.402 7.951,6.097 8.696,4.561 9.44,3.025 9.813,1.566 9.813,0.185 9.813,-1.428 9.502,-2.791 8.88,-3.904 8.258,-5.018 7.602,-5.828 6.911,-6.334 6.22,-6.841 5.444,-7.325 4.584,-7.786 c 1.029,-0.598 1.877,-1.309 2.545,-2.131 0.668,-0.821 1.579,-2.483 2.73,-4.986 z" /></g><g
           transform="translate(159.4707,175.8796)"
           id="g180"><path
             id="path182"
             style="fill:#ffffff;fill-opacity:1;fill-rule:nonzero;stroke:none"
             d="m 0,0 h -24.255 v 31.926 h 9.628 V 7.647 H 0 Z" /></g><g
           transform="translate(188.104,191.6813)"
           id="g184"><path
             id="path186"
             style="fill:#ffffff;fill-opacity:1;fill-rule:nonzero;stroke:none"
             d="m 0,0 c 0,2.595 -0.496,4.619 -1.486,6.07 -0.991,1.451 -2.18,2.422 -3.571,2.914 -1.39,0.491 -2.806,0.737 -4.25,0.737 h -4.099 V -9.191 h 4.099 c 2.518,0 4.7,0.599 6.543,1.797 C -0.922,-6.196 0,-3.731 0,0 m 9.789,-0.415 c 0,-3.271 -0.596,-5.897 -1.785,-7.877 -1.19,-1.981 -2.592,-3.586 -4.203,-4.814 -2.289,-1.797 -5.49,-2.696 -9.606,-2.696 h -17.23 v 31.927 h 13.267 c 1.997,0 3.706,-0.104 5.125,-0.311 1.42,-0.208 2.7,-0.5 3.836,-0.876 C 0.33,14.562 1.297,14.14 2.096,13.671 2.895,13.203 3.607,12.7 4.238,12.163 5.328,11.272 6.285,10.22 7.105,9.007 7.928,7.793 8.58,6.389 9.064,4.792 9.547,3.194 9.789,1.459 9.789,-0.415" /></g><g
           transform="translate(235.6704,197.7165)"
           id="g188"><path
             id="path190"
             style="fill:#ffffff;fill-opacity:1;fill-rule:nonzero;stroke:none"
             d="m 0,0 c 0,1.521 -0.449,2.561 -1.348,3.122 -0.898,0.56 -2.506,0.84 -4.825,0.84 H -8.2 v -7.693 h 2.073 c 1.597,0 2.825,0.099 3.686,0.299 0.859,0.2 1.481,0.568 1.866,1.106 C -0.192,-1.789 0,-1.013 0,0 M 9.813,0.046 C 9.813,-1.136 9.609,-2.292 9.203,-3.42 8.796,-4.549 8.139,-5.601 7.233,-6.576 6.327,-7.552 5.103,-8.342 3.56,-8.949 2.016,-9.556 0.199,-9.859 -1.889,-9.859 H -8.2 v -11.978 h -9.629 v 31.926 h 15.94 C 0.199,10.089 2.016,9.782 3.56,9.168 5.103,8.554 6.327,7.755 7.233,6.772 8.139,5.79 8.796,4.722 9.203,3.571 9.609,2.419 9.813,1.244 9.813,0.046" /></g><g
           transform="translate(267.1587,187.904)"
           id="g192"><path
             id="path194"
             style="fill:#ffffff;fill-opacity:1;fill-rule:nonzero;stroke:none"
             d="M 0,0 -4.676,11.656 -9.397,0 Z m 14.674,-12.024 h -9.86 l -2.602,6.472 h -13.867 l -2.65,-6.472 h -9.858 l 14.12,31.926 H 0.6 Z" /></g><g
           transform="translate(308.3921,185.1628)"
           id="g196"><path
             id="path198"
             style="fill:#ffffff;fill-opacity:1;fill-rule:nonzero;stroke:none"
             d="m 0,0 c 0,-1.997 -0.511,-3.724 -1.532,-5.183 -1.022,-1.459 -2.446,-2.576 -4.273,-3.352 -1.828,-0.775 -3.924,-1.163 -6.289,-1.163 -0.66,0 -1.47,0.043 -2.429,0.127 -0.96,0.085 -2.235,0.319 -3.825,0.702 -1.589,0.384 -3.244,0.952 -4.964,1.705 v 7.832 c 1.613,-0.999 3.199,-1.828 4.757,-2.488 1.559,-0.66 3.229,-0.991 5.01,-0.991 1.644,0 2.707,0.273 3.191,0.818 0.483,0.545 0.725,1.056 0.725,1.532 0,0.86 -0.414,1.586 -1.244,2.177 -0.829,0.591 -2.034,1.201 -3.616,1.831 -1.751,0.737 -3.286,1.539 -4.607,2.408 -1.321,0.867 -2.4,1.953 -3.237,3.259 -0.837,1.305 -1.255,2.849 -1.255,4.63 0,1.719 0.422,3.275 1.267,4.664 0.844,1.39 2.134,2.5 3.87,3.329 1.735,0.83 3.854,1.244 6.357,1.244 1.781,0 3.429,-0.173 4.942,-0.519 1.512,-0.345 2.759,-0.733 3.743,-1.163 0.982,-0.43 1.658,-0.768 2.027,-1.013 v -7.487 c -1.306,0.937 -2.761,1.774 -4.365,2.511 -1.606,0.737 -3.321,1.106 -5.149,1.106 -1.198,0 -2.065,-0.23 -2.603,-0.691 -0.537,-0.461 -0.806,-1.029 -0.806,-1.705 0,-0.63 0.269,-1.175 0.806,-1.635 0.538,-0.461 1.498,-1.022 2.88,-1.682 2.457,-1.152 4.423,-2.188 5.896,-3.11 1.475,-0.921 2.63,-1.985 3.467,-3.19 C -0.419,3.297 0,1.796 0,0" /></g><g
           transform="translate(337.2554,185.1628)"
           id="g200"><path
             id="path202"
             style="fill:#ffffff;fill-opacity:1;fill-rule:nonzero;stroke:none"
             d="m 0,0 c 0,-1.997 -0.511,-3.724 -1.532,-5.183 -1.022,-1.459 -2.446,-2.576 -4.273,-3.352 -1.828,-0.775 -3.924,-1.163 -6.289,-1.163 -0.66,0 -1.47,0.043 -2.429,0.127 -0.96,0.085 -2.235,0.319 -3.825,0.702 -1.589,0.384 -3.244,0.952 -4.964,1.705 v 7.832 c 1.613,-0.999 3.199,-1.828 4.757,-2.488 1.559,-0.66 3.229,-0.991 5.01,-0.991 1.644,0 2.707,0.273 3.191,0.818 0.483,0.545 0.725,1.056 0.725,1.532 0,0.86 -0.414,1.586 -1.244,2.177 -0.829,0.591 -2.034,1.201 -3.616,1.831 -1.751,0.737 -3.286,1.539 -4.607,2.408 -1.321,0.867 -2.4,1.953 -3.237,3.259 -0.837,1.305 -1.255,2.849 -1.255,4.63 0,1.719 0.422,3.275 1.267,4.664 0.844,1.39 2.134,2.5 3.87,3.329 1.735,0.83 3.854,1.244 6.357,1.244 1.781,0 3.429,-0.173 4.942,-0.519 1.512,-0.345 2.759,-0.733 3.743,-1.163 0.982,-0.43 1.658,-0.768 2.027,-1.013 v -7.487 c -1.306,0.937 -2.761,1.774 -4.365,2.511 -1.606,0.737 -3.321,1.106 -5.149,1.106 -1.198,0 -2.065,-0.23 -2.603,-0.691 -0.537,-0.461 -0.806,-1.029 -0.806,-1.705 0,-0.63 0.269,-1.175 0.806,-1.635 0.538,-0.461 1.498,-1.022 2.88,-1.682 2.457,-1.152 4.423,-2.188 5.896,-3.11 1.475,-0.921 2.63,-1.985 3.467,-3.19 C -0.419,3.297 0,1.796 0,0" /></g></g></g></g></svg>