<?xml version="1.0" encoding="UTF-8" standalone="no"?>
<svg
   xmlns:dc="http://purl.org/dc/elements/1.1/"
   xmlns:cc="http://creativecommons.org/ns#"
   xmlns:rdf="http://www.w3.org/1999/02/22-rdf-syntax-ns#"
   xmlns:svg="http://www.w3.org/2000/svg"
   xmlns="http://www.w3.org/2000/svg"
   viewBox="0 0 42.6632 42.666531"
   height="42.666531"
   width="42.6632"
   xml:space="preserve"
   id="svg2"
   version="1.1"><metadata
     id="metadata8"><rdf:RDF><cc:Work
         rdf:about=""><dc:format>image/svg+xml</dc:format><dc:type
           rdf:resource="http://purl.org/dc/dcmitype/StillImage" /></cc:Work></rdf:RDF></metadata><defs
     id="defs6"><clipPath
       id="clipPath18"
       clipPathUnits="userSpaceOnUse"><path
         id="path16"
         d="M 0,32 H 31.998 V 0 H 0 Z" /></clipPath></defs><g
     transform="matrix(1.3333333,0,0,-1.3333333,0,42.666532)"
     id="g10"><g
       id="g12"><g
         clip-path="url(#clipPath18)"
         id="g14"><g
           transform="translate(16.1299,11.6299)"
           id="g20"><path
             id="path22"
             style="fill:#262262;fill-opacity:1;fill-rule:nonzero;stroke:none"
             d="m 0,0 c -0.97,-0.41 -2.029,-0.63 -3.13,-0.63 -4.42,0 -8,3.58 -8,8 0,4.42 3.58,8 8,8 4.42,0 8,-3.58 8,-8 C 4.87,6.26 4.641,5.2 4.24,4.24 3.431,2.34 1.9,0.81 0,0 M 8.638,-0.157 C 8.246,0.233 8.171,0.928 8.425,1.418 9.349,3.2 9.87,5.226 9.87,7.37 c 0,7.18 -5.819,13 -13,13 -7.18,0 -13,-5.82 -13,-13 0,-7.181 5.82,-13 13,-13 2.145,0 4.169,0.522 5.952,1.445 0.491,0.255 1.186,0.178 1.575,-0.212 l 6.353,-6.353 c 0.58,-0.59 1.351,-0.88 2.12,-0.88 0.771,0 1.54,0.29 2.12,0.88 1.17,1.17 1.17,3.07 0,4.24 z" /></g></g></g></g></svg>