<?xml version="1.0" encoding="UTF-8" standalone="no"?>
<svg
   xmlns:dc="http://purl.org/dc/elements/1.1/"
   xmlns:cc="http://creativecommons.org/ns#"
   xmlns:rdf="http://www.w3.org/1999/02/22-rdf-syntax-ns#"
   xmlns:svg="http://www.w3.org/2000/svg"
   xmlns="http://www.w3.org/2000/svg"
   viewBox="0 0 42.666424 42.666267"
   height="42.666267"
   width="42.666424"
   xml:space="preserve"
   id="svg2"
   version="1.1"><metadata
     id="metadata8"><rdf:RDF><cc:Work
         rdf:about=""><dc:format>image/svg+xml</dc:format><dc:type
           rdf:resource="http://purl.org/dc/dcmitype/StillImage" /></cc:Work></rdf:RDF></metadata><defs
     id="defs6"><clipPath
       id="clipPath18"
       clipPathUnits="userSpaceOnUse"><path
         id="path16"
         d="M 0,32 H 32 V 0 H 0 Z" /></clipPath><clipPath
       id="clipPath26"
       clipPathUnits="userSpaceOnUse"><path
         id="path24"
         d="M 0,32 H 32.0002 V 0 H 0 Z" /></clipPath></defs><g
     transform="matrix(1.3333333,0,0,-1.3333333,-2.4317021e-4,42.666266)"
     id="g10"><g
       id="g12"><g
         clip-path="url(#clipPath18)"
         id="g14"><g
           id="g20"><g
             id="g22" /><g
             id="g34"><g
               id="g32"
               clip-path="url(#clipPath26)"><g
                 id="g30"
                 transform="translate(31.9201,5.1827)"><path
                   id="path28"
                   style="fill:#ffffff;fill-opacity:1;fill-rule:nonzero;stroke:none"
                   d="m 0,0 c -0.284,-1.299 -1.759,-4.445 -3.164,-4.77 -1.189,-0.275 -2.427,-0.413 -3.684,-0.413 -6.878,0.01 -14.375,4.111 -19.582,10.72 -4.569,5.812 -6.416,12.39 -5.049,18.045 0.353,1.465 3.929,3.235 5.493,3.235 0.726,0 1.12,-0.314 1.326,-0.58 0.216,-0.285 4.009,-6.068 4.224,-6.441 0.827,-1.426 -0.599,-2.379 -1.463,-2.959 -1.494,-0.994 -2.898,-1.938 -1.602,-4.671 0.021,-0.04 1.436,-3.059 3.725,-5.223 2.201,-2.331 5.198,-3.728 5.227,-3.746 0.698,-0.325 1.297,-0.492 1.809,-0.492 1.148,0 1.749,0.807 2.544,2.045 0.579,0.905 1.178,1.829 2.259,1.829 0.364,0 0.717,-0.107 1.061,-0.334 C -6.816,6.205 -0.783,2.272 -0.5,2.056 0.03,1.651 0.197,0.963 0,0" /></g></g></g></g></g></g></g></svg>