<?xml version="1.0" encoding="UTF-8" standalone="no"?>
<svg
   xmlns:dc="http://purl.org/dc/elements/1.1/"
   xmlns:cc="http://creativecommons.org/ns#"
   xmlns:rdf="http://www.w3.org/1999/02/22-rdf-syntax-ns#"
   xmlns:svg="http://www.w3.org/2000/svg"
   xmlns="http://www.w3.org/2000/svg"
   viewBox="0 0 118.372 118.37187"
   height="118.37186"
   width="118.37199"
   xml:space="preserve"
   id="svg2"
   version="1.1"><metadata
     id="metadata8"><rdf:RDF><cc:Work
         rdf:about=""><dc:format>image/svg+xml</dc:format><dc:type
           rdf:resource="http://purl.org/dc/dcmitype/StillImage" /></cc:Work></rdf:RDF></metadata><defs
     id="defs6"><clipPath
       id="clipPath18"
       clipPathUnits="userSpaceOnUse"><path
         id="path16"
         d="M 0,88.779 H 88.779 V 0 H 0 Z" /></clipPath></defs><g
     transform="matrix(1.3333333,0,0,-1.3333333,0,118.372)"
     id="g10"><g
       id="g12"><g
         clip-path="url(#clipPath18)"
         id="g14"><g
           transform="translate(58.9365,38.8411)"
           id="g20"><path
             id="path22"
             style="fill:#262262;fill-opacity:1;fill-rule:nonzero;stroke:none"
             d="m 0,0 h -14.544 c -2.973,0 -5.549,2.576 -5.549,5.549 v 25.437 c 0,3.002 2.576,5.409 5.549,5.409 2.972,0 5.549,-2.407 5.549,-5.409 V 11.098 H 0 c 2.975,0 5.407,-2.547 5.407,-5.549 C 5.407,2.576 2.972,0 0,0 m -14.547,49.938 c -24.519,0 -44.39,-19.87 -44.39,-44.389 0,-24.517 19.871,-44.39 44.39,-44.39 24.52,0 44.39,19.873 44.39,44.39 0,24.519 -19.867,44.389 -44.39,44.389" /></g></g></g></g></svg>