<?xml version="1.0" encoding="UTF-8" standalone="no"?>
<svg
   xmlns:dc="http://purl.org/dc/elements/1.1/"
   xmlns:cc="http://creativecommons.org/ns#"
   xmlns:rdf="http://www.w3.org/1999/02/22-rdf-syntax-ns#"
   xmlns:svg="http://www.w3.org/2000/svg"
   xmlns="http://www.w3.org/2000/svg"
   viewBox="0 0 77.150398 70.862266"
   height="70.862267"
   width="77.150398"
   xml:space="preserve"
   id="svg2"
   version="1.1"><metadata
     id="metadata8"><rdf:RDF><cc:Work
         rdf:about=""><dc:format>image/svg+xml</dc:format><dc:type
           rdf:resource="http://purl.org/dc/dcmitype/StillImage" /></cc:Work></rdf:RDF></metadata><defs
     id="defs6"><clipPath
       id="clipPath18"
       clipPathUnits="userSpaceOnUse"><path
         id="path16"
         d="M 0,53.147 H 57.863 V 0 H 0 Z" /></clipPath></defs><g
     transform="matrix(1.3333333,0,0,-1.3333333,-4.5556292e-6,70.862265)"
     id="g10"><g
       id="g12"><g
         clip-path="url(#clipPath18)"
         id="g14"><g
           transform="translate(9.1072,30.7394)"
           id="g20"><path
             id="path22"
             style="fill:#ffffff;fill-opacity:1;fill-rule:nonzero;stroke:none"
             d="m 0,0 h 4.944 c -0.025,-0.545 -0.1,-3.085 1.232,-4.157 0,0 -2.155,-12.822 -1.232,-16.955 0.359,-1.692 1.747,-6.084 3.358,-6.046 1.579,0.036 2.805,4.354 3.103,6.046 0.774,4.194 -1.797,16.937 -1.797,16.937 0.391,0.179 1.097,0.942 1.283,4.175 h 5.451 c 5.006,0 9.659,-4.615 9.052,-10.153 l -1.308,-10.451 c -1.022,-5.557 -4.033,-9.987 -9.044,-9.987 H 1.282 c -4.987,0 -8.034,4.591 -9.026,10.111 l -1.307,10.475 C -9.676,-4.554 -4.987,0 0,0" /></g><g
           transform="translate(8.2274,44.1027)"
           id="g24"><path
             id="path26"
             style="fill:#ffffff;fill-opacity:1;fill-rule:nonzero;stroke:none"
             d="m 0,0 c 0,-4.993 4.058,-9.045 9.051,-9.045 4.993,0 9.039,4.052 9.039,9.045 0,5.012 -4.046,9.044 -9.039,9.044 C 4.058,9.044 0,5.012 0,0" /></g><g
           transform="translate(40.9681,17.2658)"
           id="g28"><path
             id="path30"
             style="fill:#ffffff;fill-opacity:1;fill-rule:nonzero;stroke:none"
             d="m 0,0 0.167,12.495 c 6.889,0 12.52,-5.632 12.52,-12.533 z m -0.093,16.646 c -3.085,0 -5.978,-0.831 -8.475,-2.286 0.793,-0.539 1.5,-1.196 2.15,-1.921 2.397,-2.632 3.463,-6.008 3.104,-9.466 V 2.961 2.924 l -1.308,-10.451 -0.03,-0.112 v -0.062 c -0.57,-3.06 -1.623,-5.674 -3.085,-7.712 2.292,-1.159 4.918,-1.853 7.644,-1.853 9.355,0 16.956,7.608 16.956,16.981 0,9.342 -7.601,16.931 -16.956,16.931" /></g><g
           transform="translate(37.0408,38.7062)"
           id="g32"><path
             id="path34"
             style="fill:#ffffff;fill-opacity:1;fill-rule:nonzero;stroke:none"
             d="m 0,0 h 1.753 v -2.887 c 0.762,0.093 1.567,0.168 2.379,0.168 0.78,0 1.561,-0.075 2.329,-0.168 V 0 h 1.747 c 0.96,0 1.741,0.78 1.741,1.766 v 1.176 c 0,0.961 -0.781,1.76 -1.741,1.76 H 0 c -0.998,0 -1.766,-0.799 -1.766,-1.76 V 1.766 C -1.766,0.78 -0.998,0 0,0" /></g><g
           transform="translate(55.1605,29.1603)"
           id="g36"><path
             id="path38"
             style="fill:#ffffff;fill-opacity:1;fill-rule:nonzero;stroke:none"
             d="M 0,0 2.063,1.74 C 2.825,2.36 2.906,3.45 2.305,4.182 L 1.549,5.061 C 0.923,5.811 -0.179,5.897 -0.898,5.284 L -3.376,3.196 C -2.125,2.285 -0.984,1.221 0,0" /></g></g></g></g></svg>