<?xml version="1.0" encoding="UTF-8" standalone="no"?>
<svg
   xmlns:dc="http://purl.org/dc/elements/1.1/"
   xmlns:cc="http://creativecommons.org/ns#"
   xmlns:rdf="http://www.w3.org/1999/02/22-rdf-syntax-ns#"
   xmlns:svg="http://www.w3.org/2000/svg"
   xmlns="http://www.w3.org/2000/svg"
   viewBox="0 0 77.149925 70.862266"
   height="70.862267"
   width="77.149925"
   xml:space="preserve"
   id="svg2"
   version="1.1"><metadata
     id="metadata8"><rdf:RDF><cc:Work
         rdf:about=""><dc:format>image/svg+xml</dc:format><dc:type
           rdf:resource="http://purl.org/dc/dcmitype/StillImage" /></cc:Work></rdf:RDF></metadata><defs
     id="defs6"><clipPath
       id="clipPath18"
       clipPathUnits="userSpaceOnUse"><path
         id="path16"
         d="M 0,53.147 H 57.863 V 0 H 0 Z" /></clipPath></defs><g
     transform="matrix(1.3333333,0,0,-1.3333333,-5.7388295e-5,70.862265)"
     id="g10"><g
       id="g12"><g
         clip-path="url(#clipPath18)"
         id="g14"><g
           transform="translate(9.1074,30.7394)"
           id="g20"><path
             id="path22"
             style="fill:#262262;fill-opacity:1;fill-rule:nonzero;stroke:none"
             d="m 0,0 h 4.944 c -0.025,-0.545 -0.1,-3.085 1.232,-4.157 0,0 -2.155,-12.822 -1.232,-16.955 0.359,-1.692 1.747,-6.084 3.357,-6.046 1.58,0.036 2.806,4.354 3.104,6.046 0.774,4.194 -1.797,16.937 -1.797,16.937 0.391,0.179 1.097,0.942 1.283,4.175 h 5.451 C 21.348,0 26,-4.615 25.393,-10.153 l -1.307,-10.451 c -1.022,-5.557 -4.033,-9.987 -9.044,-9.987 H 1.282 c -4.987,0 -8.035,4.591 -9.026,10.111 l -1.307,10.475 C -9.677,-4.554 -4.987,0 0,0" /></g><g
           transform="translate(8.2275,44.1027)"
           id="g24"><path
             id="path26"
             style="fill:#262262;fill-opacity:1;fill-rule:nonzero;stroke:none"
             d="m 0,0 c 0,-4.993 4.058,-9.045 9.051,-9.045 4.993,0 9.039,4.052 9.039,9.045 0,5.012 -4.046,9.044 -9.039,9.044 C 4.058,9.044 0,5.012 0,0" /></g><g
           transform="translate(40.9678,17.2658)"
           id="g28"><path
             id="path30"
             style="fill:#262262;fill-opacity:1;fill-rule:nonzero;stroke:none"
             d="m 0,0 0.167,12.495 c 6.889,0 12.521,-5.632 12.521,-12.533 z m -0.092,16.646 c -3.085,0 -5.979,-0.831 -8.475,-2.286 0.793,-0.539 1.499,-1.196 2.15,-1.921 2.396,-2.632 3.462,-6.008 3.103,-9.466 V 2.961 2.924 L -4.621,-7.527 -4.652,-7.639 v -0.062 c -0.57,-3.06 -1.623,-5.674 -3.085,-7.712 2.292,-1.159 4.919,-1.853 7.645,-1.853 9.354,0 16.955,7.608 16.955,16.981 0,9.342 -7.601,16.931 -16.955,16.931" /></g><g
           transform="translate(37.0405,38.7062)"
           id="g32"><path
             id="path34"
             style="fill:#262262;fill-opacity:1;fill-rule:nonzero;stroke:none"
             d="m 0,0 h 1.753 v -2.887 c 0.762,0.093 1.567,0.168 2.379,0.168 0.781,0 1.561,-0.075 2.329,-0.168 V 0 h 1.747 c 0.96,0 1.741,0.78 1.741,1.766 v 1.176 c 0,0.961 -0.781,1.76 -1.741,1.76 H 0 c -0.997,0 -1.766,-0.799 -1.766,-1.76 V 1.766 C -1.766,0.78 -0.997,0 0,0" /></g><g
           transform="translate(55.1606,29.1603)"
           id="g36"><path
             id="path38"
             style="fill:#262262;fill-opacity:1;fill-rule:nonzero;stroke:none"
             d="M 0,0 2.063,1.74 C 2.825,2.36 2.905,3.45 2.305,4.182 L 1.549,5.061 C 0.923,5.811 -0.18,5.897 -0.898,5.284 L -3.376,3.196 C -2.125,2.285 -0.984,1.221 0,0" /></g></g></g></g></svg>