<?xml version="1.0" encoding="UTF-8" standalone="no"?>
<svg
   xmlns:dc="http://purl.org/dc/elements/1.1/"
   xmlns:cc="http://creativecommons.org/ns#"
   xmlns:rdf="http://www.w3.org/1999/02/22-rdf-syntax-ns#"
   xmlns:svg="http://www.w3.org/2000/svg"
   xmlns="http://www.w3.org/2000/svg"
   viewBox="0 0 63.999599 46.666397"
   height="46.666397"
   width="63.999599"
   xml:space="preserve"
   id="svg2"
   version="1.1"><metadata
     id="metadata8"><rdf:RDF><cc:Work
         rdf:about=""><dc:format>image/svg+xml</dc:format><dc:type
           rdf:resource="http://purl.org/dc/dcmitype/StillImage" /></cc:Work></rdf:RDF></metadata><defs
     id="defs6"><clipPath
       id="clipPath18"
       clipPathUnits="userSpaceOnUse"><path
         id="path16"
         d="M 0,35 H 48 V 0 H 0 Z" /></clipPath></defs><g
     transform="matrix(1.3333333,0,0,-1.3333333,0,46.666665)"
     id="g10"><g
       id="g12"><g
         clip-path="url(#clipPath18)"
         id="g14"><g
           transform="translate(14.7197,17.4702)"
           id="g20"><path
             id="path22"
             style="fill:#262262;fill-opacity:1;fill-rule:evenodd;stroke:none"
             d="m 0,0 -9.15,9.209 c -0.759,0.761 -0.759,1.991 0,2.75 0.76,0.761 1.991,0.761 2.75,0 L 8.2,-2.66 c 0.59,-0.58 1.561,-0.58 2.141,0 l 14.62,14.619 c 0.759,0.761 1.989,0.761 2.75,0 0.759,-0.759 0.759,-1.989 0,-2.75 L 18.55,0 27.711,-9.15 c 0.759,-0.76 0.759,-1.991 0,-2.75 -0.761,-0.76 -1.991,-0.76 -2.75,0 l -9.151,9.14 c 0,0 -2.86,-2.91 -3.38,-3.43 -0.81,-0.79 -1.93,-1.28 -3.15,-1.28 -1.24,0 -2.36,0.5 -3.17,1.31 -0.53,0.519 -3.37,3.4 -3.37,3.4 L -6.4,-11.9 c -0.759,-0.76 -1.99,-0.76 -2.75,0 -0.759,0.759 -0.759,1.99 0,2.75 z m -14.72,-13.47 c 0,-2.21 1.79,-4 4,-4 h 40 c 2.21,0 4,1.79 4,4 v 27 c 0,2.21 -1.79,4 -4,4 h -40 c -2.21,0 -4,-1.79 -4,-4 z" /></g></g></g></g></svg>