<?xml version="1.0" encoding="UTF-8" standalone="no"?>
<svg
   xmlns:dc="http://purl.org/dc/elements/1.1/"
   xmlns:cc="http://creativecommons.org/ns#"
   xmlns:rdf="http://www.w3.org/1999/02/22-rdf-syntax-ns#"
   xmlns:svg="http://www.w3.org/2000/svg"
   xmlns="http://www.w3.org/2000/svg"
   viewBox="0 0 60.903999 99.694664"
   height="99.694664"
   width="60.903999"
   xml:space="preserve"
   id="svg2"
   version="1.1"><metadata
     id="metadata8"><rdf:RDF><cc:Work
         rdf:about=""><dc:format>image/svg+xml</dc:format><dc:type
           rdf:resource="http://purl.org/dc/dcmitype/StillImage" /></cc:Work></rdf:RDF></metadata><defs
     id="defs6"><clipPath
       id="clipPath18"
       clipPathUnits="userSpaceOnUse"><path
         id="path16"
         d="M 0,74.771 H 45.678 V 0 H 0 Z" /></clipPath></defs><g
     transform="matrix(1.3333333,0,0,-1.3333333,0,99.694664)"
     id="g10"><g
       id="g12"><g
         clip-path="url(#clipPath18)"
         id="g14"><g
           transform="translate(29.8216,30.8503)"
           id="g20"><path
             id="path22"
             style="fill:#262262;fill-opacity:1;fill-rule:nonzero;stroke:none"
             d="m 0,0 0.011,-0.69 c -0.009,-3.219 -3.758,-5.126 -6.99,-5.126 -3.224,-0.003 -6.737,1.899 -6.728,5.118 L -13.723,0.007 -15.028,0 c -0.147,-0.137 -0.293,-0.263 -0.46,-0.378 l -4.298,-27.53 c -0.396,-2.424 0.975,-3.543 2.293,-2.37 L -7.062,-19.701 3.39,-30.27 c 1.366,-1.382 2.724,-0.177 2.323,2.354 L 1.531,-0.384 C 1.377,-0.25 1.223,-0.126 1.078,0.018 Z" /></g><g
           transform="translate(22.846,62.5451)"
           id="g24"><path
             id="path26"
             style="fill:#262262;fill-opacity:1;fill-rule:nonzero;stroke:none"
             d="m 0,0 c -5.878,0.01 -10.631,-4.743 -10.612,-10.612 0.002,-5.865 4.747,-10.61 10.617,-10.617 5.865,-0.014 10.617,4.739 10.612,10.612 C 10.622,-4.745 5.872,0.005 0,0 m 16.988,-16.444 -2.884,-0.013 2.038,-2.037 c 2.28,-2.28 2.288,-5.999 0.015,-8.271 -1.106,-1.107 -2.573,-1.708 -4.14,-1.712 -1.557,0.009 -3.021,0.613 -4.133,1.725 l -2.038,2.038 -0.013,-2.885 c 0.011,-3.242 -2.604,-5.857 -5.844,-5.844 -3.212,0.011 -5.82,2.62 -5.831,5.832 l -0.008,2.884 -2.043,-2.043 c -1.093,-1.093 -2.565,-1.701 -4.115,-1.707 -1.572,0.003 -3.044,0.601 -4.145,1.702 -1.112,1.111 -1.708,2.583 -1.706,4.15 -0.005,1.56 0.607,3.027 1.701,4.121 l 2.043,2.043 -2.885,0.007 c -1.552,-0.018 -3.031,0.613 -4.128,1.709 -1.111,1.111 -1.716,2.565 -1.718,4.138 0.005,1.559 0.61,3.019 1.721,4.13 1.102,1.102 2.568,1.714 4.123,1.713 l 2.91,-0.012 -2.063,2.064 c -1.097,1.096 -1.706,2.566 -1.709,4.116 0.008,1.563 0.61,3.03 1.717,4.136 1.103,1.104 2.565,1.701 4.129,1.711 1.562,0.008 3.024,-0.609 4.121,-1.706 l 2.047,-2.048 0.003,2.895 c 0,3.211 2.618,5.828 5.834,5.834 3.235,0.002 5.854,-2.618 5.846,-5.847 L 5.849,3.502 7.884,5.538 c 1.101,1.101 2.571,1.716 4.136,1.716 1.551,-0.013 3.026,-0.608 4.137,-1.719 2.27,-2.269 2.278,-5.978 -0.008,-8.263 l -2.035,-2.035 2.877,-0.015 c 3.23,0.007 5.839,-2.602 5.841,-5.842 -0.005,-3.216 -2.616,-5.828 -5.844,-5.824" /></g></g></g></g></svg>