<?xml version="1.0" encoding="UTF-8" standalone="no"?>
<svg
   xmlns:dc="http://purl.org/dc/elements/1.1/"
   xmlns:cc="http://creativecommons.org/ns#"
   xmlns:rdf="http://www.w3.org/1999/02/22-rdf-syntax-ns#"
   xmlns:svg="http://www.w3.org/2000/svg"
   xmlns="http://www.w3.org/2000/svg"
   viewBox="0 0 98.471733 82.321068"
   height="82.321068"
   width="98.471733"
   xml:space="preserve"
   id="svg2"
   version="1.1"><metadata
     id="metadata8"><rdf:RDF><cc:Work
         rdf:about=""><dc:format>image/svg+xml</dc:format><dc:type
           rdf:resource="http://purl.org/dc/dcmitype/StillImage" /></cc:Work></rdf:RDF></metadata><defs
     id="defs6"><clipPath
       id="clipPath18"
       clipPathUnits="userSpaceOnUse"><path
         id="path16"
         d="M 0,61.741 H 73.855 V 0 H 0 Z" /></clipPath></defs><g
     transform="matrix(1.3333333,0,0,-1.3333333,-6.6666665e-4,82.321065)"
     id="g10"><g
       id="g12"><g
         clip-path="url(#clipPath18)"
         id="g14"><g
           transform="translate(41.1818,34.8718)"
           id="g20"><path
             id="path22"
             style="fill:#262262;fill-opacity:1;fill-rule:nonzero;stroke:none"
             d="m 0,0 0.798,7.188 c 0.459,3.083 -2.846,5.614 -6.373,5.614 h -3.463 c 0.032,-0.309 0.063,-1.716 -0.854,-2.302 0,0 1.495,-7.226 0.886,-9.567 -0.286,-0.981 -1.258,-3.432 -2.396,-3.432 -1.084,0.047 -1.953,2.451 -2.175,3.432 -0.546,2.364 1.265,9.528 1.265,9.528 -0.253,0.111 -0.759,0.554 -0.917,2.341 h -3.803 v 0.016 c -3.511,0 -6.778,-2.57 -6.31,-5.701 L -22.56,0 c 2.712,-2.728 7.141,-4.396 11.276,-4.396 4.136,0 8.88,1.873 11.284,4.396" /></g><g
           transform="translate(29.8976,49.4768)"
           id="g24"><path
             id="path26"
             style="fill:#262262;fill-opacity:1;fill-rule:nonzero;stroke:none"
             d="m 0,0 c 3.361,0 6.113,2.736 6.113,6.12 0,3.384 -2.752,6.144 -6.113,6.144 -3.4,0 -6.136,-2.76 -6.136,-6.144 C -6.136,2.736 -3.4,0 0,0" /></g><g
           transform="translate(59.8586,4.3972)"
           id="g28"><path
             id="path30"
             style="fill:#262262;fill-opacity:1;fill-rule:nonzero;stroke:none"
             d="m 0,0 0.783,7.187 c 0.451,3.037 -2.894,5.615 -6.373,5.615 h -3.471 c 0,-0.309 0.047,-1.717 -0.863,-2.301 0,0 1.519,-7.251 0.863,-9.592 -0.23,-0.972 -1.234,-3.408 -2.365,-3.408 -1.099,0.023 -1.921,2.436 -2.135,3.408 -0.545,2.388 1.249,9.568 1.249,9.568 -0.284,0.095 -0.791,0.513 -0.917,2.325 h -3.74 c -3.526,0 -6.831,-2.578 -6.365,-5.709 L -22.559,0 c 2.767,-2.705 7.156,-4.397 11.245,-4.397 4.158,0 8.872,1.875 11.314,4.397" /></g><g
           transform="translate(48.5441,18.9783)"
           id="g32"><path
             id="path34"
             style="fill:#262262;fill-opacity:1;fill-rule:nonzero;stroke:none"
             d="m 0,0 c 3.384,0 6.12,2.743 6.12,6.119 0,3.433 -2.736,6.136 -6.12,6.136 -3.322,0 -6.073,-2.703 -6.073,-6.136 C -6.073,2.743 -3.322,0 0,0" /></g><g
           transform="translate(73.8473,33.8997)"
           id="g36"><path
             id="path38"
             style="fill:#262262;fill-opacity:1;fill-rule:nonzero;stroke:none"
             d="m 0,0 h -4.674 -1.059 v 1.004 c 0,14.802 -12.051,26.837 -26.758,26.837 -1.756,0 -3.488,-0.19 -5.18,-0.49 1.352,-1.51 2.175,-3.496 2.175,-5.654 0,-0.332 -0.016,-0.624 -0.048,-0.956 1.021,0.142 2.024,0.237 3.053,0.237 10.92,0 19.934,-8.968 19.934,-19.974 V 0 h -1.028 -4.871 -0.032 c 0,-0.048 0.008,-0.048 0.008,-0.048 l 4.088,-4.097 4.12,-4.048 c 0.269,-0.284 0.664,-0.443 1.06,-0.443 0.395,0 0.79,0.159 1.083,0.443 l 4.048,4.048 4.088,4.097 V 0 Z" /></g><g
           transform="translate(35.0695,3.282)"
           id="g40"><path
             id="path42"
             style="fill:#262262;fill-opacity:1;fill-rule:nonzero;stroke:none"
             d="m 0,0 -0.103,0.861 -0.316,2.997 h -0.578 c -11.568,0 -20.978,9.403 -20.978,20.995 v 1.114 h 1.107 5.022 l -4.255,4.239 -4.31,4.286 c -0.26,0.276 -0.655,0.435 -1.075,0.435 -0.395,0 -0.79,-0.159 -1.052,-0.435 l -4.301,-4.286 -4.23,-4.239 h 4.831 1.123 v -1.114 c 0,-15.53 12.612,-28.135 28.118,-28.135 1.582,0 3.14,0.135 4.705,0.372 -1.186,0.688 -2.238,1.478 -3.123,2.356 z" /></g></g></g></g></svg>