<?xml version="1.0" encoding="UTF-8" standalone="no"?>
<svg
   xmlns:dc="http://purl.org/dc/elements/1.1/"
   xmlns:cc="http://creativecommons.org/ns#"
   xmlns:rdf="http://www.w3.org/1999/02/22-rdf-syntax-ns#"
   xmlns:svg="http://www.w3.org/2000/svg"
   xmlns="http://www.w3.org/2000/svg"
   viewBox="0 0 98.395866 98.41423"
   height="98.41423"
   width="98.395866"
   xml:space="preserve"
   id="svg2"
   version="1.1"><metadata
     id="metadata8"><rdf:RDF><cc:Work
         rdf:about=""><dc:format>image/svg+xml</dc:format><dc:type
           rdf:resource="http://purl.org/dc/dcmitype/StillImage" /></cc:Work></rdf:RDF></metadata><defs
     id="defs6"><clipPath
       id="clipPath18"
       clipPathUnits="userSpaceOnUse"><path
         id="path16"
         d="M 0,73.811 H 73.798 V 0 H 0 Z" /></clipPath></defs><g
     transform="matrix(1.3333333,0,0,-1.3333333,0,98.414627)"
     id="g10"><g
       id="g12"><g
         clip-path="url(#clipPath18)"
         id="g14"><g
           transform="translate(59.9429,40.2583)"
           id="g20"><path
             id="path22"
             style="fill:#262262;fill-opacity:1;fill-rule:nonzero;stroke:none"
             d="m 0,0 c -1.437,1.043 -2.924,2.015 -4.622,2.773 -4.046,1.952 -8.757,3.082 -13.815,3.082 -5.042,0 -9.752,-1.13 -13.862,-3.082 -1.62,-0.806 -3.184,-1.73 -4.598,-2.773 v 4.725 c 1.414,1.067 2.978,1.984 4.598,2.798 2.956,1.415 6.252,2.394 9.73,2.853 0.757,-0.585 1.572,-1.091 2.472,-1.509 3.763,-1.716 7.904,-1.454 11.301,0.3 C -7.341,8.708 -5.935,8.171 -4.622,7.523 -2.924,6.709 -1.437,5.792 0,4.725 Z m -22.792,23.298 c 0.199,0.394 0.681,0.553 1.083,0.347 l 0.183,-0.095 0.782,-0.395 c 0.063,0.095 0.095,0.237 0.189,0.332 0.064,0.205 0.19,0.364 0.261,0.577 l -0.798,0.443 c -0.42,0.205 -0.577,0.695 -0.372,1.082 0.206,0.395 0.689,0.553 1.068,0.372 l 1.082,-0.554 c 0.783,0.926 1.762,1.589 2.751,1.968 1.761,0.767 3.729,0.696 5.634,-0.3 1.178,-0.601 2.118,-1.439 2.663,-2.11 l -1.73,-1.984 c -0.38,0.475 -1.083,1.178 -1.944,1.621 -0.949,0.474 -1.999,0.568 -2.988,0.173 -0.443,-0.173 -0.869,-0.53 -1.288,-0.972 l 4.845,-2.457 c 0.402,-0.206 0.545,-0.688 0.332,-1.083 -0.206,-0.396 -0.681,-0.554 -1.083,-0.371 l -5.121,2.647 c -0.119,-0.214 -0.197,-0.38 -0.309,-0.609 -0.079,-0.111 -0.134,-0.237 -0.181,-0.324 l 4.939,-2.529 0.103,-0.016 c 0.386,-0.206 0.513,-0.695 0.339,-1.114 -0.221,-0.364 -0.703,-0.537 -1.074,-0.332 l -4.758,2.418 c -0.166,-0.656 -0.166,-1.209 -0.055,-1.715 0.3,-1.003 1.067,-1.786 2.062,-2.323 0.902,-0.427 1.984,-0.617 2.521,-0.617 l -0.656,-2.433 c -0.861,-0.048 -2.22,0.166 -3.477,0.829 -1.975,0.972 -3.326,2.663 -3.675,4.726 -0.205,0.957 -0.157,1.976 0.198,3.13 l -1.154,0.577 c -0.419,0.189 -0.569,0.68 -0.372,1.091 M -47.67,-20.493 c -1.271,0 -2.307,1.889 -2.307,4.237 0,2.355 1.036,4.235 2.307,4.235 1.28,0 2.292,-1.88 2.292,-4.235 0,-2.348 -1.012,-4.237 -2.292,-4.237 m -7.697,1.312 c -1.265,0 -2.308,1.897 -2.308,4.244 0,2.331 1.043,4.236 2.308,4.236 1.264,0 2.324,-1.905 2.324,-4.236 0,-2.347 -1.06,-4.244 -2.324,-4.244 m 69.221,8.923 c 0,10.573 -7.12,19.749 -17.481,24.285 0.222,0.395 0.427,0.814 0.624,1.257 2.965,6.504 0.136,14.154 -6.401,17.11 -6.472,2.947 -14.138,0.079 -17.086,-6.41 -1.478,-3.24 -1.486,-6.78 -0.355,-9.863 -3.802,-0.861 -7.318,-2.299 -10.409,-4.172 -2.118,2.758 -5.278,3.935 -7.262,2.616 -2.119,-1.407 -2.119,-5.169 0,-8.33 0.047,-0.079 0.119,-0.127 0.158,-0.237 -2.411,-2.734 -4.276,-5.903 -5.319,-9.334 h -1.059 c -5.074,0 -9.207,-5.192 -9.207,-11.538 0,-6.369 4.133,-11.506 9.207,-11.506 h 6.267 c 2.134,-2.506 4.742,-4.64 7.714,-6.37 0.624,-4.268 3.43,-7.508 6.812,-7.508 h 4.591 c 1.92,0 3.643,1.036 4.94,2.734 0.648,-0.015 1.304,-0.047 1.975,-0.047 2.182,0 4.284,0.158 6.298,0.506 1.281,-1.936 3.146,-3.193 5.241,-3.193 h 4.584 c 3.864,0 6.93,4.149 6.93,9.238 0,0.539 -0.015,1.051 -0.095,1.573 5.777,4.924 9.333,11.68 9.333,19.189" /></g></g></g></g></svg>