<?xml version="1.0" encoding="UTF-8" standalone="no"?>
<svg
   xmlns:dc="http://purl.org/dc/elements/1.1/"
   xmlns:cc="http://creativecommons.org/ns#"
   xmlns:rdf="http://www.w3.org/1999/02/22-rdf-syntax-ns#"
   xmlns:svg="http://www.w3.org/2000/svg"
   xmlns="http://www.w3.org/2000/svg"
   viewBox="0 0 43.108665 37.833199"
   height="37.833199"
   width="43.108665"
   xml:space="preserve"
   id="svg2"
   version="1.1"><metadata
     id="metadata8"><rdf:RDF><cc:Work
         rdf:about=""><dc:format>image/svg+xml</dc:format><dc:type
           rdf:resource="http://purl.org/dc/dcmitype/StillImage" /></cc:Work></rdf:RDF></metadata><defs
     id="defs6"><clipPath
       id="clipPath18"
       clipPathUnits="userSpaceOnUse"><path
         id="path16"
         d="M 0,28.375 H 32.332 V 0 H 0 Z" /></clipPath></defs><g
     transform="matrix(1.3333333,0,0,-1.3333333,-1.3333333e-4,37.833199)"
     id="g10"><g
       id="g12"><g
         clip-path="url(#clipPath18)"
         id="g14"><g
           transform="translate(28.9586,9.082)"
           id="g20"><path
             id="path22"
             style="fill:#262262;fill-opacity:1;fill-rule:nonzero;stroke:none"
             d="m 0,0 c -0.507,0.218 -1.331,0.218 -1.838,0 l -7.411,-3.176 c -0.979,-0.42 -2.238,-0.66 -3.54,-0.66 -1.31,0 -2.568,0.24 -3.55,0.66 L -23.75,0 c -0.507,0.218 -1.331,0.218 -1.838,0 l -2.229,-0.957 c -1.522,-0.648 -1.522,-1.71 0,-2.37 l 12.269,-5.26 c 1.522,-0.66 3.99,-0.66 5.51,0 l 12.271,5.26 c 1.52,0.66 1.52,1.722 0,2.37 z" /></g><g
           transform="translate(28.9586,16.332)"
           id="g24"><path
             id="path26"
             style="fill:#262262;fill-opacity:1;fill-rule:nonzero;stroke:none"
             d="m 0,0 c -0.507,0.218 -1.331,0.218 -1.838,0 l -7.411,-3.176 c -0.04,-0.021 -0.079,-0.03 -0.119,-0.05 -0.96,-0.391 -2.171,-0.61 -3.421,-0.61 -1.26,0 -2.47,0.22 -3.43,0.61 -0.04,0.02 -0.08,0.029 -0.12,0.05 L -23.75,0 c -0.507,0.218 -1.331,0.218 -1.838,0 l -2.229,-0.957 c -1.522,-0.66 -1.522,-1.72 0,-2.37 l 5.679,-2.439 6.59,-2.83 c 0.76,-0.32 1.76,-0.49 2.76,-0.49 0.99,0 1.99,0.17 2.75,0.49 l 6.592,2.83 5.679,2.439 c 1.52,0.65 1.52,1.71 0,2.37 z" /></g><g
           transform="translate(1.1412,20.2549)"
           id="g28"><path
             id="path30"
             style="fill:#262262;fill-opacity:1;fill-rule:nonzero;stroke:none"
             d="M 0,0 3.148,-1.35 4.42,-1.899 5.689,-2.439 12.27,-5.27 c 0.759,-0.32 1.759,-0.49 2.759,-0.49 0.991,0 1.991,0.17 2.75,0.49 l 6.58,2.831 1.272,0.54 L 26.9,-1.35 30.051,0 c 1.519,0.65 1.519,1.71 0,2.37 L 17.779,7.63 c -0.759,0.33 -1.759,0.49 -2.75,0.49 -1,0 -2,-0.16 -2.759,-0.49 L 0,2.37 C -1.521,1.71 -1.521,0.651 0,0" /></g></g></g></g></svg>