<?xml version="1.0" encoding="UTF-8" standalone="no"?>
<svg
   xmlns:dc="http://purl.org/dc/elements/1.1/"
   xmlns:cc="http://creativecommons.org/ns#"
   xmlns:rdf="http://www.w3.org/1999/02/22-rdf-syntax-ns#"
   xmlns:svg="http://www.w3.org/2000/svg"
   xmlns="http://www.w3.org/2000/svg"
   viewBox="0 0 26.953285 25.706034"
   height="25.706034"
   width="26.953285"
   xml:space="preserve"
   id="svg2"
   version="1.1"><metadata
     id="metadata8"><rdf:RDF><cc:Work
         rdf:about=""><dc:format>image/svg+xml</dc:format><dc:type
           rdf:resource="http://purl.org/dc/dcmitype/StillImage" /></cc:Work></rdf:RDF></metadata><defs
     id="defs6"><clipPath
       id="clipPath18"
       clipPathUnits="userSpaceOnUse"><path
         id="path16"
         d="M 0,19.28 H 20.215 V 0 H 0 Z" /></clipPath></defs><g
     transform="matrix(1.3333333,0,0,-1.3333333,-4.709102e-5,25.706033)"
     id="g10"><g
       id="g12"><g
         clip-path="url(#clipPath18)"
         id="g14"><g
           transform="translate(10.3458,2.9069)"
           id="g20"><path
             id="path22"
             style="fill:#262262;fill-opacity:1;fill-rule:nonzero;stroke:none"
             d="m 0,0 5.465,-2.835 c 0.375,-0.195 0.81,0.124 0.738,0.541 L 5.148,3.783 C 5.12,3.949 5.175,4.119 5.295,4.236 l 4.42,4.305 C 10.019,8.837 9.85,9.354 9.429,9.413 L 3.325,10.27 c -0.168,0.023 -0.313,0.129 -0.387,0.281 l -2.712,5.535 c -0.188,0.382 -0.731,0.382 -0.918,0.001 L -3.41,10.549 c -0.074,-0.152 -0.219,-0.257 -0.386,-0.28 L -9.907,9.388 c -0.419,-0.06 -0.587,-0.574 -0.285,-0.87 l 4.41,-4.325 c 0.119,-0.117 0.174,-0.285 0.146,-0.45 L -6.657,-2.31 c -0.071,-0.416 0.366,-0.733 0.74,-0.538 L -0.472,0 C -0.324,0.077 -0.147,0.077 0,0" /></g></g></g></g></svg>