<?xml version="1.0" encoding="UTF-8" standalone="no"?>
<svg
   xmlns:dc="http://purl.org/dc/elements/1.1/"
   xmlns:cc="http://creativecommons.org/ns#"
   xmlns:rdf="http://www.w3.org/1999/02/22-rdf-syntax-ns#"
   xmlns:svg="http://www.w3.org/2000/svg"
   xmlns="http://www.w3.org/2000/svg"
   viewBox="0 0 71.972801 71.934662"
   height="71.934662"
   width="71.972801"
   xml:space="preserve"
   id="svg2"
   version="1.1"><metadata
     id="metadata8"><rdf:RDF><cc:Work
         rdf:about=""><dc:format>image/svg+xml</dc:format><dc:type
           rdf:resource="http://purl.org/dc/dcmitype/StillImage" /></cc:Work></rdf:RDF></metadata><defs
     id="defs6"><clipPath
       id="clipPath18"
       clipPathUnits="userSpaceOnUse"><path
         id="path16"
         d="M 0,53.951 H 53.98 V 0 H 0 Z" /></clipPath></defs><g
     transform="matrix(1.3333333,0,0,-1.3333333,-5.3333332e-4,71.934665)"
     id="g10"><g
       id="g12"><g
         clip-path="url(#clipPath18)"
         id="g14"><g
           transform="translate(47.0903,47.0561)"
           id="g20"><path
             id="path22"
             style="fill:#262262;fill-opacity:1;fill-rule:nonzero;stroke:none"
             d="m 0,0 -0.277,6.896 -7.185,-7.151 v -4.774 l -12.676,-12.688 c -0.497,-0.526 -0.902,-2.352 -0.382,-2.844 0.48,-0.497 2.186,-0.104 2.729,0.406 l 12.722,12.738 h 4.792 l 7.167,7.162 z" /></g><g
           transform="translate(46.8364,36.27)"
           id="g24"><path
             id="path26"
             style="fill:#262262;fill-opacity:1;fill-rule:nonzero;stroke:none"
             d="m 0,0 c 1.329,-2.815 2.086,-5.982 2.086,-9.283 0,-12.11 -9.866,-21.942 -21.936,-21.942 -12.091,0 -21.923,9.832 -21.923,21.942 0,12.075 9.832,21.919 21.923,21.919 3.301,0 6.434,-0.764 9.278,-2.081 0,0.878 0.352,1.727 0.977,2.369 l 1.873,1.867 c -3.642,1.861 -7.769,2.891 -12.128,2.891 -14.906,0 -26.986,-12.076 -26.986,-26.965 0,-14.906 12.08,-26.987 26.986,-26.987 14.868,0 26.994,12.081 26.994,26.987 0,4.352 -1.058,8.485 -2.901,12.161 L 2.358,1 C 1.728,0.353 0.878,0.017 0,0" /></g><g
           transform="translate(39.1772,26.9868)"
           id="g28"><path
             id="path30"
             style="fill:#262262;fill-opacity:1;fill-rule:nonzero;stroke:none"
             d="m 0,0 c 0,-6.757 -5.491,-12.248 -12.19,-12.248 -6.751,0 -12.236,5.491 -12.236,12.248 0,6.723 5.485,12.214 12.236,12.214 1.485,0 2.913,-0.273 4.277,-0.78 l 3.491,3.507 c -2.329,1.204 -4.982,1.914 -7.768,1.914 -9.312,0 -16.878,-7.555 -16.878,-16.855 0,-9.323 7.566,-16.872 16.878,-16.872 9.283,0 16.855,7.549 16.855,16.872 0,2.798 -0.682,5.457 -1.942,7.792 L -0.78,4.271 C -0.266,2.925 0,1.485 0,0" /></g><g
           transform="translate(31.5995,24.5591)"
           id="g32"><path
             id="path34"
             style="fill:#262262;fill-opacity:1;fill-rule:nonzero;stroke:none"
             d="m 0,0 c -1.202,-1.161 -3.034,-1.589 -4.26,-1.589 -1.561,0 -2.537,0.624 -3.092,1.173 -0.544,0.538 -1.208,1.52 -1.22,3.109 0,1.394 0.474,3.273 1.578,4.388 0,0 0.006,0.023 0.023,0.023 l 2.862,2.856 c -0.151,0.034 -0.336,0.058 -0.504,0.058 -4.196,0 -7.6,-3.422 -7.6,-7.59 0,-4.202 3.404,-7.607 7.6,-7.607 4.156,0 7.572,3.405 7.572,7.607 0,0.15 -0.017,0.324 -0.046,0.509 L 0.023,0.058 C 0.023,0.023 0.023,0.023 0,0" /></g></g></g></g></svg>