<?xml version="1.0" encoding="UTF-8" standalone="no"?>
<svg
   xmlns:dc="http://purl.org/dc/elements/1.1/"
   xmlns:cc="http://creativecommons.org/ns#"
   xmlns:rdf="http://www.w3.org/1999/02/22-rdf-syntax-ns#"
   xmlns:svg="http://www.w3.org/2000/svg"
   xmlns="http://www.w3.org/2000/svg"
   viewBox="0 0 33.278266 42.667332"
   height="42.667332"
   width="33.278267"
   xml:space="preserve"
   id="svg2"
   version="1.1"><metadata
     id="metadata8"><rdf:RDF><cc:Work
         rdf:about=""><dc:format>image/svg+xml</dc:format><dc:type
           rdf:resource="http://purl.org/dc/dcmitype/StillImage" /></cc:Work></rdf:RDF></metadata><defs
     id="defs6"><clipPath
       id="clipPath18"
       clipPathUnits="userSpaceOnUse"><path
         id="path16"
         d="M 0,32.001 H 24.959 V 0 H 0 Z" /></clipPath><clipPath
       id="clipPath26"
       clipPathUnits="userSpaceOnUse"><path
         id="path24"
         d="M 0,32.0007 H 24.959 V 0 H 0 Z" /></clipPath></defs><g
     transform="matrix(1.3333333,0,0,-1.3333333,0,42.667599)"
     id="g10"><g
       id="g12"><g
         clip-path="url(#clipPath18)"
         id="g14"><g
           id="g20"><g
             id="g22" /><g
             id="g34"><g
               id="g32"
               clip-path="url(#clipPath26)"><g
                 id="g30"
                 transform="translate(12.4757,14.6072)"><path
                   id="path28"
                   style="fill:#ffffff;fill-opacity:1;fill-rule:nonzero;stroke:none"
                   d="m 0,0 c -2.947,0 -5.327,2.389 -5.327,5.335 0,2.938 2.38,5.327 5.327,5.327 2.946,0 5.336,-2.389 5.336,-5.327 C 5.336,2.389 2.946,0 0,0 m 0,17.394 c -6.889,0 -12.476,-5.597 -12.476,-12.486 0,-6.74 7.196,-14.484 10.663,-18.63 0.986,-1.18 2.65,-1.18 3.634,0 3.458,4.146 10.662,11.676 10.662,18.63 0,6.889 -5.587,12.486 -12.483,12.486" /></g></g></g></g></g></g></g></svg>