<?xml version="1.0" encoding="UTF-8" standalone="no"?>
<svg
   xmlns:dc="http://purl.org/dc/elements/1.1/"
   xmlns:cc="http://creativecommons.org/ns#"
   xmlns:rdf="http://www.w3.org/1999/02/22-rdf-syntax-ns#"
   xmlns:svg="http://www.w3.org/2000/svg"
   xmlns="http://www.w3.org/2000/svg"
   viewBox="0 0 111.948 137.8248"
   height="137.8248"
   width="111.948"
   xml:space="preserve"
   id="svg2"
   version="1.1"><metadata
     id="metadata8"><rdf:RDF><cc:Work
         rdf:about=""><dc:format>image/svg+xml</dc:format><dc:type
           rdf:resource="http://purl.org/dc/dcmitype/StillImage" /></cc:Work></rdf:RDF></metadata><defs
     id="defs6"><clipPath
       id="clipPath18"
       clipPathUnits="userSpaceOnUse"><path
         id="path16"
         d="M 0,103.369 H 83.961 V 0 H 0 Z" /></clipPath></defs><g
     transform="matrix(1.3333333,0,0,-1.3333333,0,137.8248)"
     id="g10"><g
       id="g12"><g
         clip-path="url(#clipPath18)"
         id="g14"><g
           transform="translate(21.1395,58.0806)"
           id="g20"><path
             id="path22"
             style="fill:#262262;fill-opacity:1;fill-rule:nonzero;stroke:none"
             d="m 0,0 v 10.917 c 0,11.797 9.646,21.418 21.418,21.418 11.842,0 21.374,-9.621 21.374,-21.418 L 42.907,0 Z m 26.484,-30.416 v -9.114 c 0,-3.098 -2.52,-5.529 -5.597,-5.529 -3.169,0 -5.713,2.431 -5.713,5.529 v 9.114 c -2.361,1.757 -4.026,4.602 -4.026,7.934 0,5.296 4.327,9.669 9.739,9.669 5.296,0 9.621,-4.373 9.621,-9.669 0,-3.332 -1.572,-6.177 -4.024,-7.934 M 55.742,0 v 10.917 c 0,18.919 -15.402,34.371 -34.324,34.371 -18.92,0 -34.301,-15.452 -34.301,-34.371 V 0 h -8.257 v -41.056 c 0,-9.438 7.563,-17.025 16.931,-17.025 h 50.006 c 9.46,0 17.025,7.587 17.025,17.025 V 0 Z" /></g></g></g></g></svg>