<svg xmlns="http://www.w3.org/2000/svg" xmlns:xlink="http://www.w3.org/1999/xlink" preserveAspectRatio="xMidYMid" width="98" height="98" viewBox="0 0 98 98">
  <defs>
    <style>
      .cls-1 {
        fill: #f9f9f9;
        stroke: #777;
        stroke-linejoin: round;
        stroke-width: 3px;
      }

      .cls-2 {
        fill: #777;
        fill-rule: evenodd;
      }
    </style>
  </defs>
  <g>
    <circle cx="49.078" cy="49.06" r="42.234" class="cls-1"/>
    <path d="M66.633,26.337 C66.637,25.715 66.360,25.124 65.878,24.732 C65.396,24.339 64.762,24.186 64.154,24.316 L37.195,30.080 C36.255,30.281 35.581,31.108 35.574,32.070 L35.388,56.224 C33.886,55.330 32.067,54.797 30.103,54.782 L30.016,54.782 C24.883,54.782 20.680,58.348 20.647,62.732 C20.613,67.155 24.800,70.785 29.980,70.826 L30.066,70.826 C35.199,70.826 39.403,67.260 39.437,62.876 L39.437,62.876 L39.437,62.876 L39.599,41.821 L62.452,36.935 L62.348,50.460 C60.845,49.566 59.026,49.033 57.062,49.018 L56.975,49.017 C51.842,49.017 47.638,52.584 47.605,56.968 C47.571,61.390 51.759,65.021 56.939,65.062 L57.024,65.062 C61.758,65.062 65.693,62.027 66.306,58.118 C66.357,57.943 66.392,57.762 66.394,57.571 L66.633,26.337 ZM30.066,66.724 L30.011,66.723 C27.141,66.702 24.730,64.888 24.746,62.763 C24.762,60.624 27.127,58.884 30.016,58.884 L30.071,58.884 C32.942,58.905 35.354,60.720 35.338,62.845 C35.321,64.984 32.956,66.724 30.066,66.724 ZM39.623,38.670 L39.661,33.747 L62.513,28.861 L62.476,33.784 L39.623,38.670 ZM57.024,60.960 L56.970,60.959 C54.100,60.937 51.689,59.123 51.705,56.999 C51.721,54.860 54.085,53.119 56.975,53.119 L57.030,53.119 C59.902,53.141 62.313,54.955 62.297,57.080 C62.281,59.219 59.916,60.960 57.024,60.960 Z" class="cls-2"/>
  </g>
</svg>
