<svg xmlns="http://www.w3.org/2000/svg" xmlns:xlink="http://www.w3.org/1999/xlink" preserveAspectRatio="xMidYMid" width="80" height="81" viewBox="0 0 80 81">
  <defs>
    <style>
      .cls-1 {
        fill: #fff;
        stroke: #000;
        stroke-linejoin: round;
        stroke-width: 3px;
      }

      .cls-1, .cls-2 {
        fill-rule: evenodd;
      }

      .cls-2 {
        fill: #000;
      }
    </style>
  </defs>
  <g>
    <path d="M45.343,13.248 C63.636,13.248 78.465,28.077 78.465,46.369 C78.465,64.662 63.636,79.492 45.343,79.492 C27.050,79.492 12.221,64.662 12.221,46.369 C12.221,28.077 27.050,13.248 45.343,13.248 Z" class="cls-1"/>
    <path d="M54.279,36.015 L22.616,36.015 C20.715,36.015 19.174,34.473 19.174,32.573 C19.174,30.672 20.715,29.131 22.616,29.131 L26.511,29.131 C26.572,28.911 26.651,28.693 26.771,28.486 L30.901,21.332 C31.661,20.015 33.345,19.564 34.662,20.324 C35.979,21.085 36.430,22.769 35.670,24.086 L32.756,29.131 L44.139,29.131 L41.226,24.086 C40.465,22.769 40.917,21.085 42.234,20.324 C43.550,19.564 45.234,20.015 45.995,21.332 L50.125,28.486 C50.244,28.693 50.324,28.911 50.385,29.131 L54.279,29.131 C56.180,29.131 57.721,30.672 57.721,32.573 C57.721,34.473 56.180,36.015 54.279,36.015 ZM53.697,58.041 L23.199,58.041 L22.007,37.391 L54.888,37.391 L53.697,58.041 ZM31.564,44.274 C31.564,43.514 30.948,42.898 30.188,42.898 C29.427,42.898 28.811,43.514 28.811,44.274 L28.811,52.534 C28.811,53.295 29.427,53.911 30.188,53.911 C30.948,53.911 31.564,53.295 31.564,52.534 L31.564,44.274 ZM39.824,44.274 C39.824,43.514 39.208,42.898 38.448,42.898 C37.687,42.898 37.071,43.514 37.071,44.274 L37.071,52.534 C37.071,53.295 37.687,53.911 38.448,53.911 C39.208,53.911 39.824,53.295 39.824,52.534 L39.824,44.274 ZM48.084,44.274 C48.084,43.514 47.468,42.898 46.708,42.898 C45.947,42.898 45.331,43.514 45.331,44.274 L45.331,52.534 C45.331,53.295 45.947,53.911 46.708,53.911 C47.468,53.911 48.084,53.295 48.084,52.534 L48.084,44.274 Z" class="cls-2"/>
  </g>
</svg>
