<svg xmlns="http://www.w3.org/2000/svg" xmlns:xlink="http://www.w3.org/1999/xlink" preserveAspectRatio="xMidYMid" width="31.406" height="31.41" viewBox="0 0 31.406 31.41">
  <defs>
    <style>
      .cls-1 {
        fill: #ccc;
        fill-rule: evenodd;
      }
    </style>
  </defs>
  <g>
    <path d="M-0.001,15.704 C-0.001,24.360 7.041,31.403 15.698,31.403 C24.354,31.403 31.396,24.360 31.396,15.704 C31.396,7.047 24.354,0.005 15.698,0.005 C7.041,0.005 -0.001,7.047 -0.001,15.704 ZM1.255,15.704 C1.255,7.740 7.734,1.260 15.698,1.260 C23.661,1.260 30.140,7.740 30.140,15.704 C30.140,23.667 23.661,30.146 15.698,30.146 C7.734,30.146 1.255,23.667 1.255,15.704 Z" class="cls-1"/>
    <path d="M13.370,21.685 C13.106,21.685 12.842,21.584 12.640,21.383 L8.325,17.069 C7.922,16.666 7.922,16.012 8.325,15.609 C8.728,15.206 9.383,15.206 9.786,15.609 L13.370,19.192 L21.960,10.606 C22.363,10.203 23.017,10.203 23.420,10.606 C23.824,11.009 23.824,11.662 23.420,12.066 L14.101,21.383 C13.899,21.584 13.635,21.685 13.370,21.685 Z" class="cls-1"/>
  </g>
</svg>
