<svg xmlns="http://www.w3.org/2000/svg" xmlns:xlink="http://www.w3.org/1999/xlink" preserveAspectRatio="xMidYMid" width="80" height="80" viewBox="0 0 80 80">
  <defs>
    <style>
      .cls-1 {
        fill: #fff;
        stroke: #000;
        stroke-linejoin: round;
        stroke-width: 3px;
      }

      .cls-2 {
        fill: #000;
        fill-rule: evenodd;
      }
    </style>
  </defs>
  <g>
    <circle cx="39.969" cy="40.095" r="33.125" class="cls-1"/>
    <path d="M55.512,55.817 L23.223,55.817 C21.737,55.817 19.187,54.613 19.187,53.127 C19.187,51.641 20.392,50.436 21.878,50.436 L56.857,50.436 C58.343,50.436 59.548,51.641 59.548,53.127 C59.548,54.613 56.998,55.817 55.512,55.817 ZM43.404,53.127 L35.332,53.127 C34.588,53.127 33.986,53.428 33.986,53.799 C33.986,54.171 34.588,54.472 35.332,54.472 L43.404,54.472 C44.147,54.472 44.749,54.171 44.749,53.799 C44.749,53.428 44.147,53.127 43.404,53.127 ZM34.122,36.064 L36.605,38.558 L44.608,30.520 C45.131,29.995 45.979,29.995 46.502,30.520 L48.396,32.423 C48.919,32.948 48.919,33.800 48.396,34.325 L37.978,44.790 C37.529,45.240 36.853,45.280 36.336,44.958 C35.895,45.068 35.414,44.972 35.070,44.627 L30.334,39.870 C29.811,39.345 29.811,38.493 30.334,37.967 L32.228,36.064 C32.751,35.539 33.599,35.539 34.122,36.064 ZM52.821,26.219 L25.914,26.219 L25.914,47.745 L21.878,47.745 L21.878,45.054 L22.125,45.054 C21.975,44.632 21.878,44.183 21.878,43.709 L21.878,26.219 C21.878,23.990 23.685,22.183 25.914,22.183 L52.821,22.183 C55.050,22.183 56.857,23.990 56.857,26.219 L56.857,43.709 C56.857,44.183 56.760,44.632 56.610,45.054 L56.857,45.054 L56.857,47.745 L52.821,47.745 L52.821,26.219 Z" class="cls-2"/>
  </g>
</svg>
