<svg xmlns="http://www.w3.org/2000/svg" xmlns:xlink="http://www.w3.org/1999/xlink" preserveAspectRatio="xMidYMid" width="98" height="98" viewBox="0 0 98 98">
  <defs>
    <style>
      .cls-1 {
        fill: #f9f9f9;
        stroke: #777;
        stroke-linejoin: round;
        stroke-width: 3px;
      }

      .cls-2 {
        fill: #777;
        fill-rule: evenodd;
      }
    </style>
  </defs>
  <g>
    <circle cx="49.204" cy="49.06" r="42.234" class="cls-1"/>
    <path d="M61.128,67.139 C59.144,67.139 57.535,65.534 57.535,63.553 L57.535,24.821 C57.535,22.841 59.144,21.235 61.128,21.235 C63.113,21.235 64.721,22.841 64.721,24.821 L64.721,63.553 C64.721,65.534 63.113,67.139 61.128,67.139 ZM47.678,67.139 C45.694,67.139 44.085,65.534 44.085,63.553 L44.085,37.601 C44.085,35.621 45.694,34.015 47.678,34.015 C49.663,34.015 51.271,35.621 51.271,37.601 L51.271,63.553 C51.271,65.534 49.663,67.139 47.678,67.139 ZM34.225,67.139 C32.241,67.139 30.632,65.534 30.632,63.553 L30.632,50.385 C30.632,48.403 32.241,46.798 34.225,46.798 C36.210,46.798 37.818,48.403 37.818,50.385 L37.818,63.553 C37.818,65.534 36.210,67.139 34.225,67.139 Z" class="cls-2"/>
  </g>
</svg>
