<svg xmlns="http://www.w3.org/2000/svg" xmlns:xlink="http://www.w3.org/1999/xlink" preserveAspectRatio="xMidYMid" width="80" height="80" viewBox="0 0 80 80">
  <defs>
    <style>
      .cls-1 {
        fill: #fff;
        stroke: #000;
        stroke-linejoin: round;
        stroke-width: 3px;
      }

      .cls-2 {
        fill: #000;
        fill-rule: evenodd;
      }
    </style>
  </defs>
  <g>
    <circle cx="39.969" cy="39.935" r="33.125" class="cls-1"/>
    <path d="M50.467,57.105 L29.468,57.105 C27.535,57.105 25.969,55.537 25.969,53.605 L25.969,40.772 C25.969,38.839 27.535,37.272 29.468,37.272 L30.635,37.272 L30.635,27.939 C30.635,23.429 34.814,19.773 39.968,19.773 C45.122,19.773 49.301,23.429 49.301,27.939 L49.301,37.272 L50.467,37.272 C52.400,37.272 53.967,38.839 53.967,40.772 L53.967,53.605 C53.967,55.537 52.400,57.105 50.467,57.105 ZM44.634,27.939 C44.634,26.006 42.545,24.439 39.968,24.439 C37.391,24.439 35.301,26.006 35.301,27.939 L35.301,36.105 C35.301,36.517 35.413,36.906 35.587,37.272 L44.349,37.272 C44.522,36.906 44.634,36.517 44.634,36.105 L44.634,27.939 ZM39.968,40.772 C37.391,40.772 35.301,42.861 35.301,45.438 C35.301,47.161 36.246,48.649 37.635,49.458 L37.635,51.271 C37.635,52.560 38.679,53.605 39.968,53.605 C41.257,53.605 42.301,52.560 42.301,51.271 L42.301,49.458 C43.690,48.649 44.634,47.161 44.634,45.438 C44.634,42.861 42.545,40.772 39.968,40.772 Z" class="cls-2"/>
  </g>
</svg>
