<svg xmlns="http://www.w3.org/2000/svg" xmlns:xlink="http://www.w3.org/1999/xlink" preserveAspectRatio="xMidYMid" width="98" height="98" viewBox="0 0 98 98">
  <defs>
    <style>
      .cls-1 {
        fill: #f9f9f9;
        stroke: #777;
        stroke-linejoin: round;
        stroke-width: 3px;
      }

      .cls-2 {
        fill: #777;
        fill-rule: evenodd;
      }
    </style>
  </defs>
  <g>
    <circle cx="48.796" cy="49.075" r="42.233" class="cls-1"/>
    <path d="M62.254,71.082 C61.844,71.082 61.434,70.965 61.074,70.732 L48.395,62.500 L35.716,70.732 C34.960,71.224 33.978,71.195 33.251,70.658 C32.525,70.123 32.207,69.194 32.452,68.324 L36.423,54.220 L24.571,44.182 C23.899,43.612 23.638,42.692 23.911,41.854 C24.184,41.016 24.937,40.427 25.815,40.364 L40.029,39.339 L46.424,25.317 C46.777,24.545 47.547,24.050 48.395,24.050 C49.244,24.050 50.014,24.545 50.366,25.317 L56.761,39.339 L70.975,40.364 C71.853,40.427 72.606,41.016 72.879,41.854 C73.152,42.692 72.891,43.612 72.219,44.182 L60.367,54.220 L64.339,68.324 C64.584,69.194 64.265,70.123 63.539,70.658 C63.158,70.940 62.706,71.082 62.254,71.082 ZM48.395,57.747 C48.806,57.747 49.216,57.863 49.574,58.096 L58.608,63.961 L55.819,54.054 C55.588,53.237 55.856,52.360 56.504,51.810 L65.363,44.308 L55.169,43.571 C54.379,43.515 53.683,43.031 53.354,42.309 L48.395,31.440 L43.437,42.309 C43.108,43.031 42.412,43.515 41.621,43.571 L31.428,44.308 L40.286,51.810 C40.934,52.360 41.202,53.237 40.971,54.054 L38.182,63.961 L47.216,58.096 C47.575,57.863 47.985,57.747 48.395,57.747 Z" class="cls-2"/>
  </g>
</svg>
