<?xml version="1.0" encoding="UTF-8" standalone="no"?>
<svg
   xmlns:dc="http://purl.org/dc/elements/1.1/"
   xmlns:cc="http://creativecommons.org/ns#"
   xmlns:rdf="http://www.w3.org/1999/02/22-rdf-syntax-ns#"
   xmlns:svg="http://www.w3.org/2000/svg"
   xmlns="http://www.w3.org/2000/svg"
   viewBox="0 0 106.5144 134.92586"
   height="134.92586"
   width="106.5144"
   xml:space="preserve"
   id="svg2"
   version="1.1"><metadata
     id="metadata8"><rdf:RDF><cc:Work
         rdf:about=""><dc:format>image/svg+xml</dc:format><dc:type
           rdf:resource="http://purl.org/dc/dcmitype/StillImage" /></cc:Work></rdf:RDF></metadata><defs
     id="defs6"><clipPath
       id="clipPath18"
       clipPathUnits="userSpaceOnUse"><path
         id="path16"
         d="M 0,101.195 H 79.886 V 0 H 0 Z" /></clipPath></defs><g
     transform="matrix(1.3333333,0,0,-1.3333333,0,134.92666)"
     id="g10"><g
       id="g12"><g
         clip-path="url(#clipPath18)"
         id="g14"><g
           transform="translate(58.6197,13.3146)"
           id="g20"><path
             id="path22"
             style="fill:#262262;fill-opacity:1;fill-rule:nonzero;stroke:none"
             d="m 0,0 c 0,-2.178 -0.855,-4.14 -2.362,-5.655 -1.516,-1.529 -3.542,-2.329 -5.676,-2.329 h -37.256 c -2.156,0 -4.16,0.8 -5.656,2.329 -1.516,1.515 -2.35,3.477 -2.35,5.655 v 58.598 c 0,4.386 3.596,7.973 8.006,7.973 h 13.368 10.508 5.385 0.043 V 50.212 H 0 Z M 5.308,50.786 C 5.222,52.13 4.669,53.397 3.749,54.351 l -15.979,15.99 c -1.03,0.996 -2.351,1.559 -3.803,1.559 h -5.385 -10.508 -13.368 c -7.399,0 -13.326,-5.968 -13.326,-13.302 V 0 c 0,-3.694 1.507,-7.031 3.912,-9.447 2.426,-2.372 5.72,-3.867 9.414,-3.867 h 37.256 c 3.694,0 7.031,1.495 9.425,3.867 2.405,2.416 3.921,5.753 3.921,9.447 v 50.212 z" /></g><g
           transform="translate(79.8648,80.0705)"
           id="g24"><path
             id="path26"
             style="fill:#262262;fill-opacity:1;fill-rule:nonzero;stroke:none"
             d="m 0,0 c -0.077,1.343 -0.618,2.642 -1.561,3.585 l -15.968,15.969 c -1.007,0.996 -2.341,1.571 -3.759,1.571 h -5.417 -10.498 -13.379 c -6.489,0 -11.818,-4.573 -13.054,-10.682 h 5.514 c 1.105,3.12 4.074,5.34 7.54,5.34 h 13.379 10.498 5.417 l 0.043,-0.032 V -0.598 h 15.892 v -50.19 c 0,-2.134 -0.812,-4.17 -2.307,-5.634 -0.844,-0.854 -1.83,-1.462 -2.979,-1.895 v -5.504 c 2.622,0.52 4.952,1.809 6.716,3.63 2.449,2.416 3.923,5.709 3.923,9.403 v 50.19 h 0.021 c 0,0.218 0,0.413 -0.021,0.598" /></g><g
           transform="translate(24.2667,41.5353)"
           id="g28"><path
             id="path30"
             style="fill:#262262;fill-opacity:1;fill-rule:nonzero;stroke:none"
             d="m 0,0 h 5.081 c -0.053,-0.542 -0.119,-3.174 1.225,-4.269 0,0 -2.189,-13.097 -1.225,-17.323 0.347,-1.755 1.766,-6.218 3.402,-6.131 1.625,0 2.849,4.419 3.206,6.131 0.759,4.313 -1.851,17.323 -1.851,17.323 0.389,0.174 1.082,0.965 1.289,4.269 h 5.611 c 5.114,0 9.836,-4.702 9.22,-10.39 l -1.3,-10.671 c -1.084,-5.675 -4.16,-10.183 -9.241,-10.183 H 1.344 c -5.114,0 -8.223,4.669 -9.252,10.313 l -1.333,10.704 C -9.869,-4.637 -5.113,0 0,0" /></g><g
           transform="translate(23.3682,55.1535)"
           id="g32"><path
             id="path34"
             style="fill:#262262;fill-opacity:1;fill-rule:nonzero;stroke:none"
             d="m 0,0 c 0,-5.092 4.171,-9.177 9.284,-9.177 5.092,0 9.187,4.085 9.187,9.177 0,5.135 -4.095,9.272 -9.187,9.272 C 4.171,9.272 0,5.135 0,0" /></g></g></g></g></svg>