<?xml version="1.0" encoding="UTF-8" standalone="no"?>
<svg
   xmlns:dc="http://purl.org/dc/elements/1.1/"
   xmlns:cc="http://creativecommons.org/ns#"
   xmlns:rdf="http://www.w3.org/1999/02/22-rdf-syntax-ns#"
   xmlns:svg="http://www.w3.org/2000/svg"
   xmlns="http://www.w3.org/2000/svg"
   viewBox="0 0 83.022667 136.478"
   height="136.478"
   width="83.022667"
   xml:space="preserve"
   id="svg2"
   version="1.1"><metadata
     id="metadata8"><rdf:RDF><cc:Work
         rdf:about=""><dc:format>image/svg+xml</dc:format><dc:type
           rdf:resource="http://purl.org/dc/dcmitype/StillImage" /></cc:Work></rdf:RDF></metadata><defs
     id="defs6"><clipPath
       id="clipPath18"
       clipPathUnits="userSpaceOnUse"><path
         id="path16"
         d="M 0,102.359 H 62.267 V 0 H 0 Z" /></clipPath></defs><g
     transform="matrix(1.3333333,0,0,-1.3333333,0,136.47866)"
     id="g10"><g
       id="g12"><g
         clip-path="url(#clipPath18)"
         id="g14"><g
           transform="translate(47.9069,65.0639)"
           id="g20"><path
             id="path22"
             style="fill:#262262;fill-opacity:1;fill-rule:evenodd;stroke:none"
             d="m 0,0 c 0,0 -2.39,-5.097 -5.843,-5.766 1.35,-2.307 5.985,-1.95 8.21,-0.969 2.774,1.226 4.724,3.781 5.754,6.455 1.38,3.546 1.665,6.761 4.252,9.87 0.537,0.662 2.62,2.175 1.797,2.667 -4.899,2.828 -12.417,2.121 -14.827,1.239 0,0 -9.811,-1.886 -8.746,-11.212 8.044,6.614 13.13,6.478 13.13,6.478 C 4.241,8.016 3.32,7.25 2.827,6.455 2.827,6.455 1.534,5.358 0,0" /></g><g
           transform="translate(42.9518,65.7914)"
           id="g24"><path
             id="path26"
             style="fill:#262262;fill-opacity:1;fill-rule:nonzero;stroke:none"
             d="m 0,0 c -0.426,0.707 -1.293,0.39 -1.589,0.291 -1.556,-0.559 -5.194,-2.756 -8.296,-5.519 -2.039,5.42 -5.896,9.547 -7.639,10.423 -0.449,0.225 -0.811,0.275 -1.129,0.17 -0.295,-0.12 -0.526,-0.344 -0.615,-0.636 -0.14,-0.444 -0.086,-1.074 1.153,-2.833 10.806,-15.42 -2.412,-33.405 -2.565,-33.585 l 12.987,3.041 0.756,0.274 -0.273,0.739 c -1.426,4.023 -1.294,6.537 -1.118,9.437 0.044,1.282 0.131,2.607 0.076,4.121 0.099,0.4 0.219,0.794 0.307,1.222 0.592,2.416 1.392,5.705 6.872,10.691 C -0.426,-1.566 0.462,-0.783 0,0" /></g><g
           transform="translate(26.6764,77.8754)"
           id="g28"><path
             id="path30"
             style="fill:#262262;fill-opacity:1;fill-rule:evenodd;stroke:none"
             d="m 0,0 c -2.521,-4.488 -8.197,-6.067 -12.69,-3.557 -4.483,2.51 -6.072,8.198 -3.551,12.686 2.531,4.483 8.198,6.083 12.69,3.561 C 0.943,10.176 2.522,4.488 0,0 m 9.897,-4.127 c 1.381,3.272 0.176,7.125 -2.959,8.993 -0.186,0.104 -0.373,0.196 -0.559,0.295 0.987,0.598 1.863,1.437 2.5,2.5 2.06,3.43 0.932,7.863 -2.521,9.919 -2.433,1.473 -5.404,1.298 -7.662,-0.165 -0.053,2.405 -1.303,4.718 -3.528,6.05 -3.42,2.038 -7.858,0.926 -9.897,-2.515 -0.756,-1.222 -1.075,-2.604 -1.03,-3.946 -3.43,2.038 -7.858,0.91 -9.886,-2.504 -2.061,-3.431 -0.931,-7.887 2.477,-9.93 0.143,-0.072 0.273,-0.154 0.416,-0.224 -1.052,-0.576 -1.994,-1.452 -2.641,-2.587 -2.06,-3.431 -0.964,-7.869 2.488,-9.907 2.378,-1.426 5.206,-1.328 7.441,0 -0.021,-2.489 1.228,-4.911 3.519,-6.276 3.42,-2.055 7.88,-0.942 9.919,2.494 0.713,1.167 1.051,2.483 1.018,3.753 0.067,-0.053 0.165,-0.103 0.253,-0.141 3.42,-2.067 7.88,-0.954 9.907,2.487 0.329,0.549 0.571,1.117 0.745,1.704" /></g><g
           transform="translate(49.7701,49.8129)"
           id="g32"><path
             id="path34"
             style="fill:#262262;fill-opacity:1;fill-rule:evenodd;stroke:none"
             d="m 0,0 h -39.588 c -4.569,0 -8.286,-3.731 -8.286,-8.313 v -8.928 H 8.318 v 8.928 C 8.318,-3.731 4.591,0 0,0" /></g><g
           transform="translate(6.3024,27.4545)"
           id="g36"><path
             id="path38"
             style="fill:#262262;fill-opacity:1;fill-rule:evenodd;stroke:none"
             d="m 0,0 4.308,-20.457 c 0,-3.863 3.134,-6.997 6.993,-6.997 h 24.768 c 3.858,0 7.015,3.134 7.015,6.997 L 47.369,0 Z" /></g></g></g></g></svg>