<?xml version="1.0" encoding="UTF-8" standalone="no"?>
<svg
   xmlns:dc="http://purl.org/dc/elements/1.1/"
   xmlns:cc="http://creativecommons.org/ns#"
   xmlns:rdf="http://www.w3.org/1999/02/22-rdf-syntax-ns#"
   xmlns:svg="http://www.w3.org/2000/svg"
   xmlns="http://www.w3.org/2000/svg"
   viewBox="0 0 103.76026 103.80374"
   height="103.80373"
   width="103.76026"
   xml:space="preserve"
   id="svg2"
   version="1.1"><metadata
     id="metadata8"><rdf:RDF><cc:Work
         rdf:about=""><dc:format>image/svg+xml</dc:format><dc:type
           rdf:resource="http://purl.org/dc/dcmitype/StillImage" /></cc:Work></rdf:RDF></metadata><defs
     id="defs6"><clipPath
       id="clipPath18"
       clipPathUnits="userSpaceOnUse"><path
         id="path16"
         d="M 0,77.853 H 77.821 V 0 H 0 Z" /></clipPath></defs><g
     transform="matrix(1.3333333,0,0,-1.3333333,-2.6666666e-4,103.804)"
     id="g10"><g
       id="g12"><g
         clip-path="url(#clipPath18)"
         id="g14"><g
           transform="translate(2e-4,65.0678)"
           id="g20"><path
             id="path22"
             style="fill:#262262;fill-opacity:1;fill-rule:nonzero;stroke:none"
             d="m 0,0 v -52.291 c 0,-7.068 5.701,-12.776 12.751,-12.776 h 1.835 V 12.785 H 12.751 C 5.701,12.785 0,7.06 0,0" /></g><g
           transform="translate(34.6809,20.2192)"
           id="g24"><path
             id="path26"
             style="fill:#262262;fill-opacity:1;fill-rule:nonzero;stroke:none"
             d="m 0,0 h -0.934 v -2.392 h 0.792 c 0.651,0 1.1,0.1 1.367,0.35 0.25,0.192 0.391,0.483 0.391,0.851 0,0.341 -0.116,0.608 -0.333,0.858 C 1.042,-0.116 0.608,0 0,0" /></g><g
           transform="translate(43.5569,15.7524)"
           id="g28"><path
             id="path30"
             style="fill:#262262;fill-opacity:1;fill-rule:nonzero;stroke:none"
             d="M 0,0 H 2.367 L 1.175,3.867 Z" /></g><g
           transform="translate(71.1614,13.2602)"
           id="g32"><path
             id="path34"
             style="fill:#262262;fill-opacity:1;fill-rule:nonzero;stroke:none"
             d="m 0,0 c -0.367,-0.608 -0.893,-1.042 -1.601,-1.343 -0.683,-0.316 -1.525,-0.432 -2.575,-0.432 -1.834,0 -3.1,0.333 -3.801,1.049 -0.733,0.709 -1.1,1.584 -1.209,2.685 l 3.176,0.199 c 0.059,-0.515 0.184,-0.908 0.401,-1.175 0.349,-0.45 0.833,-0.667 1.492,-0.667 0.467,0 0.842,0.134 1.066,0.318 0.276,0.265 0.417,0.515 0.417,0.816 0,0.241 -0.125,0.509 -0.384,0.726 -0.224,0.216 -0.792,0.449 -1.708,0.633 -1.459,0.317 -2.492,0.757 -3.109,1.325 -0.616,0.516 -0.933,1.2 -0.933,2.075 0,0.533 0.142,1.051 0.475,1.542 0.316,0.517 0.808,0.899 1.442,1.191 0.658,0.277 1.517,0.393 2.659,0.393 1.375,0 2.408,-0.251 3.133,-0.751 0.725,-0.516 1.142,-1.324 1.3,-2.441 l -3.15,-0.184 c -0.092,0.467 -0.217,0.834 -0.525,1.051 -0.267,0.199 -0.626,0.349 -1.084,0.349 -0.4,0 -0.692,-0.099 -0.891,-0.266 -0.2,-0.176 -0.267,-0.366 -0.267,-0.583 0,-0.184 0.025,-0.351 0.216,-0.5 0.159,-0.117 0.533,-0.268 1.126,-0.384 1.45,-0.292 2.501,-0.608 3.092,-0.925 0.658,-0.35 1.108,-0.734 1.4,-1.225 0.283,-0.467 0.433,-1 0.433,-1.568 C 0.591,1.176 0.392,0.566 0,0 m -10.86,0 c -0.359,-0.608 -0.909,-1.042 -1.601,-1.343 -0.675,-0.316 -1.559,-0.432 -2.575,-0.432 -1.85,0 -3.101,0.333 -3.818,1.049 -0.691,0.709 -1.091,1.584 -1.191,2.685 l 3.159,0.199 c 0.082,-0.515 0.208,-0.908 0.416,-1.175 0.359,-0.45 0.851,-0.667 1.484,-0.667 0.466,0 0.825,0.134 1.092,0.318 0.25,0.265 0.4,0.515 0.4,0.816 0,0.241 -0.15,0.509 -0.384,0.726 -0.241,0.216 -0.8,0.449 -1.708,0.633 -1.459,0.317 -2.518,0.757 -3.117,1.325 -0.633,0.516 -0.95,1.2 -0.95,2.075 0,0.533 0.158,1.051 0.507,1.542 0.326,0.517 0.801,0.899 1.417,1.191 0.676,0.277 1.535,0.393 2.66,0.393 1.375,0 2.433,-0.251 3.159,-0.751 0.708,-0.516 1.158,-1.324 1.283,-2.441 l -3.134,-0.184 c -0.084,0.467 -0.259,0.834 -0.533,1.051 -0.268,0.199 -0.608,0.349 -1.101,0.349 -0.4,0 -0.691,-0.099 -0.875,-0.266 -0.2,-0.176 -0.299,-0.366 -0.299,-0.583 0,-0.184 0.084,-0.351 0.241,-0.5 0.159,-0.117 0.517,-0.268 1.125,-0.384 1.442,-0.292 2.492,-0.608 3.134,-0.925 0.617,-0.35 1.075,-0.734 1.367,-1.225 0.283,-0.467 0.426,-1 0.426,-1.568 0,-0.732 -0.184,-1.342 -0.584,-1.908 m -13.153,-1.608 -0.524,1.792 h -3.776 l -0.542,-1.792 h -3.4 l 4.042,10.776 h 3.643 l 4.042,-10.776 z m -11.601,4 h -1.8 v -4 h -3.358 V 9.168 h 5.533 c 1.2,0 2.125,-0.301 2.7,-0.85 0.609,-0.592 0.926,-1.401 0.926,-2.45 0,-1.1 -0.342,-1.95 -0.984,-2.567 -0.667,-0.609 -1.668,-0.909 -3.017,-0.909 M -6.109,64.593 H -46.85 V -13.26 h 40.741 c 7.043,0 12.768,5.708 12.768,12.777 v 52.291 c 0,7.059 -5.725,12.785 -12.768,12.785" /></g></g></g></g></svg>