<?xml version="1.0" encoding="UTF-8" standalone="no"?>
<svg
   xmlns:dc="http://purl.org/dc/elements/1.1/"
   xmlns:cc="http://creativecommons.org/ns#"
   xmlns:rdf="http://www.w3.org/1999/02/22-rdf-syntax-ns#"
   xmlns:svg="http://www.w3.org/2000/svg"
   xmlns="http://www.w3.org/2000/svg"
   viewBox="0 0 103.76026 103.804"
   height="103.804"
   width="103.76026"
   xml:space="preserve"
   id="svg2"
   version="1.1"><metadata
     id="metadata8"><rdf:RDF><cc:Work
         rdf:about=""><dc:format>image/svg+xml</dc:format><dc:type
           rdf:resource="http://purl.org/dc/dcmitype/StillImage" /></cc:Work></rdf:RDF></metadata><defs
     id="defs6"><clipPath
       id="clipPath18"
       clipPathUnits="userSpaceOnUse"><path
         id="path16"
         d="M 0,77.853 H 77.821 V 0 H 0 Z" /></clipPath></defs><g
     transform="matrix(1.3333333,0,0,-1.3333333,-2.6666666e-4,103.804)"
     id="g10"><g
       id="g12"><g
         clip-path="url(#clipPath18)"
         id="g14"><g
           transform="translate(40.1565,38.3473)"
           id="g20"><path
             id="path22"
             style="fill:#262262;fill-opacity:1;fill-rule:nonzero;stroke:none"
             d="M 0,0 C 0.084,-0.066 0.158,-0.15 0.217,-0.217 1.3,-1.317 2.583,-2.242 3.95,-2.925 3.483,-1.875 3.101,-0.7 2.767,0.542 1.817,0.392 0.875,0.226 0,0" /></g><g
           transform="translate(41.7727,46.9479)"
           id="g24"><path
             id="path26"
             style="fill:#262262;fill-opacity:1;fill-rule:nonzero;stroke:none"
             d="m 0,0 h -5.65 c 0.216,-1.999 0.849,-3.934 1.834,-5.633 1.275,0.383 2.716,0.699 4.275,0.967 C 0.217,-3.175 0.051,-1.583 0,0" /></g><g
           transform="translate(46.3655,39.3229)"
           id="g28"><path
             id="path30"
             style="fill:#262262;fill-opacity:1;fill-rule:nonzero;stroke:none"
             d="m 0,0 c 0.283,-0.976 0.608,-1.875 0.967,-2.709 0.492,-1.092 1.025,-2.025 1.609,-2.718 1.283,-0.166 2.608,-0.166 3.925,0 0.566,0.693 1.134,1.626 1.617,2.718 C 8.452,-1.875 8.769,-0.976 9.068,0 6.117,0.25 2.942,0.25 0,0" /></g><g
           transform="translate(40.1565,58.9664)"
           id="g32"><path
             id="path34"
             style="fill:#262262;fill-opacity:1;fill-rule:nonzero;stroke:none"
             d="M 0,0 C 0.875,-0.216 1.783,-0.416 2.767,-0.566 3.101,0.709 3.483,1.901 3.95,2.951 2.583,2.251 1.3,1.317 0.217,0.226 0.158,0.142 0.084,0.075 0,0" /></g><g
           transform="translate(61.6174,58.9664)"
           id="g36"><path
             id="path38"
             style="fill:#262262;fill-opacity:1;fill-rule:nonzero;stroke:none"
             d="M 0,0 C -0.058,0.075 -0.124,0.142 -0.208,0.226 -1.3,1.317 -2.559,2.251 -3.934,2.951 -3.475,1.901 -3.092,0.709 -2.733,-0.566 -1.767,-0.416 -0.841,-0.216 0,0" /></g><g
           transform="translate(55.4338,57.984)"
           id="g40"><path
             id="path42"
             style="fill:#262262;fill-opacity:1;fill-rule:nonzero;stroke:none"
             d="m 0,0 c -0.3,0.982 -0.616,1.892 -0.95,2.717 -0.484,1.067 -1.051,2.025 -1.617,2.708 -1.318,0.168 -2.642,0.168 -3.925,0 C -7.076,4.742 -7.609,3.784 -8.102,2.717 -8.46,1.892 -8.785,0.982 -9.068,0 -6.126,-0.217 -2.951,-0.217 0,0" /></g><g
           transform="translate(42.2317,55.0582)"
           id="g44"><path
             id="path46"
             style="fill:#262262;fill-opacity:1;fill-rule:nonzero;stroke:none"
             d="M 0,0 C -1.559,0.25 -3,0.566 -4.275,0.95 -5.26,-0.784 -5.893,-2.684 -6.109,-4.692 h 5.65 C -0.408,-3.084 -0.242,-1.509 0,0" /></g><g
           transform="translate(45.6409,54.6412)"
           id="g48"><path
             id="path50"
             style="fill:#262262;fill-opacity:1;fill-rule:nonzero;stroke:none"
             d="M 0,0 C -0.226,-1.392 -0.358,-2.8 -0.417,-4.275 H 10.935 C 10.885,-2.8 10.743,-1.392 10.501,0 7.126,-0.341 3.4,-0.341 0,0" /></g><g
           transform="translate(60.0256,50.3658)"
           id="g52"><path
             id="path54"
             style="fill:#262262;fill-opacity:1;fill-rule:nonzero;stroke:none"
             d="M 0,0 H 5.668 C 5.418,2.009 4.793,3.908 3.818,5.643 2.534,5.259 1.117,4.942 -0.44,4.692 -0.184,3.184 -0.075,1.608 0,0" /></g><g
           transform="translate(60.0256,46.9479)"
           id="g56"><path
             id="path58"
             style="fill:#262262;fill-opacity:1;fill-rule:nonzero;stroke:none"
             d="M 0,0 C -0.075,-1.583 -0.184,-3.175 -0.44,-4.666 1.117,-4.934 2.534,-5.25 3.818,-5.633 4.793,-3.934 5.418,-1.999 5.668,0 Z" /></g><g
           transform="translate(45.6409,42.6979)"
           id="g60"><path
             id="path62"
             style="fill:#262262;fill-opacity:1;fill-rule:nonzero;stroke:none"
             d="M 0,0 C 1.709,0.15 3.467,0.242 5.268,0.242 7.051,0.242 8.81,0.15 10.501,0 c 0.242,1.375 0.384,2.784 0.434,4.25 H -0.417 C -0.358,2.784 -0.226,1.375 0,0" /></g><g
           transform="translate(57.6838,35.4225)"
           id="g64"><path
             id="path66"
             style="fill:#262262;fill-opacity:1;fill-rule:nonzero;stroke:none"
             d="M 0,0 C 1.375,0.683 2.634,1.607 3.726,2.708 3.81,2.774 3.876,2.858 3.934,2.925 3.093,3.15 2.167,3.316 1.2,3.467 0.842,2.225 0.459,1.05 0,0" /></g><g
           transform="translate(2e-4,65.068)"
           id="g68"><path
             id="path70"
             style="fill:#262262;fill-opacity:1;fill-rule:nonzero;stroke:none"
             d="m 0,0 v -52.292 c 0,-7.067 5.701,-12.776 12.751,-12.776 h 1.835 V 12.785 H 12.751 C 5.701,12.785 0,7.06 0,0" /></g><g
           transform="translate(34.6809,20.2193)"
           id="g72"><path
             id="path74"
             style="fill:#262262;fill-opacity:1;fill-rule:nonzero;stroke:none"
             d="m 0,0 h -0.934 v -2.393 h 0.792 c 0.651,0 1.1,0.101 1.367,0.351 0.25,0.191 0.391,0.483 0.391,0.851 0,0.341 -0.116,0.607 -0.333,0.857 C 1.042,-0.117 0.608,0 0,0" /></g><g
           transform="translate(43.5569,15.7525)"
           id="g76"><path
             id="path78"
             style="fill:#262262;fill-opacity:1;fill-rule:nonzero;stroke:none"
             d="M 0,0 H 2.367 L 1.175,3.867 Z" /></g><g
           transform="translate(71.1614,13.2604)"
           id="g80"><path
             id="path82"
             style="fill:#262262;fill-opacity:1;fill-rule:nonzero;stroke:none"
             d="m 0,0 c -0.367,-0.608 -0.893,-1.042 -1.601,-1.343 -0.683,-0.316 -1.525,-0.432 -2.575,-0.432 -1.834,0 -3.1,0.333 -3.801,1.049 -0.733,0.708 -1.1,1.584 -1.209,2.685 l 3.176,0.199 c 0.059,-0.516 0.184,-0.908 0.401,-1.175 0.349,-0.45 0.833,-0.667 1.492,-0.667 0.467,0 0.842,0.134 1.066,0.317 0.276,0.266 0.417,0.516 0.417,0.817 0,0.241 -0.125,0.509 -0.384,0.726 -0.224,0.216 -0.792,0.449 -1.708,0.633 -1.459,0.316 -2.492,0.757 -3.109,1.324 -0.616,0.517 -0.933,1.201 -0.933,2.076 0,0.533 0.142,1.051 0.475,1.542 0.316,0.517 0.808,0.899 1.442,1.191 0.658,0.276 1.517,0.392 2.659,0.392 1.375,0 2.408,-0.25 3.133,-0.75 0.725,-0.517 1.142,-1.324 1.3,-2.441 L -2.909,5.959 C -3.001,6.426 -3.126,6.793 -3.434,7.01 -3.701,7.209 -4.06,7.359 -4.518,7.359 -4.918,7.359 -5.21,7.26 -5.409,7.092 -5.609,6.917 -5.676,6.727 -5.676,6.51 -5.676,6.326 -5.651,6.159 -5.46,6.009 -5.301,5.893 -4.927,5.742 -4.334,5.626 -2.884,5.334 -1.833,5.018 -1.242,4.701 -0.584,4.35 -0.134,3.967 0.158,3.476 0.441,3.009 0.591,2.475 0.591,1.908 0.591,1.175 0.392,0.566 0,0 m -10.86,0 c -0.359,-0.608 -0.909,-1.042 -1.601,-1.343 -0.675,-0.316 -1.559,-0.432 -2.575,-0.432 -1.85,0 -3.101,0.333 -3.818,1.049 -0.691,0.708 -1.091,1.584 -1.191,2.685 l 3.159,0.199 c 0.082,-0.516 0.208,-0.908 0.416,-1.175 0.359,-0.45 0.851,-0.667 1.484,-0.667 0.466,0 0.825,0.134 1.092,0.317 0.25,0.266 0.4,0.516 0.4,0.817 0,0.241 -0.15,0.509 -0.384,0.726 -0.241,0.216 -0.8,0.449 -1.708,0.633 -1.459,0.316 -2.518,0.757 -3.117,1.324 -0.633,0.517 -0.95,1.201 -0.95,2.076 0,0.533 0.158,1.051 0.507,1.542 0.326,0.517 0.801,0.899 1.417,1.191 0.676,0.276 1.535,0.392 2.66,0.392 1.375,0 2.433,-0.25 3.159,-0.75 0.708,-0.517 1.158,-1.324 1.283,-2.441 l -3.134,-0.184 c -0.084,0.467 -0.259,0.834 -0.533,1.051 -0.268,0.199 -0.608,0.349 -1.101,0.349 -0.4,0 -0.691,-0.099 -0.875,-0.267 -0.2,-0.175 -0.299,-0.365 -0.299,-0.582 0,-0.184 0.084,-0.351 0.241,-0.501 0.159,-0.116 0.517,-0.267 1.125,-0.383 1.442,-0.292 2.492,-0.608 3.134,-0.925 0.617,-0.351 1.075,-0.734 1.367,-1.225 0.283,-0.467 0.426,-1.001 0.426,-1.568 0,-0.733 -0.184,-1.342 -0.584,-1.908 m -28.855,35.396 c 0,10.719 8.719,19.471 19.462,19.471 10.709,0 19.469,-8.752 19.469,-19.471 0,-10.726 -8.76,-19.46 -19.469,-19.46 -10.743,0 -19.462,8.734 -19.462,19.46 m 15.702,-37.004 -0.524,1.792 h -3.776 l -0.542,-1.792 h -3.4 l 4.042,10.776 h 3.643 l 4.042,-10.776 z m -11.601,4 h -1.8 v -4 h -3.358 V 9.168 h 5.533 c 1.2,0 2.125,-0.301 2.7,-0.851 0.609,-0.591 0.926,-1.4 0.926,-2.45 0,-1.099 -0.342,-1.95 -0.984,-2.566 -0.667,-0.61 -1.668,-0.909 -3.017,-0.909 M -6.109,64.593 H -46.85 v -77.854 h 40.741 c 7.043,0 12.768,5.709 12.768,12.777 v 52.292 c 0,7.059 -5.725,12.785 -12.768,12.785" /></g></g></g></g></svg>