<?xml version="1.0" encoding="UTF-8" standalone="no"?>
<svg
   xmlns:dc="http://purl.org/dc/elements/1.1/"
   xmlns:cc="http://creativecommons.org/ns#"
   xmlns:rdf="http://www.w3.org/1999/02/22-rdf-syntax-ns#"
   xmlns:svg="http://www.w3.org/2000/svg"
   xmlns="http://www.w3.org/2000/svg"
   viewBox="0 0 105.34933 143.6324"
   height="143.6324"
   width="105.34933"
   xml:space="preserve"
   id="svg2"
   version="1.1"><metadata
     id="metadata8"><rdf:RDF><cc:Work
         rdf:about=""><dc:format>image/svg+xml</dc:format><dc:type
           rdf:resource="http://purl.org/dc/dcmitype/StillImage" /></cc:Work></rdf:RDF></metadata><defs
     id="defs6"><clipPath
       id="clipPath18"
       clipPathUnits="userSpaceOnUse"><path
         id="path16"
         d="M 0,107.725 H 79.012 V 0 H 0 Z" /></clipPath></defs><g
     transform="matrix(1.3333333,0,0,-1.3333333,0,143.6324)"
     id="g10"><g
       id="g12"><g
         clip-path="url(#clipPath18)"
         id="g14"><g
           transform="translate(60.638,6.0143)"
           id="g20"><path
             id="path22"
             style="fill:#262262;fill-opacity:1;fill-rule:nonzero;stroke:none"
             d="m 0,0 h -41.521 c -7.35,0 -13.31,5.959 -13.31,13.31 v 68.708 c 0,7.351 5.96,13.31 13.31,13.31 H 0 c 7.352,0 13.311,-5.959 13.311,-13.31 V 13.31 C 13.311,5.959 7.352,0 0,0 m -0.488,101.71 h -41.3 c -10.441,0 -18.85,-8.455 -18.85,-18.838 V 12.813 c 0,-10.383 8.409,-18.828 18.85,-18.828 h 41.3 c 10.428,0 18.862,8.445 18.862,18.828 v 70.059 c 0,10.383 -8.434,18.838 -18.862,18.838" /></g><g
           transform="translate(55.3929,52.8854)"
           id="g24"><path
             id="path26"
             style="fill:#262262;fill-opacity:1;fill-rule:nonzero;stroke:none"
             d="m 0,0 h -9.118 c 0.229,-0.845 0.306,-5.242 -2.073,-7.044 0,0 3.839,-21.748 2.207,-28.792 -0.633,-2.976 -3.224,-10.347 -6.2,-10.347 -2.878,0.156 -5.066,7.488 -5.679,10.347 -1.308,7.083 3.339,28.753 3.339,28.753 -0.73,0.269 -2.017,1.611 -2.343,7.083 h -9.942 c -9.155,0 -17.62,-7.775 -16.507,-17.218 l 2.323,-17.832 c 1.842,-9.385 7.447,-16.948 16.525,-16.948 h 25.145 c 9.041,0 14.644,7.832 16.468,17.274 l 2.34,17.737 C 17.657,-7.698 9.135,0 0,0" /></g><g
           transform="translate(57.2337,75.6667)"
           id="g28"><path
             id="path30"
             style="fill:#262262;fill-opacity:1;fill-rule:nonzero;stroke:none"
             d="m 0,0 c 0,-9.558 -7.504,-17.274 -16.774,-17.274 -9.233,0 -16.776,7.716 -16.776,17.274 0,9.501 7.543,17.198 16.776,17.198 C -7.504,17.198 0,9.501 0,0" /></g></g></g></g></svg>