<?xml version="1.0" encoding="UTF-8" standalone="no"?>
<svg
   xmlns:dc="http://purl.org/dc/elements/1.1/"
   xmlns:cc="http://creativecommons.org/ns#"
   xmlns:rdf="http://www.w3.org/1999/02/22-rdf-syntax-ns#"
   xmlns:svg="http://www.w3.org/2000/svg"
   xmlns="http://www.w3.org/2000/svg"
   viewBox="0 0 126.57239 126.59466"
   height="126.59467"
   width="126.5724"
   xml:space="preserve"
   id="svg2"
   version="1.1"><metadata
     id="metadata8"><rdf:RDF><cc:Work
         rdf:about=""><dc:format>image/svg+xml</dc:format><dc:type
           rdf:resource="http://purl.org/dc/dcmitype/StillImage" /></cc:Work></rdf:RDF></metadata><defs
     id="defs6"><clipPath
       id="clipPath18"
       clipPathUnits="userSpaceOnUse"><path
         id="path16"
         d="M 0,94.946 H 94.93 V 0 H 0 Z" /></clipPath></defs><g
     transform="matrix(1.3333333,0,0,-1.3333333,-9.3333331e-4,126.59466)"
     id="g10"><g
       id="g12"><g
         clip-path="url(#clipPath18)"
         id="g14"><g
           transform="translate(54.355,36.4121)"
           id="g20"><path
             id="path22"
             style="fill:#262262;fill-opacity:1;fill-rule:nonzero;stroke:none"
             d="m 0,0 c 0.864,-0.65 0.356,-1.728 -1.158,-2.327 l -10.827,-4.229 c -1.535,-0.569 -2.531,0.265 -2.277,1.84 l 1.85,11.478 c 0.234,1.574 1.169,2.346 2.023,1.635 z" /></g><g
           transform="translate(64.2671,42.8066)"
           id="g24"><path
             id="path26"
             style="fill:#262262;fill-opacity:1;fill-rule:nonzero;stroke:none"
             d="m 0,0 18.715,23.127 3.943,4.971 -6.322,5.154 L 12.94,35.996 6.496,41.15 2.531,36.18 -16.164,13.063 c -1.544,-3.466 -0.711,-7.674 2.369,-10.166 l 3.416,-2.713 C -7.319,-2.308 -3.02,-2.286 0,0" /></g><g
           transform="translate(73.3354,87.4746)"
           id="g28"><path
             id="path30"
             style="fill:#262262;fill-opacity:1;fill-rule:nonzero;stroke:none"
             d="m 0,0 4.085,-3.345 8.326,-6.759 4.097,-3.426 3.904,4.92 c 1.85,2.266 1.494,5.631 -0.813,7.471 L 11.282,5.602 C 8.996,7.451 5.642,7.086 3.771,4.799 Z" /></g><g
           transform="translate(35.4575,22.4355)"
           id="g32"><path
             id="path34"
             style="fill:#262262;fill-opacity:1;fill-rule:nonzero;stroke:none"
             d="m 0,0 -10.226,-10.277 c -1.433,-1.373 -3.711,-1.373 -5.144,0 l -5.103,5.124 c -1.423,1.453 -1.423,3.76 0,5.153 1.423,1.402 3.69,1.402 5.103,0 l 2.572,-2.531 7.686,7.655 C -3.68,6.547 -1.393,6.547 0,5.124 1.434,3.73 1.434,1.402 0,0" /></g><g
           transform="translate(71.1597,20.3515)"
           id="g36"><path
             id="path38"
             style="fill:#262262;fill-opacity:1;fill-rule:nonzero;stroke:none"
             d="m 0,0 v 21.511 l -2.246,-2.806 c -0.346,-0.388 -0.672,-0.723 -1.079,-1.047 -0.751,-0.559 -1.626,-1.037 -2.49,-1.455 V 10.693 0.63 h -14.497 v -14.933 h -0.05 -4.879 -20.626 -12.149 c -4.036,0 -7.289,3.273 -7.289,7.269 v 68.322 c 0,1.931 0.764,3.751 2.106,5.144 1.392,1.372 3.202,2.145 5.183,2.145 h 44.923 c 1.951,0 3.771,-0.773 5.154,-2.145 0.416,-0.408 0.793,-0.915 1.096,-1.453 l 3.905,5.213 c -0.223,0.235 -0.468,0.509 -0.702,0.743 -2.247,2.256 -5.368,3.66 -8.813,3.66 h -46.213 c -3.456,0 -6.598,-1.404 -8.844,-3.66 -2.257,-2.257 -3.649,-5.368 -3.649,-8.814 V -7.868 c 0,-6.912 5.6,-12.484 12.493,-12.484 h 12.574 21.065 5.051 c 1.363,0 2.623,0.57 3.547,1.464 L -1.423,-3.884 C -0.539,-3.009 -0.041,-1.779 0,-0.509 0,-0.355 0.04,-0.183 0.04,0 Z" /></g><g
           transform="translate(56.3989,77.1669)"
           id="g40"><path
             id="path42"
             style="fill:#262262;fill-opacity:1;fill-rule:nonzero;stroke:none"
             d="m 0,0 h -41.567 c -1.637,0 -2.957,-1.342 -2.957,-2.979 0,-1.637 1.32,-2.978 2.957,-2.978 h 38.009 l 4.666,5.712 C 0.742,-0.103 0.376,0 0,0" /></g><g
           transform="translate(48.0835,65.3027)"
           id="g44"><path
             id="path46"
             style="fill:#262262;fill-opacity:1;fill-rule:nonzero;stroke:none"
             d="m 0,0 h -33.252 c -1.637,0 -2.957,-1.361 -2.957,-2.978 0,-1.668 1.32,-2.978 2.957,-2.978 h 28.484 c 0.051,0.092 0.112,0.152 0.193,0.244 z" /></g><g
           transform="translate(41.4966,50.7675)"
           id="g48"><path
             id="path50"
             style="fill:#262262;fill-opacity:1;fill-rule:nonzero;stroke:none"
             d="m 0,0 c -0.103,0.894 -0.103,1.758 -0.062,2.652 h -26.603 c -1.637,0 -2.957,-1.341 -2.957,-2.978 0,-1.637 1.32,-2.979 2.957,-2.979 H -4.229 C -3.172,-1.484 -1.616,-0.469 0,0" /></g><g
           transform="translate(14.8315,41.5566)"
           id="g52"><path
             id="path54"
             style="fill:#262262;fill-opacity:1;fill-rule:nonzero;stroke:none"
             d="m 0,0 c -1.637,0 -2.957,-1.342 -2.957,-2.999 0,-1.616 1.32,-2.958 2.957,-2.958 H 19.854 L 20.84,0 Z" /></g></g></g></g></svg>